<svg xmlns="http://www.w3.org/2000/svg" width="18" height="18" viewBox="0 0 18 18" fill="none">
<path fill-rule="evenodd" clip-rule="evenodd" d="M0.697296 5C0.430344 6.72381 0.222796 9.2108 1.08285 10.8782C1.82419 12.376 2.62495 13.2239 4.67119 13.5913C6.36165 13.8739 7.39959 13.7326 8.9418 13.1674C10.7212 12.5174 12.2336 11.1043 13.4791 9.32391L16 15.0043C14.4283 16.5304 12.3819 18 9.32735 18C4.99744 18 2.1208 15.9087 0.815894 12.5739C-0.548201 9.09768 0.0745475 7.00636 0.697296 5Z" fill="white"/>
<path fill-rule="evenodd" clip-rule="evenodd" d="M17.3027 14C17.5696 12.1435 17.7772 9.46519 16.9172 7.66952C16.1757 6.05652 15.375 5.14358 13.3287 4.74781C11.6383 4.44353 10.6004 4.59567 9.05827 5.20444C7.27888 5.90428 5.76644 7.4261 4.52084 9.34337L2 3.2262C3.57185 1.58267 5.61808 0 8.67261 0C13.0025 0 15.8791 2.25219 17.184 5.84364C18.5482 9.5869 17.9255 11.8391 17.3027 14Z" fill="white"/>
<script xmlns=""/></svg>