<svg width="800" height="800" viewBox="0 0 800 800" fill="none" xmlns="http://www.w3.org/2000/svg">
<path d="M346.667 13.3359H253.333C242.725 13.3359 232.55 17.5502 225.049 25.0517C217.548 32.5531 213.333 42.7273 213.333 53.3359V146.669C213.333 157.278 217.548 167.452 225.049 174.954C232.55 182.455 242.725 186.669 253.333 186.669H346.667C357.275 186.669 367.449 182.455 374.951 174.954C382.452 167.452 386.667 157.278 386.667 146.669V53.3359C386.667 42.7273 382.452 32.5531 374.951 25.0517C367.449 17.5502 357.275 13.3359 346.667 13.3359ZM746.667 13.3359H653.333C642.725 13.3359 632.55 17.5502 625.049 25.0517C617.548 32.5531 613.333 42.7273 613.333 53.3359V146.669C613.333 157.278 617.548 167.452 625.049 174.954C632.55 182.455 642.725 186.669 653.333 186.669H746.667C757.275 186.669 767.449 182.455 774.951 174.954C782.452 167.452 786.667 157.278 786.667 146.669V53.3359C786.667 42.7273 782.452 32.5531 774.951 25.0517C767.449 17.5502 757.275 13.3359 746.667 13.3359ZM146.667 413.336H53.3333C42.7246 413.336 32.5504 417.55 25.049 425.052C17.5475 432.553 13.3333 442.727 13.3333 453.336V546.669C13.3333 557.278 17.5475 567.452 25.049 574.954C32.5504 582.455 42.7246 586.669 53.3333 586.669H146.667C157.275 586.669 167.449 582.455 174.951 574.954C182.452 567.452 186.667 557.278 186.667 546.669V453.336C186.667 442.727 182.452 432.553 174.951 425.052C167.449 417.55 157.275 413.336 146.667 413.336ZM346.667 413.336H253.333C242.725 413.336 232.55 417.55 225.049 425.052C217.548 432.553 213.333 442.727 213.333 453.336V546.669C213.333 557.278 217.548 567.452 225.049 574.954C232.55 582.455 242.725 586.669 253.333 586.669H346.667C357.275 586.669 367.449 582.455 374.951 574.954C382.452 567.452 386.667 557.278 386.667 546.669V453.336C386.667 442.727 382.452 432.553 374.951 425.052C367.449 417.55 357.275 413.336 346.667 413.336ZM546.667 413.336H453.333C442.725 413.336 432.55 417.55 425.049 425.052C417.548 432.553 413.333 442.727 413.333 453.336V546.669C413.333 557.278 417.548 567.452 425.049 574.954C432.55 582.455 442.725 586.669 453.333 586.669H546.667C557.275 586.669 567.449 582.455 574.951 574.954C582.452 567.452 586.667 557.278 586.667 546.669V453.336C586.667 442.727 582.452 432.553 574.951 425.052C567.449 417.55 557.275 413.336 546.667 413.336ZM146.667 213.336H53.3333C42.7246 213.336 32.5504 217.55 25.049 225.052C17.5475 232.553 13.3333 242.727 13.3333 253.336V346.669C13.3333 357.278 17.5475 367.452 25.049 374.954C32.5504 382.455 42.7246 386.669 53.3333 386.669H146.667C157.275 386.669 167.449 382.455 174.951 374.954C182.452 367.452 186.667 357.278 186.667 346.669V253.336C186.667 242.727 182.452 232.553 174.951 225.052C167.449 217.55 157.275 213.336 146.667 213.336ZM546.667 213.336H453.333C442.725 213.336 432.55 217.55 425.049 225.052C417.548 232.553 413.333 242.727 413.333 253.336V346.669C413.333 357.278 417.548 367.452 425.049 374.954C432.55 382.455 442.725 386.669 453.333 386.669H546.667C557.275 386.669 567.449 382.455 574.951 374.954C582.452 367.452 586.667 357.278 586.667 346.669V253.336C586.667 242.727 582.452 232.553 574.951 225.052C567.449 217.55 557.275 213.336 546.667 213.336ZM746.667 213.336H653.333C642.725 213.336 632.55 217.55 625.049 225.052C617.548 232.553 613.333 242.727 613.333 253.336V346.669C613.333 357.278 617.548 367.452 625.049 374.954C632.55 382.455 642.725 386.669 653.333 386.669H746.667C757.275 386.669 767.449 382.455 774.951 374.954C782.452 367.452 786.667 357.278 786.667 346.669V253.336C786.667 242.727 782.452 232.553 774.951 225.052C767.449 217.55 757.275 213.336 746.667 213.336ZM346.667 613.336H253.333C242.725 613.336 232.55 617.55 225.049 625.052C217.548 632.553 213.333 642.727 213.333 653.336V746.669C213.333 757.278 217.548 767.452 225.049 774.954C232.55 782.455 242.725 786.669 253.333 786.669H346.667C357.275 786.669 367.449 782.455 374.951 774.954C382.452 767.452 386.667 757.278 386.667 746.669V653.336C386.667 642.727 382.452 632.553 374.951 625.052C367.449 617.55 357.275 613.336 346.667 613.336ZM746.667 613.336H653.333C642.725 613.336 632.55 617.55 625.049 625.052C617.548 632.553 613.333 642.727 613.333 653.336V746.669C613.333 757.278 617.548 767.452 625.049 774.954C632.55 782.455 642.725 786.669 653.333 786.669H746.667C757.275 786.669 767.449 782.455 774.951 774.954C782.452 767.452 786.667 757.278 786.667 746.669V653.336C786.667 642.727 782.452 632.553 774.951 625.052C767.449 617.55 757.275 613.336 746.667 613.336Z" fill="#64934C"/>
</svg>
