<svg width="1923" height="954" viewBox="0 0 1923 954" fill="none" xmlns="http://www.w3.org/2000/svg">
<g clip-path="url(#clip0_294_30)">
<mask id="mask0_294_30" style="mask-type:luminance" maskUnits="userSpaceOnUse" x="0" y="0" width="1923" height="954">
<path d="M1923 0H4.57764e-05V954H1923V0Z" fill="white"/>
</mask>
<g mask="url(#mask0_294_30)">
<path d="M1672.59 -408.977C1603.46 -427.471 1529.71 -407.739 1479.1 -357.214L1203.57 -82.107C1152.96 -31.582 1133.2 42.06 1151.72 111.078L1252.58 486.881C1271.1 555.9 1325.09 609.809 1394.22 628.303L1770.61 728.999C1839.73 747.492 1913.49 727.76 1964.1 677.235L2239.63 402.128C2290.24 351.603 2310 277.961 2291.48 208.943L2190.62 -166.86C2172.1 -235.878 2118.11 -289.788 2048.98 -308.281L1672.59 -408.977ZM273.697 1264.15C240.515 1273.03 205.11 1263.56 180.822 1239.31L32.7007 1091.42C20.7678 1079.5 12.1859 1064.66 7.81713 1048.38C3.44837 1032.1 3.44648 1014.97 7.81175 998.688L62.0265 796.666C66.3966 780.388 74.9806 765.546 86.9164 753.63C98.8521 741.714 113.719 733.145 130.022 728.784L332.358 674.652C365.54 665.775 400.935 675.247 425.233 699.499L573.354 847.389C585.288 859.305 593.87 874.148 598.237 890.425C602.604 906.703 602.603 923.841 598.233 940.118L544.018 1142.14C539.653 1158.42 531.071 1173.26 519.137 1185.18C507.203 1197.09 492.336 1205.66 476.032 1210.02L273.697 1264.15ZM348.063 252.659C345.079 255.638 341.363 257.78 337.288 258.87C333.213 259.961 328.922 259.96 324.846 258.87L274.267 245.337C270.191 244.249 266.473 242.108 263.489 239.129C260.505 236.149 258.36 232.438 257.271 228.367L243.71 177.861C242.618 173.792 242.618 169.507 243.71 165.438C244.801 161.369 246.947 157.658 249.93 154.679L286.967 117.706C289.95 114.727 293.666 112.585 297.742 111.494C301.817 110.404 306.108 110.404 310.183 111.495L360.762 125.028C364.84 126.117 368.558 128.258 371.543 131.237C374.529 134.216 376.676 137.928 377.769 141.998L391.32 192.504C392.412 196.573 392.412 200.858 391.32 204.927C390.228 208.996 388.083 212.707 385.1 215.686L348.063 252.659Z" fill="#64934C"/>
</g>
</g>
<defs>
<clipPath id="clip0_294_30">
<rect width="1923" height="954" fill="white" transform="matrix(-1 0 0 1 1923 0)"/>
</clipPath>
</defs>
</svg>
