<svg width="1920" height="954" viewBox="0 0 1920 954" fill="none" xmlns="http://www.w3.org/2000/svg">
<g clip-path="url(#clip0_298_5)">
<mask id="mask0_298_5" style="mask-type:luminance" maskUnits="userSpaceOnUse" x="0" y="0" width="1920" height="954">
<path d="M0 954H1920V0H0V954Z" fill="white"/>
</mask>
<g mask="url(#mask0_298_5)">
<path fill-rule="evenodd" clip-rule="evenodd" d="M1660.78 1152.08C1701.78 1189.24 1765.1 1186.07 1802.2 1144.99C1912.68 1022.69 1972.3 862.662 1968.86 697.724C1965.42 532.786 1899.19 375.393 1783.72 257.818C1668.23 140.24 1512.25 71.3922 1347.73 65.4232C1183.21 59.4552 1022.67 116.82 899.011 225.727C857.483 262.301 853.42 325.668 889.937 367.262C926.454 408.855 989.721 412.924 1031.25 376.35C1116.5 301.271 1227.14 261.752 1340.48 265.864C1453.83 269.976 1561.33 317.41 1640.95 398.475C1720.58 479.543 1766.27 588.105 1768.65 701.909C1771.02 815.713 1729.88 926.097 1653.7 1010.43C1616.6 1051.5 1619.77 1114.92 1660.78 1152.08Z" fill="#64934C"/>
<path fill-rule="evenodd" clip-rule="evenodd" d="M1544.89 916.571C1595.6 938.763 1654.68 915.624 1676.86 864.888C1715.57 776.338 1719.46 676.443 1687.73 585.156C1656 493.868 1591.02 417.923 1505.79 372.394C1420.56 326.871 1321.32 315.07 1227.79 339.334C1134.26 363.596 1053.26 422.157 1000.97 503.422C971.005 549.981 984.438 612.028 1030.97 642.008C1077.5 671.987 1139.51 658.546 1169.48 611.987C1194.47 573.153 1233.23 545.089 1278.09 533.451C1322.94 521.816 1370.53 527.473 1411.4 549.298C1452.23 571.113 1483.28 607.452 1498.43 651.025C1513.57 694.591 1511.72 742.266 1493.24 784.525C1471.06 835.26 1494.19 894.379 1544.89 916.571Z" fill="#64934C"/>
</g>
</g>
<defs>
<clipPath id="clip0_298_5">
<rect width="1920" height="954" fill="white" transform="matrix(1 0 0 -1 0 954)"/>
</clipPath>
</defs>
</svg>
