<svg width="1922" height="954" viewBox="0 0 1922 954" fill="none" xmlns="http://www.w3.org/2000/svg">
<g clip-path="url(#clip0_293_11)">
<mask id="mask0_293_11" style="mask-type:luminance" maskUnits="userSpaceOnUse" x="0" y="0" width="1922" height="955">
<path d="M1922 0.000244141L3.05176e-05 7.61141e-05L-5.28838e-05 954L1922 954L1922 0.000244141Z" fill="white"/>
</mask>
<g mask="url(#mask0_293_11)">
<path d="M599.053 538C563.506 287.516 646.973 89.9102 793.826 -0.417826L546.388 -5.99985C480.55 94.6802 562.295 425.512 599.053 538ZM1609.67 955C1176.98 955 862.127 774.333 758.789 684C849.224 841.09 935.74 930.121 967.695 955L1609.67 955Z" fill="#1E502F" fill-opacity="0.25"/>
<path d="M576.099 427C576.099 174.6 788.991 36.1672 895.432 -1.49976L547.57 -1.49979C477.497 80.9002 537.389 318.5 576.099 427Z" fill="#1E502F" fill-opacity="0.1"/>
<path fill-rule="evenodd" clip-rule="evenodd" d="M1081.48 954C782.444 793.549 583.607 508.902 583.607 184.5C583.607 121.282 591.155 59.574 605.53 2.48209e-05L0.000236605 -2.81162e-05L0.000153203 954L1081.48 954ZM1081.48 954C1244.45 1041.44 1437.18 1092 1643.71 1092C2229.19 1092 2703.81 685.698 2703.81 184.5C2703.81 -316.698 2229.19 -723 1643.71 -723C1132.08 -723 705.104 -412.731 605.53 2.48209e-05L1922 0.00013991L1922 954L1081.48 954Z" fill="#1E502F" fill-opacity="0.5"/>
<path fill-rule="evenodd" clip-rule="evenodd" d="M909.396 954C699.307 793.95 567.59 564.007 567.59 308.5C567.59 199.916 591.375 95.9482 634.86 0.000200988L-0.000137307 0.000145487L-0.000220708 954L909.396 954ZM909.396 954C1096.88 1096.83 1346.78 1184 1621.19 1184C2203.07 1184 2674.78 792.026 2674.78 308.5C2674.78 -175.025 2203.07 -567 1621.19 -567C1169.97 -567 785.007 -331.308 634.86 0.000200988L1922 0.000313514L1922 954.001L909.396 954Z" fill="#1E502F"/>
</g>
</g>
<defs>
<clipPath id="clip0_293_11">
<rect width="1922" height="954" fill="white" transform="matrix(-1 -8.74228e-08 -8.74228e-08 1 1922 0.000244141)"/>
</clipPath>
</defs>
</svg>
