<svg width="1920" height="954" viewBox="0 0 1920 954" fill="none" xmlns="http://www.w3.org/2000/svg">
<g clip-path="url(#clip0_283_164)">
<mask id="mask0_283_164" style="mask-type:luminance" maskUnits="userSpaceOnUse" x="0" y="0" width="1920" height="954">
<path d="M0 0H1920V954H0V0Z" fill="white"/>
</mask>
<g mask="url(#mask0_283_164)">
<path d="M250.018 -408.977C319.037 -427.471 392.678 -407.739 443.203 -357.214L718.31 -82.107C768.835 -31.582 788.568 42.06 770.074 111.078L669.378 486.881C650.885 555.9 596.975 609.809 527.957 628.303L152.154 728.999C83.1349 747.492 9.49393 727.76 -41.0321 677.235L-316.138 402.128C-366.663 351.603 -386.396 277.961 -367.902 208.943L-267.206 -166.86C-248.713 -235.878 -194.803 -289.788 -125.785 -308.281L250.018 -408.977ZM1646.73 1264.15C1679.86 1273.03 1715.21 1263.56 1739.46 1239.31L1887.35 1091.42C1899.26 1079.5 1907.83 1064.66 1912.19 1048.38C1916.56 1032.1 1916.56 1014.97 1912.2 998.688L1858.07 796.666C1853.71 780.388 1845.14 765.546 1833.22 753.63C1821.3 741.714 1806.46 733.145 1790.18 728.784L1588.16 674.652C1555.03 665.775 1519.69 675.247 1495.43 699.499L1347.54 847.389C1335.62 859.305 1327.06 874.148 1322.7 890.425C1318.34 906.703 1318.34 923.841 1322.7 940.118L1376.83 1142.14C1381.19 1158.42 1389.76 1173.26 1401.67 1185.18C1413.59 1197.09 1428.43 1205.66 1444.71 1210.02L1646.73 1264.15ZM1572.48 252.659C1575.46 255.638 1579.17 257.78 1583.24 258.87C1587.31 259.961 1591.59 259.96 1595.66 258.87L1646.16 245.337C1650.23 244.249 1653.94 242.108 1656.92 239.129C1659.9 236.149 1662.04 232.438 1663.13 228.367L1676.67 177.861C1677.76 173.792 1677.76 169.507 1676.67 165.438C1675.58 161.369 1673.44 157.658 1670.46 154.679L1633.48 117.706C1630.5 114.727 1626.79 112.585 1622.72 111.494C1618.65 110.404 1614.37 110.404 1610.3 111.495L1559.8 125.028C1555.73 126.117 1552.02 128.258 1549.04 131.237C1546.05 134.216 1543.91 137.928 1542.82 141.998L1529.29 192.504C1528.2 196.573 1528.2 200.858 1529.29 204.927C1530.38 208.996 1532.52 212.707 1535.5 215.686L1572.48 252.659Z" fill="#64934C"/>
</g>
</g>
<defs>
<clipPath id="clip0_283_164">
<rect width="1920" height="954" fill="white"/>
</clipPath>
</defs>
</svg>
