<svg width="160" height="160" viewBox="0 0 160 160" fill="none" xmlns="http://www.w3.org/2000/svg">
<g clip-path="url(#clip0_283_148)">
<mask id="mask0_283_148" style="mask-type:luminance" maskUnits="userSpaceOnUse" x="0" y="0" width="160" height="160">
<path d="M160 0H0V160H160V0Z" fill="white"/>
</mask>
<g mask="url(#mask0_283_148)">
<path d="M79.9999 158.995C123.628 158.995 158.995 123.628 158.995 79.9999C158.995 36.3719 123.628 1.00439 79.9999 1.00439C36.3719 1.00439 1.00439 36.3719 1.00439 79.9999C1.00439 123.628 36.3719 158.995 79.9999 158.995Z" fill="white"/>
<path fill-rule="evenodd" clip-rule="evenodd" d="M22.6264 52.9217L20.2931 58.7573L19.1109 58.2728L20.9153 53.7706L18.8131 52.9128L17.1509 57.0684L16.0264 56.6061L17.6887 52.4506L15.2576 51.455L13.3998 56.1084L12.1909 55.615L14.582 49.6328L22.6264 52.9217ZM19.7909 60.3173L19.4487 61.8284L12.2042 64.3306L18.5376 65.8061L18.222 67.1884L9.75978 65.2106L10.102 63.7084L17.3509 61.1839L11.0176 59.7084L11.3287 58.3395L19.7909 60.3173ZM18.1864 68.6061L18.022 70.175L10.902 71.6417L17.5687 74.5706L17.4087 76.1217L9.08423 72.1839L9.23534 70.7261L18.1864 68.6061ZM17.6176 77.8728L17.5687 79.3395L8.88867 79.0328L8.93756 77.5661L17.6176 77.8728ZM16.8664 83.3173L14.2042 83.5039L14.3464 85.5928C14.3909 86.1973 14.5242 86.6328 14.7553 86.8773C14.982 87.1306 15.3376 87.2373 15.8087 87.2017C16.2709 87.1706 16.5998 87.0195 16.7864 86.7439C16.9776 86.4684 17.0531 86.0284 17.0087 85.4328L16.8664 83.3173ZM17.982 81.7973L18.2487 85.5706C18.2531 85.6861 18.262 85.8195 18.262 85.9528C18.262 85.9973 18.2576 86.0239 18.262 86.0328C18.3153 86.8106 18.142 87.4284 17.7464 87.895C17.3509 88.3661 16.7776 88.6239 16.0264 88.6773C15.5376 88.7128 15.1064 88.6328 14.7464 88.4417C14.3776 88.2461 14.1109 87.9573 13.9287 87.5706C13.8353 87.9306 13.6753 88.2061 13.4442 88.375C13.2087 88.5484 12.8176 88.6684 12.2664 88.7395L11.0264 88.8995H11.0176C10.4798 88.9617 10.1598 89.1039 10.0531 89.335L9.79978 89.3528L9.68867 87.7217C9.79978 87.6506 9.92867 87.5928 10.0842 87.5484C10.2353 87.5039 10.4798 87.4595 10.8176 87.4195L11.8487 87.3084C12.4042 87.2328 12.7642 87.0862 12.9376 86.8728C13.1109 86.655 13.1776 86.2995 13.142 85.815L13.1242 85.535L12.9909 83.6106L9.42645 83.8639L9.31978 82.4106L17.982 81.7973ZM18.6353 94.1484C18.4442 93.3128 18.0131 92.7306 17.3376 92.3928C16.6576 92.0595 15.8131 92.0106 14.7909 92.2462C13.7731 92.4861 13.0353 92.8995 12.5731 93.5039C12.1109 94.1039 11.9776 94.8239 12.1687 95.655C12.3553 96.4861 12.7909 97.0639 13.4664 97.4017C14.142 97.7395 14.9909 97.7884 16.0087 97.5484C17.0264 97.3128 17.7642 96.895 18.2309 96.2906C18.6887 95.695 18.8265 94.9795 18.6353 94.1484ZM19.8531 93.8639C20.142 95.1306 19.9731 96.2239 19.3509 97.1439C18.7198 98.0595 17.7153 98.6817 16.3331 99.0017C14.9509 99.3217 13.7776 99.215 12.8176 98.6684C11.8531 98.1173 11.2264 97.2106 10.9376 95.9439C10.6487 94.6684 10.8176 93.575 11.4398 92.655C12.0664 91.7439 13.0709 91.1217 14.4576 90.7973C15.8442 90.4773 17.0176 90.5839 17.9776 91.1306C18.9376 91.6817 19.5642 92.5884 19.8531 93.8639ZM21.5864 99.3128L22.1642 100.753L17.6531 106.997L23.6798 104.544L24.2042 105.855L16.1509 109.139L15.582 107.713L20.0842 101.442L14.0576 103.904L13.542 102.606L21.5864 99.3128ZM24.9153 107.535L25.9953 109.353L21.1153 114.779L28.1598 113.002L29.2398 114.819L21.7953 119.339L21.0887 118.153L27.2398 114.411L19.982 116.282L19.2531 115.059L24.3109 109.482L18.1598 113.219L17.4709 112.059L24.9153 107.535ZM30.8042 116.726L34.5509 121.757L33.5331 122.531L30.6442 118.651L28.8309 120.033L31.4976 123.611L30.5287 124.353L27.8576 120.766L25.7642 122.366L28.7509 126.371L27.7109 127.166L23.8664 122.015L30.8042 116.726ZM35.6087 122.691L36.7464 123.731L35.4042 131.344L39.7553 126.459L40.7953 127.406L34.982 133.931L33.8531 132.904L35.1776 125.273L30.8264 130.153L29.7953 129.215L35.6087 122.691ZM41.9731 128.517L47.462 132.544L46.7153 133.584L44.5598 132.002L40.2042 138.064L39.0442 137.206L43.3953 131.148L41.2264 129.557L41.9731 128.517ZM50.6665 136.237L47.6176 138.828L49.8309 140.175L50.6665 136.237ZM50.7287 134.548L52.1198 135.397L50.382 144.579L49.0576 143.775L49.5464 141.428L46.6531 139.668L44.8442 141.224L43.5464 140.437L50.7287 134.548ZM55.902 137.157L57.2442 137.708L54.4842 144.615L58.462 146.233L57.9687 147.468L52.6531 145.299L55.902 137.157ZM69.2887 142.726L68.9064 145.473L70.7642 145.739C71.3464 145.824 71.7731 145.775 72.0487 145.597C72.3287 145.419 72.502 145.091 72.5642 144.602C72.6309 144.131 72.5553 143.762 72.342 143.504C72.1287 143.246 71.7598 143.077 71.2309 143.006L69.2887 142.726ZM68.0309 141.273L71.3064 141.735C71.8353 141.811 72.2264 141.886 72.4709 141.975C72.7198 142.064 72.9376 142.175 73.1198 142.317C73.4842 142.588 73.7376 142.935 73.8842 143.357C74.0309 143.788 74.0709 144.282 73.9909 144.837C73.9242 145.299 73.7864 145.699 73.5687 146.042C73.3464 146.384 73.062 146.651 72.7153 146.846C72.4709 146.975 72.1998 147.059 71.8976 147.086C71.5953 147.117 71.1864 147.095 70.6753 147.019L68.7242 146.739L68.2487 150.166L66.822 149.962L68.0309 141.273ZM77.5642 143.508V146.206H79.6353C80.2398 146.206 80.6753 146.104 80.9376 145.886C81.1998 145.673 81.3287 145.326 81.3287 144.846C81.3287 144.379 81.2042 144.037 80.9464 143.828C80.6887 143.619 80.262 143.513 79.6664 143.513L77.5642 143.508ZM76.1464 142.273H79.8887C80.0042 142.273 80.1287 142.277 80.2664 142.286C80.3109 142.286 80.3376 142.291 80.3465 142.291C81.1109 142.291 81.7153 142.508 82.142 142.939C82.582 143.371 82.7909 143.966 82.7909 144.726C82.7909 145.219 82.6887 145.646 82.4709 145.997C82.2531 146.353 81.9464 146.606 81.5509 146.762C81.9064 146.877 82.1598 147.059 82.3153 147.308C82.4664 147.557 82.5642 147.957 82.5909 148.522L82.6709 149.775V149.788C82.6931 150.335 82.8131 150.668 83.0309 150.793V151.051H81.4131C81.3465 150.935 81.302 150.793 81.2664 150.637C81.2309 150.486 81.2087 150.233 81.1909 149.891L81.142 148.846C81.1109 148.282 80.9953 147.904 80.7953 147.722C80.5909 147.531 80.2487 147.442 79.7642 147.442H77.5776V151.055H76.1464V142.273ZM88.742 142.731C87.9064 142.851 87.2931 143.233 86.902 143.886C86.5109 144.539 86.3909 145.384 86.5331 146.433C86.6798 147.473 87.0264 148.255 87.582 148.775C88.1331 149.291 88.822 149.491 89.6664 149.371C90.4976 149.255 91.1064 148.873 91.4976 148.215C91.8842 147.566 92.0087 146.717 91.8664 145.677C91.7198 144.628 91.3731 143.846 90.822 143.331C90.2753 142.806 89.582 142.611 88.742 142.731ZM88.5642 141.477C89.8442 141.295 90.902 141.562 91.7598 142.268C92.6042 142.984 93.1287 144.046 93.3287 145.473C93.5242 146.891 93.3109 148.064 92.6887 148.984C92.0664 149.904 91.1153 150.455 89.8398 150.637C88.5598 150.815 87.4931 150.553 86.6398 149.842C85.7953 149.131 85.2664 148.068 85.0709 146.642C84.8709 145.219 85.0842 144.046 85.7064 143.126C86.3376 142.211 87.2842 141.655 88.5642 141.477ZM93.5109 141.037L99.9998 139.033L100.373 140.264L97.8264 141.051L99.9909 148.215L98.6131 148.642L96.4487 141.477L93.8842 142.273L93.5109 141.037ZM101.706 138.415L107.484 136.059L107.955 137.255L103.502 139.073L104.346 141.197L108.458 139.522L108.915 140.659L104.804 142.339L105.791 144.802L110.391 142.922L110.88 144.139L104.96 146.557L101.706 138.415ZM116.689 134.019L115.466 134.762C115.129 134.348 114.724 134.122 114.244 134.073C113.769 134.019 113.262 134.157 112.729 134.482C112.018 134.913 111.613 135.491 111.515 136.215C111.422 136.935 111.631 137.744 112.164 138.633C112.698 139.526 113.311 140.113 114.013 140.393C114.711 140.668 115.404 140.597 116.093 140.179C116.64 139.851 116.991 139.411 117.151 138.868C117.315 138.326 117.258 137.779 116.982 137.219L118.191 136.482C118.666 137.348 118.769 138.242 118.489 139.148C118.209 140.051 117.622 140.784 116.711 141.339C115.649 141.984 114.6 142.139 113.573 141.802C112.542 141.468 111.658 140.686 110.924 139.455C110.186 138.211 109.915 137.046 110.12 135.971C110.324 134.899 110.982 134.024 112.084 133.353C112.982 132.811 113.835 132.597 114.653 132.717C115.466 132.833 116.146 133.268 116.689 134.019ZM116.498 131.157L121.92 127.028L122.684 128.055L120.555 129.677L125.013 135.659L123.866 136.535L119.404 130.548L117.266 132.179L116.498 131.157ZM123.253 125.579L124.329 124.597L130.142 131.117L129.066 132.104L123.253 125.579ZM129.066 120.948C128.524 121.602 128.324 122.304 128.466 123.051C128.604 123.797 129.075 124.513 129.875 125.188C130.675 125.864 131.449 126.211 132.204 126.224C132.96 126.233 133.604 125.917 134.151 125.255C134.689 124.606 134.889 123.908 134.751 123.157C134.604 122.406 134.138 121.695 133.338 121.019C132.538 120.344 131.764 120.002 131.013 119.988C130.258 119.975 129.609 120.295 129.066 120.948ZM128.106 120.135C128.938 119.135 129.898 118.615 131 118.566C132.102 118.522 133.195 118.957 134.28 119.882C135.369 120.806 135.986 121.819 136.133 122.922C136.28 124.028 135.942 125.082 135.115 126.077C134.28 127.082 133.315 127.606 132.213 127.651C131.115 127.699 130.022 127.255 128.933 126.335C127.84 125.411 127.222 124.393 127.08 123.291C126.929 122.193 127.271 121.135 128.106 120.135ZM132.111 115.953L132.902 114.624L140.555 114.504L134.986 111.122L135.706 109.913L143.151 114.433L142.364 115.753L134.698 115.891L140.266 119.277L139.555 120.482L132.111 115.953ZM140.844 98.5084L143.986 100.988L144.826 98.5173L140.844 98.5084ZM139.2 98.8017L139.729 97.2417L148.978 97.0506L148.475 98.5261L146.102 98.535L145 101.762L146.875 103.228L146.386 104.673L139.2 98.8017ZM144.964 86.2195L144.715 87.6461C144.191 87.6639 143.746 87.8417 143.395 88.175C143.049 88.5084 142.818 88.9661 142.72 89.5484C142.569 90.4106 142.733 91.135 143.222 91.7128C143.702 92.2861 144.458 92.6684 145.493 92.8506C146.502 93.0328 147.338 92.9395 148 92.5573C148.662 92.1795 149.071 91.575 149.218 90.7439C149.338 90.0328 149.222 89.4195 148.866 88.9084C148.506 88.3884 147.969 88.055 147.244 87.8906L146.835 90.255L145.658 90.0417L146.302 86.3573L150.92 87.1795L150.751 88.1306L149.631 88.1795C150.004 88.5795 150.262 89.0195 150.4 89.5173C150.546 90.0195 150.564 90.5528 150.466 91.1306C150.253 92.3261 149.675 93.215 148.72 93.8106C147.76 94.4061 146.609 94.5839 145.271 94.3439C143.898 94.095 142.871 93.5261 142.186 92.6373C141.506 91.7439 141.266 90.6773 141.484 89.4239C141.666 88.3839 142.066 87.5795 142.68 87.0195C143.289 86.4506 144.049 86.1839 144.964 86.2195ZM142.546 83.6684L142.764 77.375L144.035 77.4195L143.871 82.2773L146.138 82.3617L146.289 77.8817L147.502 77.9261L147.351 82.4017L149.973 82.495L150.146 77.4773L151.449 77.5261L151.222 83.975L142.546 83.6684ZM142.462 75.7395L142.302 74.1973L148.338 69.4461L141.875 70.135L141.733 68.7261L150.369 67.8106L150.524 69.3439L144.489 74.1173L150.951 73.4328L151.098 74.8239L142.462 75.7395ZM142.382 58.4817L142.702 59.8861C142.209 60.0861 141.866 60.4017 141.671 60.8461C141.475 61.2906 141.444 61.8195 141.586 62.4239C141.773 63.2417 142.191 63.8106 142.84 64.135C143.489 64.4506 144.311 64.4906 145.311 64.255C146.324 64.0239 147.066 63.6106 147.538 63.0239C148.009 62.4373 148.164 61.7528 147.982 60.9573C147.84 60.3306 147.538 59.8595 147.08 59.535C146.618 59.215 146.084 59.095 145.475 59.1928L145.16 57.8017C146.12 57.6106 146.986 57.7884 147.755 58.335C148.524 58.8773 149.026 59.6773 149.271 60.7261C149.551 61.9395 149.369 62.9973 148.738 63.8817C148.102 64.775 147.098 65.3795 145.711 65.6995C144.311 66.0284 143.133 65.9261 142.186 65.3973C141.235 64.8728 140.618 63.9706 140.329 62.7039C140.093 61.6728 140.16 60.7839 140.524 60.0373C140.884 59.2817 141.506 58.7661 142.382 58.4817ZM139.649 58.9039L138.978 57.2195L141.849 53.7395L137.418 53.3128L136.791 51.7439L142.782 52.5528L145.964 51.2506L146.506 52.615L143.386 53.8861L139.649 58.9039Z" fill="#447BBF"/>
<path d="M23.0934 44.5305C24.4188 44.5305 25.4934 43.446 25.4934 42.1083C25.4934 40.7705 24.4188 39.686 23.0934 39.686C21.7679 39.686 20.6934 40.7705 20.6934 42.1083C20.6934 43.446 21.7679 44.5305 23.0934 44.5305Z" fill="#447BBF"/>
<path d="M136.063 44.5168C137.386 44.5168 138.458 43.4323 138.458 42.0946C138.458 40.7568 137.386 39.6724 136.063 39.6724C134.74 39.6724 133.667 40.7568 133.667 42.0946C133.667 43.4323 134.74 44.5168 136.063 44.5168Z" fill="#447BBF"/>
<path fill-rule="evenodd" clip-rule="evenodd" d="M54.0356 64.2178C53.4179 75.4844 66.5379 90.56 80.0623 90.56C93.5868 90.56 107.36 73.7422 106.089 64.2178H54.0356Z" fill="white"/>
<path fill-rule="evenodd" clip-rule="evenodd" d="M54.0669 67.0266C55.5069 80.231 66.6313 90.5599 80.0669 90.5599C93.6313 90.5599 104.831 80.0399 106.107 66.6621H106C105.609 70.0221 102.765 72.6443 99.3424 72.6443C96.3024 72.6443 93.7291 70.5821 92.9113 67.7777C92.0891 70.5821 89.5158 72.6443 86.4802 72.6443C83.4447 72.6443 80.8669 70.5821 80.0491 67.7777C79.2269 70.5821 76.6536 72.6443 73.6136 72.6443C70.5291 72.6443 67.9158 70.5154 67.1425 67.6399C66.3691 70.5154 63.7602 72.6443 60.6713 72.6443C57.3691 72.6443 54.6136 70.2088 54.0669 67.0266Z" fill="#447BBF"/>
<path fill-rule="evenodd" clip-rule="evenodd" d="M82.6491 64.2667H106.049C106.049 49.7067 94.3424 37.8267 79.9957 37.8267C65.6446 37.8267 53.9424 49.7067 53.9424 64.2667H78.7335C75.8046 63.4089 73.6535 60.6622 73.6535 57.4356C73.6535 53.5156 76.8135 50.3155 80.6935 50.3155C84.5691 50.3155 87.7335 53.5156 87.7335 57.4356C87.7335 60.6622 85.5824 63.4044 82.6491 64.2667Z" fill="#447BBF"/>
<path d="M79.6178 113.262H77.3467V115.036H79.6178V113.262Z" fill="#447BBF"/>
<path fill-rule="evenodd" clip-rule="evenodd" d="M29.2935 30.6325L30.329 29.6147L34.0623 33.5214C34.5823 34.0636 35.0801 34.357 35.5557 34.3881C36.0357 34.4236 36.5157 34.2014 37.0001 33.7303C37.489 33.2592 37.7246 32.7747 37.7068 32.2903C37.689 31.8014 37.4223 31.2858 36.9068 30.7481L33.1735 26.837L34.2135 25.8281L38.0046 29.797C38.7646 30.5925 39.1379 31.4147 39.1246 32.2681C39.1112 33.117 38.7068 33.9258 37.9201 34.6947C37.1112 35.4814 36.3023 35.8681 35.4846 35.8547C34.6668 35.8414 33.8668 35.4192 33.0846 34.6014L29.2935 30.6325ZM37.5112 23.2769L38.7646 22.3925L45.769 25.4147L42.0623 20.0547L43.2001 19.2458L48.1601 26.4014L46.9201 27.277L39.889 24.2769L43.6001 29.6325L42.4712 30.4325L37.5112 23.2769ZM46.7379 17.2725L48.0268 16.6103L51.9512 24.397L50.6623 25.0592L46.7379 17.2725ZM50.689 15.2325L56.9957 12.7881L57.449 13.9836L54.969 14.9481L57.6135 21.9036L56.2757 22.4236L53.6357 15.4636L51.1423 16.4325L50.689 15.2325ZM59.5646 11.8636L65.5201 10.1347L65.8712 11.3658L61.2712 12.6992L61.8935 14.8903L66.1379 13.6636L66.4712 14.8414L62.2312 16.0681L62.9512 18.6058L67.6979 17.2281L68.0579 18.4858L61.9468 20.2592L59.5646 11.8636ZM70.9868 10.597L71.7335 16.7614L73.489 16.5436C74.3379 16.4414 74.9335 16.1036 75.2757 15.5392C75.6135 14.9747 75.7201 14.1481 75.5868 13.0725C75.4668 12.0903 75.1735 11.3658 74.7068 10.9125C74.2446 10.4503 73.6179 10.2681 72.8401 10.3658L70.9868 10.597ZM69.4357 9.54362L72.7468 9.13028C74.0046 8.97473 74.9957 9.21917 75.7112 9.85917C76.4268 10.4992 76.8757 11.5392 77.049 12.9703C77.2179 14.3703 77.0046 15.4903 76.4046 16.3303C75.8046 17.1703 74.8535 17.6725 73.5557 17.8325L70.4801 18.2147L69.4357 9.54362ZM89.1201 11.9392L87.7557 11.8281C87.769 11.3303 87.6179 10.9303 87.3023 10.6192C86.9912 10.3125 86.5512 10.1347 85.9868 10.0814C85.5201 10.0414 85.129 10.117 84.809 10.3125C84.489 10.5081 84.3246 10.7703 84.2935 11.0947C84.2668 11.4236 84.3735 11.7125 84.6135 11.9392C84.8579 12.1747 85.3868 12.437 86.2001 12.7258C87.4357 13.1658 88.2357 13.5881 88.5912 14.0014C88.9424 14.4147 89.089 14.957 89.0357 15.6325C88.9646 16.4547 88.6046 17.0858 87.9557 17.5303C87.3068 17.9747 86.4757 18.1525 85.4623 18.0636C84.3957 17.9703 83.5824 17.6325 83.0357 17.0592C82.4846 16.4858 82.2312 15.7081 82.2712 14.7303L83.6623 14.8547C83.6535 15.4192 83.8224 15.8725 84.1779 16.2236C84.529 16.5658 85.0312 16.7703 85.6801 16.8281C86.1735 16.8725 86.5868 16.7881 86.9201 16.5703C87.2535 16.357 87.4357 16.0814 87.4668 15.7303C87.4801 15.5925 87.449 15.4325 87.3735 15.2503C87.2979 15.0681 87.2046 14.9081 87.0801 14.7703C86.8712 14.5392 86.3868 14.2992 85.6223 14.0325C85.4579 13.9747 85.3379 13.9347 85.249 13.9081C84.3112 13.5658 83.6579 13.1792 83.2979 12.7481C82.9335 12.317 82.7823 11.757 82.8401 11.077C82.9024 10.357 83.2446 9.79251 83.8623 9.38806C84.489 8.98362 85.2801 8.82362 86.2446 8.91251C87.1868 8.99695 87.9112 9.31251 88.4268 9.85917C88.9423 10.4058 89.1868 11.0947 89.1201 11.9392ZM92.449 9.83695L99.0268 11.3747L98.7424 12.6236L96.1601 12.0192L94.4979 19.2814L93.1023 18.957L94.7601 11.6947L92.1601 11.0858L92.449 9.83695ZM103.969 14.6725L101.427 17.7436L103.827 18.6725L103.969 14.6725ZM103.742 13.0058L105.253 13.597L105.12 22.9036L103.685 22.3481L103.765 19.957L100.627 18.7392L99.1201 20.5747L97.7157 20.0325L103.742 13.0058ZM109.618 15.4503L115.636 18.5481L115.058 19.6903L112.693 18.477L109.347 25.117L108.071 24.4636L111.418 17.8192L109.04 16.597L109.618 15.4503ZM118.329 20.3258L123.409 23.9214L122.68 24.9703L118.76 22.1969L117.467 24.0681L121.08 26.6236L120.387 27.6281L116.773 25.0681L115.276 27.2325L119.32 30.0992L118.573 31.1658L113.369 27.4814L118.329 20.3258ZM129.16 32.5836L128.173 31.6281C128.489 31.2503 128.627 30.8414 128.573 30.4014C128.525 29.9614 128.293 29.5481 127.889 29.1481C127.551 28.8192 127.2 28.6281 126.831 28.5792C126.467 28.5303 126.169 28.6192 125.947 28.8547C125.716 29.0947 125.627 29.3836 125.667 29.717C125.711 30.0547 125.956 30.5925 126.409 31.3347C127.102 32.4636 127.453 33.2992 127.476 33.8458C127.493 34.3881 127.271 34.9081 126.805 35.397C126.24 35.9925 125.569 36.2503 124.787 36.1881C124.005 36.117 123.245 35.7258 122.516 35.0147C121.742 34.2592 121.32 33.4858 121.253 32.6947C121.187 31.9036 121.471 31.1347 122.111 30.397L123.116 31.3792C122.756 31.8147 122.605 32.277 122.662 32.7703C122.725 33.2636 122.987 33.7436 123.458 34.197C123.813 34.5436 124.187 34.7392 124.578 34.7881C124.973 34.837 125.289 34.7347 125.533 34.4814C125.627 34.3836 125.702 34.237 125.76 34.0458C125.822 33.8592 125.845 33.6725 125.831 33.4858C125.813 33.1792 125.587 32.6725 125.16 31.9881C125.067 31.837 125 31.7258 124.951 31.6503C124.436 30.7881 124.165 30.077 124.151 29.5081C124.133 28.9392 124.36 28.4103 124.836 27.917C125.333 27.397 125.951 27.1747 126.685 27.2592C127.422 27.3436 128.138 27.7214 128.836 28.4058C129.511 29.0636 129.88 29.7792 129.942 30.5303C130 31.2814 129.742 31.9658 129.16 32.5836Z" fill="#447BBF"/>
<path fill-rule="evenodd" clip-rule="evenodd" d="M125.733 75.2887C125.933 75.302 125.435 75.2709 125.724 75.382C125.387 84.8531 119.613 94.6042 113.613 100.844C112.173 102.595 110.644 104.146 109.444 105.453C109.422 105.729 109.258 105.253 109.542 105.458C115.413 106.031 122.76 105.684 128.453 108.542C126.351 112.364 120.8 114.12 116.844 115.982C105.862 120.511 93.8621 120.089 82.6576 117.231C82.6576 117.231 81.5909 116.791 81.5021 116.6L81.4709 120.835C80.3687 120.858 79.3598 120.884 78.5643 120.831C77.9732 120.698 78.5287 117.418 78.1732 116.844L77.3376 117.249C62.3243 120.778 43.5687 118.258 32.5598 108.964C31.9109 108.275 31.4443 107.875 31.2754 107.404C31.2887 107.218 31.2754 107.404 31.3821 107.315C37.1598 105.204 44.6354 104.502 50.5643 104.338C50.6621 104.346 50.7376 104.72 50.7509 104.533C42.2932 95.9598 37.3109 86.6087 34.8932 75.1153L35.0132 74.8442C46.7065 76.6265 56.9732 81.262 64.3909 89.0309C70.5198 95.3287 75.2976 104.764 77.8532 113.133C79.4843 115.36 78.0532 114.435 77.9954 113.88C78.0532 110.569 77.8932 97.1953 77.8576 93.7865C78.9554 93.862 80.6754 93.6931 81.3643 93.8354L81.4532 113.28C81.7376 113.484 81.1287 113.626 81.4398 113.466C82.8443 110.884 84.8354 104.662 86.7332 102.111C91.0709 92.8131 99.5954 85.0842 109.298 80.1909C113.795 77.9153 120.142 76.2131 125.733 75.2887ZM120.827 80.4442C117.64 90.462 111.813 97.0798 102.982 103.591C98.8754 106.089 94.8043 108.124 89.8887 109.458C89.6887 109.444 89.6976 109.351 89.5065 109.244C90.0087 105.315 92.6132 101.529 94.4798 98.1509C97.6087 94.022 101.435 89.9465 105.991 86.8353C110.32 84.0798 115.004 81.8087 120.835 80.3509C121 80.822 120.351 80.1376 120.827 80.4442ZM39.9909 79.2487C50.9732 82.4576 60.1109 89.9687 65.9109 99.1953C67.3998 101.964 68.8221 105.56 69.9776 108.764C69.9732 108.858 69.8043 108.386 69.6843 108.658C64.3998 108.311 59.6887 104.404 55.6621 102.022C47.9554 95.4353 42.3021 88.1554 39.8887 79.2398C39.9065 79.0576 39.6887 79.2265 39.9909 79.2487Z" fill="#447BBF"/>
<path d="M80 0C102.084 0 122.084 8.96 136.564 23.4311C151.04 37.9111 160 57.9111 160 80C160 102.089 151.04 122.089 136.564 136.569C122.084 151.04 102.084 160 80 160C57.92 160 37.92 151.04 23.4356 136.569C8.95555 122.089 0 102.089 0 80C0 57.9111 8.96 37.9111 23.4356 23.4311C37.92 8.95555 57.92 0 80 0ZM135.169 24.8533C121.049 10.7378 101.542 2.00444 80 2.00444C58.4578 2.00444 38.9467 10.7378 24.8311 24.8533C10.7156 38.9644 1.98222 58.4622 1.98222 80C1.98222 101.538 10.7156 121.036 24.8311 135.151C38.9511 149.267 58.4533 158 80 158C101.547 158 121.049 149.267 135.169 135.151C149.284 121.036 158.022 101.538 158.022 80C158.022 58.4622 149.284 38.9644 135.169 24.8533Z" fill="#447BBF"/>
</g>
</g>
<defs>
<clipPath id="clip0_283_148">
<rect width="160" height="160" fill="white"/>
</clipPath>
</defs>
</svg>
