<svg width="160" height="57" viewBox="0 0 160 57" fill="none" xmlns="http://www.w3.org/2000/svg">
<g clip-path="url(#clip0_282_17)">
<path d="M151.098 51.8376V51.8131C151.096 51.2263 151.209 50.6449 151.431 50.1019C151.653 49.5589 151.979 49.0651 152.391 48.6487C152.804 48.2323 153.294 47.9015 153.833 47.675C154.373 47.4486 154.952 47.3311 155.537 47.3291C156.122 47.3279 156.701 47.4422 157.242 47.6657C157.783 47.8891 158.275 48.2173 158.689 48.6314C159.104 49.0456 159.433 49.5376 159.658 50.0793C159.883 50.621 159.999 51.2019 160 51.7887V51.8131C160.002 52.3999 159.889 52.9814 159.667 53.5244C159.445 54.0673 159.119 54.5611 158.707 54.9775C158.294 55.394 157.805 55.7248 157.265 55.9512C156.725 56.1777 156.146 56.2952 155.561 56.2972C154.976 56.2984 154.397 56.1841 153.856 55.9606C153.315 55.7371 152.823 55.409 152.409 54.9948C151.994 54.5807 151.665 54.0887 151.44 53.547C151.215 53.0053 151.099 52.4244 151.098 51.8376ZM159.594 51.8131V51.7887C159.592 51.0758 159.403 50.3759 159.046 49.7593C158.689 49.1427 158.177 48.631 157.561 48.2757C156.945 47.9207 156.247 47.7349 155.537 47.7369C154.827 47.739 154.13 47.9289 153.516 48.2874C152.902 48.6465 152.393 49.1613 152.04 49.7802C151.686 50.399 151.502 51.1001 151.504 51.8131V51.8376C151.506 52.5507 151.695 53.2508 152.052 53.8676C152.408 54.4844 152.921 54.9962 153.537 55.3517C154.153 55.7065 154.851 55.8921 155.561 55.8899C156.272 55.8876 156.969 55.6976 157.582 55.3389C158.196 54.9798 158.705 54.465 159.059 53.8461C159.412 53.2273 159.596 52.5261 159.594 51.8131ZM153.804 49.3924H155.853C156.349 49.3694 156.834 49.5424 157.205 49.8742C157.445 50.1061 157.579 50.4273 157.574 50.7634V50.7879C157.574 51.5292 157.082 51.9737 156.394 52.1343L157.807 53.9743H156.963L155.648 52.246H154.48V53.9754H153.803V49.3914L153.804 49.3924ZM155.783 51.6408C156.422 51.6408 156.864 51.343 156.864 50.8166V50.7921C156.864 50.3103 156.472 50.0019 155.82 50.0019H154.48V51.6323L155.783 51.6408Z" fill="#005F86"/>
<path d="M0.530273 5.84961C0.530273 2.91263 2.90392 0.531738 5.83196 0.531738H51.4264V55.8376H5.83196C2.90392 55.8376 0.530273 53.4568 0.530273 50.5198V5.84961Z" fill="white"/>
<path d="M148.978 5.84961C148.978 2.91263 146.604 0.531738 143.676 0.531738H51.4263V55.8376H143.676C146.604 55.8376 148.978 53.4568 148.978 50.5198V5.84961Z" fill="#005F86"/>
<path fill-rule="evenodd" clip-rule="evenodd" d="M0 5.84966C0 2.61898 2.61101 0 5.83185 0H143.676C146.897 0 149.508 2.61898 149.508 5.84966V50.5198C149.508 53.7505 146.897 56.3695 143.676 56.3695H5.83185C2.61101 56.3695 0 53.7505 0 50.5198V5.84966ZM5.83185 1.06358C3.19662 1.06358 1.06034 3.20638 1.06034 5.84966V50.5198C1.06034 53.1631 3.19662 55.3059 5.83185 55.3059H143.676C146.311 55.3059 148.447 53.1631 148.447 50.5198V5.84966C148.447 3.20638 146.311 1.06358 143.676 1.06358H5.83185Z" fill="#005F86"/>
<path d="M63.2622 18.6942H64.849L68.2026 26.88H66.4022L65.6874 25.0589H62.378L61.6543 26.88H59.9087L63.2622 18.6942ZM65.0661 23.4785L64.0424 20.8421L63.0187 23.4785H65.0661ZM68.5626 22.841V22.8194C68.5481 22.266 68.6438 21.7152 68.844 21.2004C69.0442 20.6856 69.3447 20.2173 69.7275 19.8239C70.1097 19.4312 70.5664 19.1217 71.0697 18.9142C71.5731 18.7068 72.1127 18.6056 72.6557 18.617C73.226 18.5905 73.7951 18.6887 74.3249 18.905C74.8547 19.1212 75.3327 19.4505 75.7269 19.8706L74.6167 21.1905C74.3589 20.9109 74.0494 20.6857 73.706 20.5279C73.3625 20.3701 72.9918 20.2828 72.6151 20.271C71.2949 20.271 70.3435 21.4097 70.3435 22.8033V22.8266C70.3435 24.2202 71.2702 25.3786 72.6151 25.3786C73.5082 25.3786 74.0572 25.0068 74.6626 24.4286L75.7569 25.5779C75.2101 26.2241 74.482 26.6846 73.6705 26.8974C72.859 27.1103 72.0029 27.0653 71.2172 26.7686C70.4311 26.4703 69.753 25.9353 69.2734 25.2348C68.7938 24.5344 68.5354 23.7019 68.5326 22.8482M76.5882 22.841V22.8194C76.6042 21.9808 76.8617 21.1653 77.3289 20.4741C77.7961 19.7829 78.4523 19.2465 79.2164 18.9313C79.9795 18.6169 80.8168 18.5383 81.6235 18.7054C82.4303 18.8724 83.1708 19.2777 83.7525 19.8706L82.6582 21.1905C82.4004 20.9109 82.0909 20.6857 81.7474 20.5279C81.404 20.3701 81.0333 20.2828 80.6566 20.271C79.3381 20.271 78.3886 21.4097 78.3886 22.8033V22.8266C78.3886 24.2202 79.317 25.3786 80.6566 25.3786C81.5515 25.3786 82.1004 25.0068 82.7041 24.4286L83.7984 25.5779C83.2517 26.2238 82.524 26.684 81.7128 26.8968C80.9017 27.1097 80.0459 27.0649 79.2605 26.7686C78.474 26.4706 77.7956 25.9357 77.3156 25.2352C76.8356 24.5348 76.577 23.7021 76.5741 22.8482M85.191 18.7535H88.7687C89.6071 18.6996 90.4314 18.9978 91.0509 19.5796C91.5098 20.0789 91.7569 20.747 91.7322 21.4348V21.4581C91.761 22.0069 91.6127 22.5502 91.31 23.0054C91.0073 23.4606 90.5668 23.8027 90.0554 23.9796L91.9634 26.8836H89.9513L88.2604 24.2831H86.896V26.8836H85.191V18.7535ZM88.654 22.7009C89.4924 22.7009 89.9742 22.2394 89.9742 21.5515V21.539C89.9742 20.7721 89.4588 20.3788 88.6099 20.3788H86.9048V22.7135L88.654 22.7009ZM93.2643 18.7535H99.1683V20.3447H94.9763V21.9915H98.667V23.5827H94.9763V25.2924H99.2265V26.88H93.2643V18.7535ZM100.753 18.7535H103.807C106.266 18.7535 107.964 20.4955 107.964 22.7943V22.8194C107.964 25.1074 106.259 26.8836 103.807 26.8836H100.753V18.7535ZM103.807 25.2673C104.448 25.3032 105.071 25.0553 105.523 24.5902C105.746 24.3595 105.918 24.0835 106.029 23.7802C106.14 23.4769 106.187 23.1532 106.167 22.8302V22.8105C106.184 22.4881 106.134 22.1658 106.022 21.864C105.91 21.5622 105.736 21.2875 105.514 21.0577C105.292 20.8284 105.026 20.649 104.732 20.5308C104.438 20.4127 104.123 20.3584 103.807 20.3716H102.474V25.2708L103.807 25.2673ZM109.575 18.7535H111.34V26.88H109.575V18.7535ZM115.073 20.4039H112.692V18.7535H119.175V20.4039H116.796V26.88H115.073V20.4039ZM120.492 18.7535H126.396V20.3447H122.204V21.9915H125.895V23.5827H122.204V25.2924H126.454V26.88H120.492V18.7535ZM127.983 18.7535H131.036C133.495 18.7535 135.193 20.4955 135.193 22.7943V22.8194C135.193 25.1074 133.488 26.8836 131.034 26.8836H127.981L127.983 18.7535ZM131.034 25.2673C131.675 25.3032 132.3 25.0553 132.75 24.5902C132.973 24.3597 133.146 24.0837 133.258 23.7804C133.369 23.4771 133.416 23.1533 133.396 22.8302V22.8105C133.413 22.4881 133.364 22.1658 133.251 21.864C133.139 21.5622 132.966 21.2875 132.743 21.0577C132.521 20.8282 132.254 20.6486 131.96 20.5305C131.666 20.4123 131.35 20.3582 131.034 20.3716H129.705V25.2708L131.034 25.2673ZM59.9528 31.6303H63.5888C64.3371 31.58 65.0749 31.8404 65.6362 32.3505C65.9945 32.7186 66.1887 33.2233 66.171 33.7441V33.7674C66.1887 34.502 65.7898 35.179 65.1473 35.5095C66.051 35.8561 66.6105 36.4146 66.6105 37.5065V37.5317C66.6105 39.0187 65.4473 39.7586 63.6806 39.7586H59.9528V31.6303ZM63.2181 34.9168C63.9771 34.9168 64.4589 34.6618 64.4589 34.0566V34.0332C64.4589 33.4998 64.0565 33.1963 63.3293 33.1963H61.6243V34.9132L63.2181 34.9168ZM63.6735 38.189C64.4342 38.189 64.8914 37.9106 64.8914 37.309V37.2874C64.8914 36.7415 64.4995 36.4074 63.6152 36.4074H61.6296V38.1926L63.6717 38.189H63.6735ZM67.899 36.2745V31.6303H69.6058V36.2278C69.6058 37.5532 70.2429 38.2392 71.2931 38.2392C72.3433 38.2392 72.9823 37.5766 72.9823 36.2889V31.6303H74.6873V36.2153C74.6873 38.6756 73.3565 39.8843 71.2561 39.8843C69.1557 39.8843 67.869 38.6667 67.869 36.2745M75.9387 38.5733L76.9624 37.3054C77.5978 37.916 78.4274 38.268 79.2993 38.2931C80.0018 38.2931 80.4289 38.0022 80.4289 37.5281V37.5029C80.4289 37.0504 80.1589 36.8079 78.8528 36.4595C77.2766 36.0411 76.2582 35.5885 76.2582 33.9776V33.9524C76.2582 32.4762 77.3984 31.5154 78.9887 31.5154C80.0477 31.501 81.0767 31.8728 81.8939 32.5588L81.0043 33.8967C80.4194 33.4212 79.7043 33.1415 78.9569 33.0958C78.2986 33.0958 77.9508 33.4101 77.9508 33.7926V33.8159C77.9508 34.3493 78.2933 34.5127 79.64 34.8863C81.225 35.3137 82.1234 35.9064 82.1234 37.3233V37.3467C82.1234 38.963 80.9355 39.8681 79.2464 39.8681C78.0187 39.8717 76.8341 39.4087 75.9246 38.5697M83.7031 31.6303H85.4681V39.7568H83.7031V31.6303ZM87.3814 31.6303H88.9699L92.6359 36.6337V31.6303H94.3356V39.7568H92.8724L89.0829 34.59V39.7568H87.3814V31.6303ZM96.2119 31.6303H102.116V33.2215H97.9239V34.8683H101.611V36.4595H97.9239V38.1656H102.171V39.7568H96.2119V31.6303ZM103.166 38.5733L104.19 37.3054C104.824 37.916 105.655 38.268 106.525 38.2931C107.228 38.2931 107.655 38.0022 107.655 37.5281V37.5029C107.655 37.0504 107.385 36.8079 106.079 36.4595C104.502 36.0411 103.486 35.5885 103.486 33.9776V33.9524C103.486 32.4762 104.626 31.5154 106.214 31.5154C107.274 31.501 108.304 31.8728 109.122 32.5588L108.228 33.8967C107.644 33.421 106.928 33.1412 106.181 33.0958C105.519 33.0958 105.157 33.4101 105.157 33.7926V33.8159C105.157 34.3493 105.5 34.5127 106.846 34.8863C108.431 35.3137 109.33 35.9064 109.33 37.3233V37.3467C109.33 38.963 108.147 39.8681 106.458 39.8681C105.23 39.8722 104.044 39.4091 103.135 38.5697M110.205 38.5733L111.229 37.3054C111.864 37.916 112.694 38.268 113.566 38.2931C114.272 38.2931 114.695 38.0022 114.695 37.5281V37.5029C114.695 37.0504 114.425 36.8079 113.119 36.4595C111.543 36.0411 110.526 35.5885 110.526 33.9776V33.9524C110.526 32.4762 111.665 31.5154 113.255 31.5154C114.315 31.5015 115.344 31.8713 116.16 32.5588L115.271 33.8967C114.686 33.4212 113.971 33.1415 113.223 33.0958C112.567 33.0958 112.2 33.4101 112.2 33.7926V33.8159C112.2 34.3493 112.542 34.5127 113.907 34.8863C115.493 35.3137 116.39 35.9064 116.39 37.3233V37.3467C116.39 38.963 115.207 39.8681 113.518 39.8681C112.291 39.8717 111.106 39.4087 110.196 38.5697" fill="white"/>
<path d="M35.3229 34.1082H17.6207L16.9782 36.2514H21.6951L22.5946 39.2084H30.3506L31.2477 36.2514H35.9655L35.3229 34.1082ZM20.5088 22.0675C19.857 22.9785 19.5892 24.1113 19.7637 25.2197C19.9381 26.3281 20.5407 27.3225 21.4405 27.9865L25.6755 31.1035C26.1429 31.4491 26.2473 32.1105 25.9084 32.5845L26.5477 33.0544L28.7861 29.9229C29.4404 29.0124 29.7082 27.8779 29.5306 26.7688C29.4462 26.2197 29.2546 25.6927 28.9669 25.2182C28.6793 24.7437 28.3012 24.3311 27.8544 24.0039L23.6178 20.887C23.4824 20.7883 23.3725 20.6586 23.297 20.5086C23.2216 20.3586 23.1829 20.1926 23.1841 20.0245C23.1825 19.8001 23.2524 19.5804 23.3833 19.3987L22.7472 18.9288L20.5088 22.0675ZM23.0572 9.54314C22.3036 10.591 21.8988 11.8515 21.9007 13.1446C21.9007 13.4717 21.9264 13.7987 21.977 14.1225C22.0992 14.919 22.377 15.6834 22.7944 16.3715C23.2118 17.0596 23.7605 17.6579 24.4089 18.1318L29.7338 22.0457C30.1527 22.3515 30.4932 22.7532 30.727 23.2176C30.9608 23.682 31.0812 24.1957 31.0783 24.7161C31.0782 25.4088 30.8609 26.0838 30.4574 26.6453L30.9683 27.0192L35.1631 21.1284C37.1308 18.3797 36.5277 14.544 33.813 12.5446L27.3878 7.81266C26.9835 7.51588 26.7125 7.07016 26.6343 6.57303C26.556 6.07589 26.6768 5.56783 26.9702 5.16001L26.4594 4.78613L23.0572 9.54314ZM12.1938 40.9954H17.0368C18.2295 40.9954 19.1708 41.3289 19.7675 41.9346C20.243 42.4078 20.5024 43.0594 20.4831 43.7329V43.7628C20.4831 44.9579 19.8623 45.6224 19.1097 46.0456C20.3193 46.5147 21.0654 47.2245 21.0654 48.6457V48.6805C21.0654 50.6136 19.5137 51.5826 17.1557 51.5826H12.1938V40.9954ZM16.5397 45.2744C17.5548 45.2744 18.1958 44.9433 18.1958 44.1552V44.1253C18.1958 43.4309 17.6584 43.0295 16.689 43.0295H14.4242V45.2663L16.5397 45.2744ZM17.1605 49.5356C18.1757 49.5356 18.7869 49.1722 18.7869 48.389V48.3566C18.7869 47.646 18.264 47.2076 17.0802 47.2076H14.4242V49.5356H17.1605ZM22.0645 40.9962H26.9156C28.1098 40.9962 29.0487 41.3297 29.6463 41.9354C30.1217 42.4094 30.3811 43.0602 30.3619 43.7337V43.7636C30.3619 44.9587 29.741 45.6232 28.9901 46.0464C30.1988 46.5155 30.9442 47.2253 30.9442 48.6465V48.6813C30.9442 50.6144 29.3925 51.5834 27.0344 51.5834H22.0677V40.9962M26.4248 45.2744C27.44 45.2744 28.0825 44.9433 28.0825 44.1552V44.1253C28.0825 43.4309 27.5444 43.0295 26.575 43.0295H24.2997V45.2663L26.4248 45.2744ZM27.036 49.5356C28.0512 49.5356 28.6624 49.1722 28.6624 48.389V48.3566C28.6624 47.646 28.1396 47.2076 26.9557 47.2076H24.2997V49.5356H27.036ZM31.9433 40.9962H36.7943C37.987 40.9962 38.9275 41.3297 39.525 41.9354C40.0005 42.4086 40.2599 43.0602 40.2406 43.7337V43.7636C40.2406 44.9587 39.6198 45.6232 38.8672 46.0464C40.076 46.5155 40.8229 47.2253 40.8229 48.6465V48.6813C40.8229 50.6144 39.2704 51.5834 36.9116 51.5834H31.9449V40.9962M36.302 45.2744C37.3155 45.2744 37.9581 44.9433 37.9581 44.1552V44.1253C37.9581 43.4309 37.4208 43.0295 36.4506 43.0295H34.1817V45.2663L36.302 45.2744ZM36.9132 49.5356C37.9284 49.5356 38.5396 49.1722 38.5396 48.389V48.3566C38.5396 47.646 38.0167 47.2076 36.8329 47.2076H34.1817V49.5356H36.9132Z" fill="#005F86"/>
</g>
<defs>
<clipPath id="clip0_282_17">
<rect width="160" height="57" fill="white"/>
</clipPath>
</defs>
</svg>
