 <svg
      xmlns="http://www.w3.org/2000/svg"
      x="0"
      y="0"
      version="1.1"
      viewBox="0 0 1925.8 272.44"
      xmlSpace="preserve"
    >
      <title>Andersen Windows</title>
      <path fill="#f26924" d="M0 272.24L0 0 272.24 0z" className="st0"></path>
      <path fill="#f26924" d="M544.48 272.24L544.48 0 272.24 0z" className="st0"></path>
      <path fill="#ffffff" d="M272.24 0L272.24 272.24 544.48 272.24z"></path>
      <path fill="#001722" d="M272.24 0L272.24 272.24 0 272.24z" className="st2"></path>
      <path
        d="M591.72 219.25L607.16 271 620.89 271 631.05 241.01 641.2 271 654.93 271 670.38 219.25 656.3 219.25 647.38 252.68 636.4 219.25 625.69 219.25 614.71 252.68 605.79 219.25z"
        className="st2"
      ></path>
      <path d="M708.74 219.25H722.19V271H708.74z" className="st2"></path>
      <path
        d="M782.19 271L782.19 239.36 807.04 271 820.42 271 820.42 219.25 807.04 219.25 807.04 250.89 782.19 219.25 768.74 219.25 768.74 271z"
        className="st2"
      ></path>
      <path
        d="M910.34 235.28c-1.33-3.13-3.15-5.88-5.46-8.24-2.31-2.36-5.01-4.24-8.1-5.66s-6.39-2.13-9.92-2.13h-19.91V271h19.91c3.57 0 6.9-.71 9.99-2.13s5.79-3.32 8.1-5.7c2.31-2.38 4.12-5.14 5.42-8.27 1.3-3.13 1.95-6.39 1.95-9.78.01-3.43-.66-6.71-1.98-9.84zm-13.08 15.64a12.98 12.98 0 01-2.88 4.56c-1.26 1.28-2.81 2.29-4.63 3.02-1.83.73-3.91 1.1-6.25 1.1h-3.09v-28.96h3.09c2.29 0 4.35.37 6.18 1.1 1.83.73 3.37 1.74 4.63 3.02 1.26 1.28 2.23 2.82 2.92 4.6.69 1.78 1.03 3.71 1.03 5.76 0 2.11-.34 4.04-1 5.8zm112.19-16.54c-1.42-3.32-3.4-6.21-5.94-8.68-2.54-2.47-5.57-4.4-9.09-5.8-3.52-1.4-7.37-2.09-11.53-2.09-4.21 0-8.06.7-11.56 2.09-3.5 1.4-6.51 3.33-9.03 5.8s-4.48 5.36-5.9 8.68c-1.42 3.32-2.13 6.9-2.13 10.74 0 3.85.71 7.43 2.13 10.74 1.42 3.32 3.38 6.21 5.9 8.68 2.52 2.47 5.52 4.41 9.03 5.8 3.5 1.39 7.35 2.09 11.56 2.09 4.16 0 8.01-.7 11.53-2.09 3.52-1.4 6.55-3.33 9.09-5.8 2.54-2.47 4.52-5.36 5.94-8.68 1.42-3.32 2.13-6.9 2.13-10.74s-.71-7.42-2.13-10.74zm-13.11 16.44c-.78 1.74-1.84 3.25-3.19 4.53a14.551 14.551 0 01-4.67 2.98c-1.76.71-3.63 1.06-5.59 1.06-1.97 0-3.84-.35-5.59-1.06-1.76-.71-3.31-1.7-4.63-2.98s-2.38-2.79-3.16-4.53c-.78-1.74-1.17-3.64-1.17-5.7s.39-3.96 1.17-5.7c.78-1.74 1.83-3.25 3.16-4.53 1.33-1.28 2.87-2.28 4.63-2.99 1.76-.71 3.63-1.06 5.59-1.06s3.83.36 5.59 1.06c1.76.71 3.32 1.71 4.67 2.99 1.35 1.28 2.41 2.79 3.19 4.53.78 1.74 1.17 3.64 1.17 5.7s-.39 3.96-1.17 5.7z"
        className="st2"
      ></path>
      <path
        d="M1049.54 219.25L1064.98 271 1078.71 271 1088.86 241.01 1099.02 271 1112.75 271 1128.2 219.25 1114.13 219.25 1105.2 252.68 1094.22 219.25 1083.51 219.25 1072.53 252.68 1063.61 219.25z"
        className="st2"
      ></path>
      <path
        d="M1201.98 221.99a35.548 35.548 0 00-8.03-3.12c-2.79-.71-5.47-1.06-8.03-1.06-2.74 0-5.23.41-7.45 1.24-2.22.82-4.09 1.98-5.63 3.47-1.53 1.49-2.72 3.27-3.57 5.35-.85 2.08-1.27 4.41-1.27 6.97 0 2.56.4 4.68 1.2 6.35.8 1.67 1.85 3.05 3.16 4.15 1.3 1.1 2.79 1.98 4.46 2.64 1.67.67 3.37 1.27 5.12 1.82 1.46.5 2.71.96 3.74 1.37 1.03.41 1.86.86 2.5 1.34.64.48 1.1 1.01 1.37 1.58.28.57.41 1.25.41 2.02 0 1.28-.54 2.43-1.61 3.43-1.08 1.01-2.71 1.51-4.91 1.51-1.92 0-3.87-.43-5.83-1.3-1.97-.87-3.96-2.2-5.97-3.98l-5.77 10.85c5.58 3.89 11.65 5.83 18.19 5.83 3.16 0 5.98-.42 8.48-1.27 2.5-.85 4.6-2.04 6.32-3.57 1.72-1.53 3.02-3.37 3.91-5.53.89-2.15 1.34-4.55 1.34-7.21 0-3.93-1.02-7.13-3.06-9.58-2.03-2.45-5.25-4.4-9.64-5.87-1.1-.37-2.21-.71-3.33-1.03-1.12-.32-2.13-.7-3.02-1.13-.89-.43-1.62-.95-2.16-1.54-.55-.6-.82-1.35-.82-2.27 0-1.33.55-2.4 1.65-3.22 1.1-.82 2.52-1.24 4.25-1.24 1.38 0 2.79.29 4.26.86 1.46.57 2.93 1.45 4.39 2.64l5.35-10.5zm144.28 36.73l1.03-.96c1.28-1.19 2.41-2.32 3.4-3.4a40.64 40.64 0 002.65-3.19l-7.62-7.35c-1.74 2.33-3.98 4.81-6.72 7.42l-6.52-6.86c1.79-.91 3.28-1.82 4.5-2.71 1.21-.89 2.2-1.83 2.95-2.82a9.45 9.45 0 001.62-3.15c.32-1.12.48-2.37.48-3.74 0-2.01-.4-3.88-1.2-5.59-.8-1.72-1.92-3.21-3.36-4.5-1.44-1.28-3.14-2.28-5.11-2.98-1.97-.71-4.12-1.06-6.45-1.06-2.29 0-4.41.36-6.38 1.06-1.97.71-3.67 1.69-5.11 2.95a13.736 13.736 0 00-3.4 4.49c-.82 1.74-1.24 3.62-1.24 5.63 0 3.02 1.33 6.2 3.98 9.54l.89 1.03-1.44.68c-1.69.78-3.12 1.55-4.29 2.3-1.17.76-2.23 1.66-3.19 2.71-1.28 1.38-2.18 2.81-2.71 4.29-.53 1.49-.79 3.19-.79 5.11 0 2.15.41 4.13 1.24 5.94.82 1.81 1.97 3.37 3.43 4.7 1.46 1.33 3.2 2.36 5.22 3.09 2.01.73 4.23 1.1 6.66 1.1 5.67 0 11.6-2.06 17.78-6.18l4.53 4.74h16.75l-11.58-12.29zm-24.16 1.71c-.82 0-1.59-.13-2.3-.38-.71-.25-1.34-.59-1.88-1.03-.55-.43-.99-.96-1.31-1.58a4.33 4.33 0 01-.48-2.02c0-2.01 1.62-4.03 4.88-6.04l8.17 8.78c-2.44 1.52-4.79 2.27-7.08 2.27zm4.46-22.31c-2.7-2.93-4.05-5.22-4.05-6.86 0-1.24.41-2.26 1.24-3.09.82-.82 1.85-1.24 3.09-1.24 1.33 0 2.41.47 3.26 1.41.84.94 1.27 2.05 1.27 3.33 0 2.38-1.6 4.53-4.81 6.45zm174.76-2.84c-1.33-3.13-3.15-5.88-5.46-8.24-2.31-2.36-5.01-4.24-8.1-5.66s-6.39-2.13-9.92-2.13h-19.91V271h19.91c3.57 0 6.9-.71 9.99-2.13s5.79-3.32 8.1-5.7c2.31-2.38 4.12-5.14 5.42-8.27 1.3-3.13 1.95-6.39 1.95-9.78 0-3.43-.66-6.71-1.98-9.84zm-13.08 15.64a12.98 12.98 0 01-2.88 4.56c-1.26 1.28-2.81 2.29-4.63 3.02-1.83.73-3.91 1.1-6.25 1.1h-3.09v-28.96h3.09c2.29 0 4.35.37 6.18 1.1 1.83.73 3.37 1.74 4.63 3.02 1.26 1.28 2.23 2.82 2.92 4.6.69 1.78 1.03 3.71 1.03 5.76-.01 2.11-.34 4.04-1 5.8zm112.19-16.54c-1.42-3.32-3.4-6.21-5.94-8.68-2.54-2.47-5.57-4.4-9.09-5.8-3.52-1.4-7.37-2.09-11.53-2.09-4.21 0-8.06.7-11.56 2.09-3.5 1.4-6.51 3.33-9.03 5.8s-4.48 5.36-5.9 8.68c-1.42 3.32-2.13 6.9-2.13 10.74 0 3.85.71 7.43 2.13 10.74 1.42 3.32 3.38 6.21 5.9 8.68 2.52 2.47 5.52 4.41 9.03 5.8 3.5 1.39 7.35 2.09 11.56 2.09 4.16 0 8.01-.7 11.53-2.09 3.52-1.4 6.56-3.33 9.09-5.8 2.54-2.47 4.52-5.36 5.94-8.68 1.42-3.32 2.13-6.9 2.13-10.74s-.71-7.42-2.13-10.74zm-13.11 16.44c-.78 1.74-1.84 3.25-3.19 4.53s-2.91 2.28-4.67 2.98c-1.76.71-3.63 1.06-5.59 1.06-1.97 0-3.84-.35-5.59-1.06-1.76-.71-3.31-1.7-4.63-2.98-1.33-1.28-2.38-2.79-3.16-4.53-.78-1.74-1.17-3.64-1.17-5.7s.39-3.96 1.17-5.7c.78-1.74 1.83-3.25 3.16-4.53 1.33-1.28 2.87-2.28 4.63-2.99 1.76-.71 3.63-1.06 5.59-1.06s3.83.36 5.59 1.06c1.76.71 3.32 1.71 4.67 2.99 1.35 1.28 2.41 2.79 3.19 4.53.78 1.74 1.17 3.64 1.17 5.7s-.39 3.96-1.17 5.7zm112.29-16.44c-1.42-3.32-3.4-6.21-5.94-8.68-2.54-2.47-5.57-4.4-9.1-5.8-3.52-1.4-7.37-2.09-11.53-2.09-4.21 0-8.06.7-11.56 2.09-3.5 1.4-6.51 3.33-9.03 5.8s-4.48 5.36-5.9 8.68c-1.42 3.32-2.13 6.9-2.13 10.74 0 3.85.71 7.43 2.13 10.74 1.42 3.32 3.39 6.21 5.9 8.68 2.52 2.47 5.53 4.41 9.03 5.8 3.5 1.39 7.35 2.09 11.56 2.09 4.16 0 8.01-.7 11.53-2.09 3.52-1.4 6.56-3.33 9.1-5.8 2.54-2.47 4.52-5.36 5.94-8.68 1.42-3.32 2.13-6.9 2.13-10.74s-.71-7.42-2.13-10.74zm-13.11 16.44c-.78 1.74-1.84 3.25-3.19 4.53a14.551 14.551 0 01-4.67 2.98c-1.76.71-3.63 1.06-5.59 1.06-1.97 0-3.83-.35-5.59-1.06-1.76-.71-3.3-1.7-4.63-2.98s-2.38-2.79-3.15-4.53c-.78-1.74-1.17-3.64-1.17-5.7s.39-3.96 1.17-5.7c.77-1.74 1.83-3.25 3.15-4.53 1.33-1.28 2.87-2.28 4.63-2.99s3.63-1.06 5.59-1.06c1.97 0 3.83.36 5.59 1.06s3.32 1.71 4.67 2.99c1.35 1.28 2.41 2.79 3.19 4.53.78 1.74 1.17 3.64 1.17 5.7s-.39 3.96-1.17 5.7zm86.21-1.03c3.71-.87 6.51-2.53 8.41-4.98 1.9-2.45 2.85-5.64 2.85-9.58 0-2.2-.36-4.26-1.06-6.18a14.55 14.55 0 00-3.16-5.08c-1.4-1.46-3.17-2.62-5.32-3.47-2.15-.85-4.67-1.27-7.55-1.27h-20.93V271h13.45v-19.91l12.84 19.91h16.75l-16.28-21.21zm-4.67-9.06c-1.42 1.1-3.46 1.65-6.11 1.65h-2.54v-12.77h2.54c2.65 0 4.69.55 6.11 1.65 1.42 1.1 2.13 2.68 2.13 4.74 0 2.05-.71 3.63-2.13 4.73zm94.66-18.74a35.548 35.548 0 00-8.03-3.12c-2.79-.71-5.47-1.06-8.03-1.06-2.75 0-5.23.41-7.45 1.24-2.22.82-4.09 1.98-5.63 3.47-1.54 1.49-2.73 3.27-3.57 5.35-.85 2.08-1.27 4.41-1.27 6.97 0 2.56.4 4.68 1.2 6.35.8 1.67 1.85 3.05 3.16 4.15s2.79 1.98 4.46 2.64c1.67.67 3.37 1.27 5.12 1.82 1.46.5 2.71.96 3.74 1.37 1.03.41 1.86.86 2.51 1.34.64.48 1.1 1.01 1.37 1.58.28.57.41 1.25.41 2.02 0 1.28-.54 2.43-1.61 3.43-1.07 1.01-2.71 1.51-4.91 1.51-1.92 0-3.87-.43-5.83-1.3-1.97-.87-3.96-2.2-5.97-3.98l-5.77 10.85c5.58 3.89 11.65 5.83 18.19 5.83 3.16 0 5.98-.42 8.48-1.27 2.49-.85 4.6-2.04 6.31-3.57 1.72-1.53 3.02-3.37 3.91-5.53.89-2.15 1.34-4.55 1.34-7.21 0-3.93-1.02-7.13-3.05-9.58-2.04-2.45-5.25-4.4-9.65-5.87-1.1-.37-2.21-.71-3.33-1.03-1.12-.32-2.13-.7-3.02-1.13-.89-.43-1.62-.95-2.16-1.54-.55-.6-.82-1.35-.82-2.27 0-1.33.55-2.4 1.65-3.22 1.1-.82 2.52-1.24 4.26-1.24 1.37 0 2.79.29 4.25.86 1.47.57 2.93 1.45 4.39 2.64l5.35-10.5zM667.89.27l76.28 170.49H707.8l-11.3-25.39h-57.21l-11.3 25.39h-36.27L667.89.27zm15.34 115.46L668 80.39l-15.44 35.34h30.67zm200.01-19.69V3.28h33.68v170.9L816.18 78.21v92.76H782.6V.17l100.64 95.87zm128.43-92.35c26.25 0 46.79 10.42 61.05 24.56 14.92 14.99 22.39 34.7 22.39 59.13 0 24.42-7.46 44.06-22.39 58.92-16.44 16.31-36.79 24.46-61.05 24.46h-44.46V3.8h44.46v-.11zm-.1 33.27h-10.88v100.32h11.2c30.12 0 49.75-20 49.75-50.16-.01-29.89-19.98-50.16-50.07-50.16zm227.6-33.68v33.47h-67.16v33.68h50.37v33.48h-50.37v33.68h67.16v33.37h-100.74V3.28h100.74zm42.86.41h54.52c18.6 0 33.64 7.02 43.73 17 10.17 10.17 16.17 19.45 16.17 37.93v4.35c0 11.26-3.52 21.87-10.57 31.81-5.87 8.22-10.51 11.71-20 15.44l38.86 60.53h-41.04l-47.98-73.9v73.9h-33.58l-.11-167.06zm79.81 55.97c0-6.08-2.21-11.44-6.63-16.07-4.36-4.24-12.63-6.63-20.73-6.63h-18.86v46.12h12.95v.1h11.2c12.23.01 22.07-10.78 22.07-23.52zm127.66 78.21c9.27 0 19.51-7.7 19.51-16.97 0-15.25-20.47-17.38-32.02-21.38-20.37-6.94-38.36-23.66-38.36-46.42 0-28.17 22.85-50.87 51.02-50.87 25.69 0 46.97 19.05 50.42 43.83l-33.34 7.04c0-9.17-7.7-16.88-16.88-16.88-9.32 0-17.03 7.7-17.03 16.98 0 15.05 19.06 19.05 30.66 22.5 21.08 6.08 39.68 22.14 39.68 45.4 0 28.17-25.29 50.92-53.41 50.92-25.84 0-49.2-18.95-53-43.83l33.34-7.09c0 9.32 10.14 16.92 19.56 16.92l-.15-.15zM1687.14 3.28v33.47h-67.16v33.68h50.37v33.48h-50.37v33.68h67.16v33.37H1586.4V3.28h100.74zm143.95 92.76V3.28h33.68v170.9l-100.74-95.97v92.76h-33.58V.17l100.64 95.87zM1875.17 2.11v3.97h6.43V30.1h4.23V6.07h6.42V2.11h-17.08zM1920.51 0l-9.96 21.76L1900.94 0l-5.9 30.1h4.37l3.01-16.92 8.05 18.2 8.28-18.18 2.7 16.9h4.34L1920.51 0z"
        className="st2"
      ></path>
    </svg>