<svg width="160" height="160" viewBox="0 0 160 160" fill="none" xmlns="http://www.w3.org/2000/svg">
<g clip-path="url(#clip0_283_31)">
<mask id="mask0_283_31" style="mask-type:luminance" maskUnits="userSpaceOnUse" x="0" y="0" width="160" height="160">
<path d="M159.394 0H0.303223V160H159.394V0Z" fill="white"/>
</mask>
<g mask="url(#mask0_283_31)">
<path fill-rule="evenodd" clip-rule="evenodd" d="M79.7581 142.182C114.122 142.182 142.031 114.273 142.031 79.909C142.031 45.5453 114.122 17.6362 79.7581 17.6362C45.3944 17.6362 17.4854 45.5453 17.4854 79.909C17.4854 114.273 45.3035 142.182 79.7581 142.182Z" fill="#054F7D"/>
<path fill-rule="evenodd" clip-rule="evenodd" d="M76.9392 12.9999L77.3938 0.0908203L72.6665 0.27265L74.3938 13.1817L76.9392 12.9999Z" fill="#054F7D"/>
<path fill-rule="evenodd" clip-rule="evenodd" d="M83.4848 13.0909L85.2121 0.181829L80.5757 0L81.0302 13L83.4848 13.0909Z" fill="#054F7D"/>
<path fill-rule="evenodd" clip-rule="evenodd" d="M90.0302 13.8182L93.0302 1.09096L88.3939 0.45459L87.5757 13.4546L90.0302 13.8182Z" fill="#054F7D"/>
<path fill-rule="evenodd" clip-rule="evenodd" d="M96.4848 15.0907L100.667 2.81797L96.1212 1.72705L94.0303 14.5452L96.4848 15.0907Z" fill="#054F7D"/>
<path fill-rule="evenodd" clip-rule="evenodd" d="M102.757 17.0908L108.121 5.27261L103.666 3.63623L100.394 16.1817L102.757 17.0908Z" fill="#054F7D"/>
<path fill-rule="evenodd" clip-rule="evenodd" d="M108.758 19.6365L115.303 8.36378L111.03 6.36377L106.485 18.5456L108.758 19.6365Z" fill="#054F7D"/>
<path fill-rule="evenodd" clip-rule="evenodd" d="M114.576 22.7274L122.212 12.2729L118.121 9.81836L112.394 21.4547L114.576 22.7274Z" fill="#054F7D"/>
<path fill-rule="evenodd" clip-rule="evenodd" d="M120.031 26.4541L128.576 16.7269L124.849 13.9087L117.94 24.9996L120.031 26.4541Z" fill="#054F7D"/>
<path fill-rule="evenodd" clip-rule="evenodd" d="M125.031 30.6362L134.576 21.818L131.031 18.6362L123.212 28.9999L125.031 30.6362Z" fill="#054F7D"/>
<path fill-rule="evenodd" clip-rule="evenodd" d="M129.667 35.3636L140.031 27.4546L136.849 24L127.94 33.4546L129.667 35.3636Z" fill="#054F7D"/>
<path fill-rule="evenodd" clip-rule="evenodd" d="M133.758 40.4547L144.849 33.6365L142.03 29.8184L132.303 38.4547L133.758 40.4547Z" fill="#054F7D"/>
<path fill-rule="evenodd" clip-rule="evenodd" d="M137.394 45.9089L149.031 40.2725L146.667 36.1816L136.122 43.818L137.394 45.9089Z" fill="#054F7D"/>
<path fill-rule="evenodd" clip-rule="evenodd" d="M140.394 51.7273L152.576 47.2727L150.576 43L139.394 49.4545L140.394 51.7273Z" fill="#054F7D"/>
<path fill-rule="evenodd" clip-rule="evenodd" d="M142.94 57.8181L155.485 54.5454L153.849 50.0908L142.031 55.4545L142.94 57.8181Z" fill="#054F7D"/>
<path fill-rule="evenodd" clip-rule="evenodd" d="M144.758 64.1818L157.576 62.0909L156.394 57.5454L144.122 61.7272L144.758 64.1818Z" fill="#054F7D"/>
<path fill-rule="evenodd" clip-rule="evenodd" d="M146.03 70.6362L158.939 69.818L158.212 65.1816L145.576 68.0907L146.03 70.6362Z" fill="#054F7D"/>
<path fill-rule="evenodd" clip-rule="evenodd" d="M146.576 77.1819L159.576 77.6364L159.303 72.9092L146.485 74.6364L146.576 77.1819Z" fill="#054F7D"/>
<path fill-rule="evenodd" clip-rule="evenodd" d="M146.485 83.727L159.394 85.4543L159.576 80.7271L146.667 81.1816L146.485 83.727Z" fill="#054F7D"/>
<path fill-rule="evenodd" clip-rule="evenodd" d="M145.848 90.2725L158.485 93.2725L159.121 88.5452L146.212 87.7271L145.848 90.2725Z" fill="#054F7D"/>
<path fill-rule="evenodd" clip-rule="evenodd" d="M144.485 96.6366L156.758 100.909L157.939 96.3638L145.121 94.2729L144.485 96.6366Z" fill="#054F7D"/>
<path fill-rule="evenodd" clip-rule="evenodd" d="M142.576 102.909L154.303 108.364L155.939 103.909L143.394 100.545L142.576 102.909Z" fill="#054F7D"/>
<path fill-rule="evenodd" clip-rule="evenodd" d="M139.939 109L151.212 115.545L153.212 111.273L141.03 106.727L139.939 109Z" fill="#054F7D"/>
<path fill-rule="evenodd" clip-rule="evenodd" d="M136.849 114.727L147.394 122.364L149.758 118.364L138.121 112.636L136.849 114.727Z" fill="#054F7D"/>
<path fill-rule="evenodd" clip-rule="evenodd" d="M133.121 120.182L142.848 128.818L145.667 125L134.667 118.182L133.121 120.182Z" fill="#054F7D"/>
<path fill-rule="evenodd" clip-rule="evenodd" d="M128.939 125.273L137.758 134.727L140.939 131.273L130.576 123.364L128.939 125.273Z" fill="#054F7D"/>
<path fill-rule="evenodd" clip-rule="evenodd" d="M124.212 129.818L132.122 140.182L135.576 137L126.121 128.182L124.212 129.818Z" fill="#054F7D"/>
<path fill-rule="evenodd" clip-rule="evenodd" d="M119.122 134L125.94 145L129.667 142.182L121.122 132.455L119.122 134Z" fill="#054F7D"/>
<path fill-rule="evenodd" clip-rule="evenodd" d="M113.667 137.546L119.303 149.273L123.394 146.818L115.758 136.273L113.667 137.546Z" fill="#054F7D"/>
<path fill-rule="evenodd" clip-rule="evenodd" d="M107.849 140.636L112.303 152.818L116.576 150.727L110.121 139.545L107.849 140.636Z" fill="#054F7D"/>
<path fill-rule="evenodd" clip-rule="evenodd" d="M101.757 143.091L105.03 155.636L109.485 154L104.121 142.182L101.757 143.091Z" fill="#054F7D"/>
<path fill-rule="evenodd" clip-rule="evenodd" d="M95.3936 144.909L97.4845 157.727L102.03 156.637L97.8481 144.273L95.3936 144.909Z" fill="#054F7D"/>
<path fill-rule="evenodd" clip-rule="evenodd" d="M88.9395 146.182L89.7576 159.091L94.394 158.455L91.4849 145.728L88.9395 146.182Z" fill="#054F7D"/>
<path fill-rule="evenodd" clip-rule="evenodd" d="M82.394 146.727L81.9395 159.727L86.6667 159.454L84.9395 146.636L82.394 146.727Z" fill="#054F7D"/>
<path fill-rule="evenodd" clip-rule="evenodd" d="M75.8488 146.636L74.1216 159.545L78.7579 159.727L78.3943 146.818L75.8488 146.636Z" fill="#054F7D"/>
<path fill-rule="evenodd" clip-rule="evenodd" d="M69.3027 146L66.3027 158.636L70.9391 159.273L71.8482 146.364L69.3027 146Z" fill="#054F7D"/>
<path fill-rule="evenodd" clip-rule="evenodd" d="M62.8488 144.636L58.667 156.909L63.2124 158L65.3033 145.273L62.8488 144.636Z" fill="#054F7D"/>
<path fill-rule="evenodd" clip-rule="evenodd" d="M56.6669 142.636L51.2124 154.454L55.6669 156.091L59.0306 143.545L56.6669 142.636Z" fill="#054F7D"/>
<path fill-rule="evenodd" clip-rule="evenodd" d="M50.5757 140.091L44.0303 151.273L48.303 153.273L52.8484 141.182L50.5757 140.091Z" fill="#054F7D"/>
<path fill-rule="evenodd" clip-rule="evenodd" d="M44.8483 136.909L37.2119 147.455L41.2119 149.909L46.9392 138.273L44.8483 136.909Z" fill="#054F7D"/>
<path fill-rule="evenodd" clip-rule="evenodd" d="M39.3942 133.273L30.7578 143L34.576 145.728L41.3942 134.728L39.3942 133.273Z" fill="#054F7D"/>
<path fill-rule="evenodd" clip-rule="evenodd" d="M34.3032 129L24.8486 137.818L28.3032 141L36.2123 130.727L34.3032 129Z" fill="#054F7D"/>
<path fill-rule="evenodd" clip-rule="evenodd" d="M29.7577 124.364L19.394 132.182L22.5759 135.636L31.394 126.182L29.7577 124.364Z" fill="#054F7D"/>
<path fill-rule="evenodd" clip-rule="evenodd" d="M25.6666 119.273L14.5757 126L17.3939 129.818L27.1211 121.273L25.6666 119.273Z" fill="#054F7D"/>
<path fill-rule="evenodd" clip-rule="evenodd" d="M22.0305 113.727L10.3032 119.363L12.7578 123.454L23.3032 115.909L22.0305 113.727Z" fill="#054F7D"/>
<path fill-rule="evenodd" clip-rule="evenodd" d="M19.0301 107.909L6.75732 112.455L8.84822 116.636L20.03 110.182L19.0301 107.909Z" fill="#054F7D"/>
<path fill-rule="evenodd" clip-rule="evenodd" d="M16.5758 101.818L3.93945 105.091L5.57582 109.546L17.394 104.182L16.5758 101.818Z" fill="#054F7D"/>
<path fill-rule="evenodd" clip-rule="evenodd" d="M14.6668 95.5454L1.84863 97.5454L3.03045 102.091L15.3032 97.9091L14.6668 95.5454Z" fill="#054F7D"/>
<path fill-rule="evenodd" clip-rule="evenodd" d="M13.4849 89.0908L0.484863 89.8181L1.21214 94.4545L13.8485 91.5454L13.4849 89.0908Z" fill="#054F7D"/>
<path fill-rule="evenodd" clip-rule="evenodd" d="M12.8481 82.5455L-0.0610352 82L0.12078 86.7273L13.0299 85L12.8481 82.5455Z" fill="#054F7D"/>
<path fill-rule="evenodd" clip-rule="evenodd" d="M12.9395 75.9089L0.121363 74.1816L-0.151367 78.9089L12.8486 78.4544L12.9395 75.9089Z" fill="#054F7D"/>
<path fill-rule="evenodd" clip-rule="evenodd" d="M13.6669 69.4547L1.0305 66.3638L0.303223 71.0911L13.3032 71.9092L13.6669 69.4547Z" fill="#054F7D"/>
<path fill-rule="evenodd" clip-rule="evenodd" d="M15.0307 63.0003L2.75799 58.7275L1.57617 63.273L14.3944 65.4548L15.0307 63.0003Z" fill="#054F7D"/>
<path fill-rule="evenodd" clip-rule="evenodd" d="M16.9393 56.727L5.21204 51.2725L3.57568 55.727L16.1211 59.0906L16.9393 56.727Z" fill="#054F7D"/>
<path fill-rule="evenodd" clip-rule="evenodd" d="M19.5755 50.6363L8.30273 44.0908L6.30273 48.3636L18.4845 52.909L19.5755 50.6363Z" fill="#054F7D"/>
<path fill-rule="evenodd" clip-rule="evenodd" d="M22.6674 44.9093L12.2129 37.2729L9.7583 41.3639L21.3947 47.0911L22.6674 44.9093Z" fill="#054F7D"/>
<path fill-rule="evenodd" clip-rule="evenodd" d="M26.3946 39.4542L16.6673 30.8179L13.8491 34.6361L24.94 41.5452L26.3946 39.4542Z" fill="#054F7D"/>
<path fill-rule="evenodd" clip-rule="evenodd" d="M30.667 34.4546L21.8488 24.9092L18.667 28.3637L28.9397 36.2728L30.667 34.4546Z" fill="#054F7D"/>
<path fill-rule="evenodd" clip-rule="evenodd" d="M35.303 29.8182L27.4848 19.4546L24.0303 22.6364L33.4848 31.5455L35.303 29.8182Z" fill="#054F7D"/>
<path fill-rule="evenodd" clip-rule="evenodd" d="M40.3941 25.7272L33.6668 14.6362L29.8486 17.4544L38.3941 27.2726L40.3941 25.7272Z" fill="#054F7D"/>
<path fill-rule="evenodd" clip-rule="evenodd" d="M45.9397 22.1819L40.3033 10.4546L36.2124 12.9091L43.7578 23.4546L45.9397 22.1819Z" fill="#054F7D"/>
<path fill-rule="evenodd" clip-rule="evenodd" d="M51.7576 19.091L47.303 6.90918L43.0303 8.90919L49.4848 20.1819L51.7576 19.091Z" fill="#054F7D"/>
<path fill-rule="evenodd" clip-rule="evenodd" d="M57.8489 16.6363L54.5761 4.09082L50.1216 5.63629L55.4852 17.5454L57.8489 16.6363Z" fill="#054F7D"/>
<path fill-rule="evenodd" clip-rule="evenodd" d="M64.1211 14.8182L62.1211 2L57.5757 3.18181L61.7575 15.4545L64.1211 14.8182Z" fill="#054F7D"/>
<path fill-rule="evenodd" clip-rule="evenodd" d="M70.576 13.6367L69.8488 0.636719L65.2124 1.36398L68.1215 14.0003L70.576 13.6367Z" fill="#054F7D"/>
<path fill-rule="evenodd" clip-rule="evenodd" d="M35.2121 51.8182L34.303 53.2727L29.4849 46.5455L30.4849 45L38.4849 47.1818L37.4849 48.6364L35.8485 48.1818L34.2121 50.5455L35.2121 51.8182Z" fill="white"/>
<path fill-rule="evenodd" clip-rule="evenodd" d="M33.394 49.3638L34.485 47.7275L31.394 46.8184L33.394 49.3638Z" fill="#054F7D"/>
<path fill-rule="evenodd" clip-rule="evenodd" d="M44.303 40.9999L43.2121 42.0908L38.5758 37.5453V37.6362L42.2121 43.1817L41.1212 44.2726L35.4849 40.818L40.1212 45.3635L39.1212 46.4544L33.4849 41.0908L35.1212 39.3635L40.4849 42.5453L37.0303 37.2726L38.6667 35.6362L44.303 40.9999Z" fill="white"/>
<path fill-rule="evenodd" clip-rule="evenodd" d="M46.1214 31.4547L42.8487 33.9092L43.8487 35.2729L46.8487 32.9092L47.7578 34.0001L44.7578 36.3638L45.9396 37.9092L49.3942 35.2729L50.2124 36.3638L45.4851 40.0001L40.7578 33.8183L45.3033 30.3638L46.1214 31.4547Z" fill="white"/>
<path fill-rule="evenodd" clip-rule="evenodd" d="M47.5757 28.9093L51.0302 27.0003C52.8484 26.0003 53.9393 27.0911 54.212 27.7275C54.6666 28.4548 54.5757 29.3639 54.0302 29.9093C54.7575 29.8184 55.1211 29.9093 55.8484 31.1821C56.3939 32.1821 56.5757 32.4548 56.9393 32.3639L57.0302 32.5457L55.4848 33.4548C55.2121 33.1821 54.9393 32.9093 54.5757 32.1821C54.0302 31.273 53.7575 30.9093 52.7575 31.5457L51.303 32.3639L52.7575 35.0002L51.3939 35.8184L47.5757 28.9093Z" fill="white"/>
<path fill-rule="evenodd" clip-rule="evenodd" d="M52.2125 30.0909C52.9398 29.6364 53.1216 29.1818 52.758 28.5455C52.5762 28.1818 52.1216 27.7273 51.3034 28.1818L49.5762 29.1819L50.5761 31L52.2125 30.0909Z" fill="#054F7D"/>
<path fill-rule="evenodd" clip-rule="evenodd" d="M59.758 31.3638L58.2125 32.0002L55.1216 24.9093L56.667 24.2729L59.758 31.3638Z" fill="white"/>
<path fill-rule="evenodd" clip-rule="evenodd" d="M64.3941 24.1817C64.1214 23.8181 63.6668 22.9999 62.3941 23.4544C61.6668 23.7272 60.6669 24.5454 61.3941 26.6363C61.8487 27.9999 62.6669 28.9999 64.0305 28.6362C64.8487 28.3635 65.3032 27.7271 65.2123 26.7271L66.7578 26.2726C66.9396 27.9999 66.2123 29.4544 64.3941 29.9999C62.3941 30.6362 60.5759 29.7271 59.7578 27.1817C58.9396 24.5453 60.0305 22.8181 61.9396 22.1817C64.1214 21.4544 65.576 22.7272 65.9396 23.8181L64.3941 24.1817Z" fill="white"/>
<path fill-rule="evenodd" clip-rule="evenodd" d="M69.8484 28.273L68.1211 28.5457L69.6665 20.4548L71.5756 20.1821L75.3938 27.4549L73.6666 27.7276L72.9393 26.1821L70.1211 26.6367L69.8484 28.273Z" fill="white"/>
<path fill-rule="evenodd" clip-rule="evenodd" d="M70.3032 25.2726L72.3032 24.909L70.8487 22.0908L70.3032 25.2726Z" fill="#054F7D"/>
<path fill-rule="evenodd" clip-rule="evenodd" d="M81.2122 19.6362H82.7577V27.3635H81.1213L77.9395 21.909V27.3635L76.394 27.4544V19.6362H78.1213L81.2122 24.9999V19.6362Z" fill="white"/>
<path fill-rule="evenodd" clip-rule="evenodd" d="M89.3936 25.8182C89.3027 26.2727 89.3936 27.0909 90.7573 27.3636C91.4845 27.5454 92.3936 27.5454 92.5754 26.7273C92.6664 26.0909 92.1209 25.8182 91.3936 25.5454L90.5754 25.1818C89.3936 24.6364 88.3027 24.0909 88.5754 22.4545C88.7573 21.6364 89.4845 20.1818 91.9391 20.7273C94.3027 21.1818 94.5754 22.8182 94.3936 23.8182L92.8482 23.5454C92.8482 23.1818 92.9391 22.3636 91.4845 22.0909C90.8482 22 90.1209 22 89.9391 22.7273C89.8482 23.3636 90.3027 23.5454 90.5754 23.7273L92.3027 24.5454C93.3027 25 94.1209 25.6364 93.8482 27C93.3936 29.2727 91.03 29 90.3027 28.9091C87.4845 28.3636 87.3936 26.6364 87.5754 25.7273L89.3936 25.8182Z" fill="white"/>
<path fill-rule="evenodd" clip-rule="evenodd" d="M100.758 23.1822C101.758 23.5458 104.122 24.9095 102.849 28.2731C101.576 31.7277 98.9397 31.1822 97.9397 30.8186C96.9397 30.4549 94.5761 29.0913 95.8488 25.7277C97.1215 22.2731 99.8488 22.8186 100.758 23.1822Z" fill="white"/>
<path fill-rule="evenodd" clip-rule="evenodd" d="M98.4851 29.5454C99.3032 29.8182 100.667 29.7273 101.394 27.7273C102.121 25.7273 101.212 24.7273 100.394 24.4545C99.576 24.1818 98.2123 24.2727 97.4851 26.2727C96.6669 28.2727 97.576 29.2727 98.4851 29.5454Z" fill="#054F7D"/>
<path fill-rule="evenodd" clip-rule="evenodd" d="M109.576 30.3638C109.667 29.9093 109.939 29.0002 108.758 28.3638C108.121 28.0002 106.848 27.9093 105.758 29.8184C105.121 31.0002 104.939 32.3638 106.121 33.0911C106.939 33.5456 107.667 33.3638 108.303 32.6366L109.758 33.4548C108.667 34.7275 107.121 35.2729 105.394 34.3638C103.576 33.3638 102.939 31.4547 104.303 29.0911C105.667 26.7275 107.667 26.2729 109.394 27.2729C111.394 28.3638 111.485 30.2729 111.03 31.2729L109.576 30.3638Z" fill="white"/>
<path fill-rule="evenodd" clip-rule="evenodd" d="M110.758 37.4545L109.394 36.4545L113.849 30.0908L115.212 31.0908L110.758 37.4545Z" fill="white"/>
<path fill-rule="evenodd" clip-rule="evenodd" d="M120.576 37.2728L117.485 34.5455L116.394 35.8182L119.303 38.2728L118.394 39.2728L115.576 36.8182L114.212 38.3637L117.485 41.1819L116.576 42.1818L112.122 38.3637L117.212 32.4546L121.485 36.1819L120.576 37.2728Z" fill="white"/>
<path fill-rule="evenodd" clip-rule="evenodd" d="M119.758 45.6363L118.667 44.4545L123.394 40.1818L121.849 38.4545L122.94 37.5454L127.122 42.2727L126.031 43.1818L124.485 41.4545L119.758 45.6363Z" fill="white"/>
<path fill-rule="evenodd" clip-rule="evenodd" d="M123.939 51.2728L123.03 49.9092L125.485 48.2729L127.939 43.3638L129.03 44.9092L127.121 48.1819L130.848 47.5456L131.848 49.091L126.394 49.6365L123.939 51.2728Z" fill="white"/>
<path fill-rule="evenodd" clip-rule="evenodd" d="M31.7577 101.182C32.2123 102.091 32.8486 104.818 29.485 106.273C26.1214 107.727 24.6668 105.454 24.2123 104.454C23.7577 103.545 23.1214 100.818 26.485 99.3636C29.8486 97.909 31.3032 100.182 31.7577 101.182Z" fill="white"/>
<path fill-rule="evenodd" clip-rule="evenodd" d="M25.4852 103.909C25.8488 104.727 26.8488 105.636 28.8488 104.727C30.8488 103.818 30.8488 102.545 30.4852 101.727C30.1216 100.909 29.1216 99.9996 27.1216 100.909C25.1216 101.727 25.1216 103.09 25.4852 103.909Z" fill="#054F7D"/>
<path fill-rule="evenodd" clip-rule="evenodd" d="M27.9398 111.182L27.1216 109.818L33.667 105.728L36.5761 110.455L35.3943 111.182L33.3943 107.818L31.8489 108.728L33.667 111.637L32.4852 112.364L30.7579 109.455L27.9398 111.182Z" fill="white"/>
<path fill-rule="evenodd" clip-rule="evenodd" d="M39.5757 120.455L37.2121 123L36.0303 121.909L41.3939 116.273L42.4848 117.364L40.4848 119.546L42.6666 121.637L44.7575 119.455L45.9394 120.546L40.5757 126.182L39.3939 125.091L41.7575 122.546L39.5757 120.455Z" fill="white"/>
<path fill-rule="evenodd" clip-rule="evenodd" d="M49.9398 123.273C50.758 123.818 52.758 125.728 50.6671 128.728C48.5762 131.728 46.1217 130.546 45.3035 130C44.4853 129.455 42.4853 127.546 44.5762 124.546C46.6671 121.546 49.1217 122.728 49.9398 123.273Z" fill="white"/>
<path fill-rule="evenodd" clip-rule="evenodd" d="M46.1217 128.909C46.849 129.364 48.1217 129.637 49.3945 127.909C50.6672 126.091 49.9399 125 49.2126 124.455C48.4854 124 47.2127 123.728 45.9399 125.455C44.6672 127.273 45.3945 128.455 46.1217 128.909Z" fill="#054F7D"/>
<path fill-rule="evenodd" clip-rule="evenodd" d="M57.3939 136.454L56.0302 135.727L58.8484 129.909H58.7575L54.6666 135.182L53.303 134.454L54.7575 128L51.9393 133.818L50.5757 133.182L53.9393 126.182L56.0302 127.182L54.7575 133.363L58.5757 128.363L60.7575 129.363L57.3939 136.454Z" fill="white"/>
<path fill-rule="evenodd" clip-rule="evenodd" d="M67.2117 132.818L63.3026 131.636L62.848 133.181L66.3935 134.272L66.0299 135.545L62.3935 134.545L61.8481 136.454L65.939 137.636L65.5753 139L59.939 137.272L62.1208 129.818L67.5753 131.454L67.2117 132.818Z" fill="white"/>
<path fill-rule="evenodd" clip-rule="evenodd" d="M76.3947 140.454L74.7583 140.364L75.3038 132.636L76.9401 132.727L76.3947 140.454Z" fill="white"/>
<path fill-rule="evenodd" clip-rule="evenodd" d="M83.3029 132.727L84.8484 132.636L85.1211 140.454H83.4848L80.1211 135.091L80.303 140.636H78.7575L78.5757 132.909L80.212 132.818L83.4848 138.091L83.3029 132.727Z" fill="white"/>
<path fill-rule="evenodd" clip-rule="evenodd" d="M88.4854 137.545C88.5763 138 88.9399 138.727 90.3036 138.454C91.0308 138.363 91.849 138 91.7581 137.182C91.6672 136.545 91.0308 136.545 90.2126 136.454L89.3945 136.363C88.1217 136.273 86.849 136.273 86.5763 134.545C86.3945 133.727 86.5763 132.091 89.1217 131.636C91.4854 131.182 92.3945 132.636 92.5763 133.545L91.0308 133.818C90.9399 133.454 90.6672 132.727 89.3035 132.909C88.6672 133 88.0308 133.363 88.1217 134.091C88.2126 134.727 88.7581 134.727 89.0308 134.727L90.9399 134.818C92.0308 134.909 93.0308 135.182 93.3035 136.545C93.7581 138.818 91.3945 139.454 90.7581 139.545C87.9399 140 87.2126 138.545 87.0308 137.545H88.4854Z" fill="white"/>
<path fill-rule="evenodd" clip-rule="evenodd" d="M97.3939 138L95.8485 138.545L93.4849 131.182L96.8485 130.091C98.3031 129.636 99.4849 130.273 99.9394 131.727C100.121 132.364 100.303 134.182 98.303 134.818L96.5758 135.364L97.3939 138Z" fill="white"/>
<path fill-rule="evenodd" clip-rule="evenodd" d="M97.4845 133.636C98.6663 133.273 98.3935 132.455 98.3026 132.091C98.0299 131.364 97.5754 131.182 96.5754 131.546L95.3936 131.909L96.1208 134.091L97.4845 133.636Z" fill="#054F7D"/>
<path fill-rule="evenodd" clip-rule="evenodd" d="M105.94 127.545L102.303 129.363L102.94 130.818L106.394 129.182L107.031 130.363L103.576 132L104.485 133.818L108.303 132L108.94 133.182L103.667 135.818L100.212 128.818L105.394 126.272L105.94 127.545Z" fill="white"/>
<path fill-rule="evenodd" clip-rule="evenodd" d="M112.212 124.909C111.849 124.636 111.121 124 110.03 124.727C109.394 125.182 108.758 126.272 109.94 128.091C110.758 129.272 111.849 130 113.03 129.182C113.758 128.636 114.03 127.909 113.667 127L115.03 126.091C115.667 127.636 115.485 129.272 113.849 130.363C112.121 131.545 110.121 131.182 108.667 129C107.121 126.727 107.667 124.727 109.303 123.636C111.212 122.363 112.94 123.182 113.576 124L112.212 124.909Z" fill="white"/>
<path fill-rule="evenodd" clip-rule="evenodd" d="M120.667 124.727L119.485 125.818L115.213 121L113.485 122.546L112.485 121.546L117.213 117.364L118.122 118.364L116.394 119.909L120.667 124.727Z" fill="white"/>
<path fill-rule="evenodd" clip-rule="evenodd" d="M119.939 114C120.576 113.182 122.666 111.454 125.485 113.818C128.303 116.182 126.848 118.545 126.212 119.273C125.576 120.091 123.485 121.818 120.666 119.454C117.848 117.091 119.303 114.727 119.939 114Z" fill="white"/>
<path fill-rule="evenodd" clip-rule="evenodd" d="M125.121 118.363C125.667 117.727 126.03 116.363 124.394 115C122.758 113.636 121.485 114.182 120.939 114.818C120.394 115.454 120.03 116.818 121.667 118.182C123.394 119.636 124.576 119 125.121 118.363Z" fill="#054F7D"/>
<path fill-rule="evenodd" clip-rule="evenodd" d="M123.212 110.182L125.303 106.818C126.394 105.091 127.849 105.545 128.485 105.909C129.212 106.364 129.576 107.091 129.394 107.909C129.94 107.545 130.394 107.364 131.576 108.091C132.576 108.727 132.758 108.818 133.031 108.636L133.212 108.727L132.303 110.273C131.94 110.182 131.576 110 130.849 109.636C129.94 109.091 129.576 108.909 128.94 109.909L128.031 111.364L130.667 112.909L129.849 114.273L123.212 110.182Z" fill="white"/>
<path fill-rule="evenodd" clip-rule="evenodd" d="M127.939 109C128.394 108.273 128.303 107.818 127.667 107.364C127.303 107.182 126.667 107 126.212 107.818L125.121 109.545L126.848 110.636L127.939 109Z" fill="#054F7D"/>
<path fill-rule="evenodd" clip-rule="evenodd" d="M132.485 104.636C132.849 104.818 133.758 104.909 134.304 103.636C134.576 102.909 134.758 102.091 134.031 101.727C133.485 101.455 133.122 102 132.576 102.636L132.122 103.273C131.395 104.273 130.576 105.273 129.031 104.636C128.213 104.273 127.031 103.273 128.031 100.909C128.94 98.7273 130.667 98.7273 131.576 99.0909L130.94 100.545C130.576 100.455 129.758 100.273 129.213 101.545C128.94 102.091 128.849 102.909 129.576 103.182C130.122 103.455 130.485 103 130.667 102.727L131.849 101.182C132.485 100.273 133.304 99.5455 134.576 100.182C136.758 101.091 135.94 103.364 135.667 104C134.576 106.636 132.849 106.364 131.94 106L132.485 104.636Z" fill="white"/>
<path fill-rule="evenodd" clip-rule="evenodd" d="M19.4849 80.5455C19.4849 78.2728 21.303 76.4546 23.5758 76.4546C25.8485 76.4546 27.6667 78.2728 27.6667 80.5455C27.6667 82.8182 25.8485 84.6364 23.5758 84.6364C21.303 84.6364 19.4849 82.8182 19.4849 80.5455Z" fill="white"/>
<path fill-rule="evenodd" clip-rule="evenodd" d="M131.849 80.5455C131.849 78.2728 133.667 76.4546 135.94 76.4546C138.212 76.4546 140.03 78.2728 140.03 80.5455C140.03 82.8182 138.212 84.6364 135.94 84.6364C133.667 84.6364 131.849 82.8182 131.849 80.5455Z" fill="white"/>
<path fill-rule="evenodd" clip-rule="evenodd" d="M35.6669 92.1817H27.7578L37.8487 63.0908H47.7578L57.7578 92.1817H49.9396L48.3942 86.9999H37.2124L35.6669 92.1817Z" fill="white"/>
<path fill-rule="evenodd" clip-rule="evenodd" d="M38.8491 81.2725L41.7582 71.6362C41.94 71.0907 42.3037 69.7271 42.7582 67.7271C43.2128 69.7271 43.5764 71.0907 43.7582 71.6362L46.7582 81.2725H38.8491Z" fill="#054F7D"/>
<path fill-rule="evenodd" clip-rule="evenodd" d="M86.667 63.0908H94.5761V74.3636H105.122V63.0908H113.122V92.1817H105.122V80.3635H94.5761V92.1817H86.667V63.0908Z" fill="white"/>
<path fill-rule="evenodd" clip-rule="evenodd" d="M119.212 63.0908H127.212V92.1817H119.212V63.0908Z" fill="white"/>
<path fill-rule="evenodd" clip-rule="evenodd" d="M71.3033 86.7274C73.4851 86.7274 74.9396 85.4547 74.9396 83.7274C74.9396 81.3638 73.3942 80.7274 70.0306 79.9092C64.6669 78.4547 62.2124 76.4547 62.2124 71.8183C62.2124 66.3638 66.2124 62.3638 72.2124 62.3638C75.4851 62.3638 78.3033 63.2729 80.8487 65.0001L78.3942 70.7274C76.576 69.182 74.6669 68.4547 72.8487 68.4547C70.9396 68.4547 69.6669 69.5456 69.6669 70.9092C69.6669 72.6365 71.0305 73.2729 73.4851 73.9092C76.3033 74.6365 78.576 75.2729 80.2124 76.9092C81.576 78.3638 82.3033 80.3638 82.3033 82.8183C82.3033 88.9092 78.0305 93.091 71.1214 93.091C67.0305 93.091 63.8487 91.7274 60.7578 88.8183L64.3033 82.9092C66.6669 85.4547 68.9396 86.7274 71.3033 86.7274Z" fill="white"/>
</g>
</g>
<defs>
<clipPath id="clip0_283_31">
<rect width="160" height="160" fill="white"/>
</clipPath>
</defs>
</svg>
