<svg xmlns="http://www.w3.org/2000/svg" version="1.1" viewBox="0 0 400 66.406">
  <g>
    <path fill="#047cc4" fillRule="evenodd" stroke="none" d="M21.95.123c-.647.041-.998.141-1.06.302-.061.16-.339.242-.824.242-.403 0-.733.075-.733.166 0 .092-.262.167-.583.167-.321 0-.583.075-.583.167 0 .091-.263.166-.584.166-.407 0-.583.076-.583.25 0 .156-.157.25-.417.25-.229 0-.416.075-.416.167 0 .092-.15.167-.334.167-.183 0-.333.075-.333.166 0 .092-.187.167-.417.167-.259 0-.416.094-.416.25s-.158.25-.417.25c-.229 0-.417.075-.417.167 0 .091-.15.166-.333.166-.183 0-.333.075-.333.167 0 .092-.113.167-.25.167a.25.25 0 00-.25.25c0 .139-.148.25-.334.25-.183 0-.333.075-.333.166 0 .092-.113.167-.25.167-.138 0-.25.075-.25.167 0 .091-.15.166-.333.166-.186 0-.334.111-.334.25 0 .138-.078.25-.173.25-.336 0-4.16 3.978-4.16 4.327 0 .187-.08.34-.179.34-.27 0-.654.441-.654.75s-.385.75-.655.75c-.098 0-.179.171-.179.38s-.15.488-.333.62c-.183.132-.333.411-.333.62 0 .227-.101.38-.25.38-.156 0-.25.157-.25.417 0 .229-.075.416-.167.416-.092 0-.167.15-.167.334 0 .183-.075.333-.166.333-.092 0-.167.188-.167.417 0 .259-.094.416-.25.416-.175 0-.25.176-.25.584 0 .32-.075.583-.167.583-.091 0-.166.188-.166.417 0 .229-.075.416-.167.416-.092 0-.167.263-.167.584 0 .407-.075.583-.25.583-.174 0-.25.176-.25.583 0 .321-.075.584-.166.584-.092 0-.167.337-.167.75 0 .412-.075.75-.167.75-.092 0-.166.444-.166 1 0 .727-.062 1-.225 1-.279 0-.442 2.646-.442 7.166C0 35.353.163 38 .442 38c.163 0 .225.273.225 1 0 .556.074 1 .166 1 .092 0 .167.262.167.583 0 .321.075.584.167.584.091 0 .166.337.166.75 0 .555.065.75.25.75.175 0 .25.176.25.583 0 .321.075.583.167.583.092 0 .167.188.167.417 0 .229.075.417.166.417.092 0 .167.262.167.583 0 .407.075.583.25.583.156 0 .25.158.25.417 0 .229.075.417.167.417.091 0 .166.15.166.333 0 .183.075.333.167.333.092 0 .167.188.167.417 0 .259.094.417.25.417.155 0 .25.157.25.416 0 .23.075.417.166.417.092 0 .167.15.167.333 0 .184.075.334.167.334.091 0 .166.112.166.25 0 .137.113.25.25.25.139 0 .25.148.25.333 0 .183.075.333.167.333.092 0 .167.081.167.179 0 .231.424.655.654.655.099 0 .179.156.179.348 0 .193.333.672.75 1.077.412.401.75.807.75.903 0 .219 1.463 1.672 1.684 1.672.09 0 .567.412 1.059.916.52.533 1.041.917 1.243.917.191 0 .347.08.347.179 0 .281.446.654.782.654.168 0 .447.188.619.417.172.229.452.417.623.417.17 0 .31.075.31.166 0 .092.187.167.416.167.23 0 .417.075.417.167 0 .091.15.166.333.166.186 0 .334.111.334.25 0 .156.157.25.416.25.23 0 .417.075.417.167 0 .092.262.167.583.167.321 0 .584.075.584.166 0 .092.187.167.416.167.26 0 .417.094.417.25 0 .175.176.25.583.25.321 0 .584.075.584.167 0 .091.337.166.75.166.412 0 .75.075.75.167 0 .092.375.167.833.167.63 0 .833.061.833.25 0 .203.278.25 1.5.25.889 0 1.5.068 1.5.166 0 .105 1.028.167 2.75.167 1.723 0 2.75-.062 2.75-.167 0-.097.556-.166 1.334-.166 1.074 0 1.333-.049 1.333-.25 0-.195.222-.25 1-.25.556 0 1-.074 1-.167 0-.092.262-.167.583-.167.321 0 .584-.075.584-.166 0-.092.262-.167.583-.167.407 0 .583-.075.583-.25s.176-.25.584-.25c.32 0 .583-.075.583-.167 0-.091.188-.166.417-.166.229 0 .416-.075.416-.167 0-.092.153-.167.339-.167.186 0 .382-.112.434-.25.053-.137.238-.25.412-.25.173 0 .315-.075.315-.166 0-.092.156-.167.346-.167.369 0 .821-.361.821-.655 0-.098.171-.178.38-.178s.488-.15.62-.334c.132-.183.363-.333.513-.333.151 0 .414-.187.587-.417.172-.229.375-.416.451-.416.164 0 .616-.429.616-.584 0-.139.444-.583.583-.583.139 0 .583-.444.583-.583 0-.139.445-.584.584-.584.139 0 .583-.444.583-.583 0-.173.461-.583.655-.583.098 0 .178-.113.178-.25 0-.138.075-.25.167-.25.092 0 .167-.15.167-.334 0-.183.085-.333.19-.333.256 0 .631-.515.638-.875.003-.16.08-.292.172-.292.091 0 .166-.08.166-.178 0-.098.094-.283.209-.411.532-.593.625-.753.625-1.07 0-.188.075-.341.166-.341.092 0 .167-.155.167-.345 0-.19.112-.458.25-.595.137-.138.25-.432.25-.655 0-.223.075-.405.167-.405.091 0 .166-.262.166-.583 0-.321.075-.583.167-.583.092 0 .167-.263.167-.584 0-.407.075-.583.25-.583.198 0 .25-.241.25-1.167 0-.666.071-1.166.166-1.166.092 0 .167-.15.167-.334 0-.183.075-.333.167-.333.096 0 .166.53.166 1.255 0 .962.059 1.278.25 1.351.17.066.25.331.25.828 0 .403.075.733.167.733.092 0 .167.262.167.583 0 .321.075.583.166.583.092 0 .167.263.167.584 0 .407.075.583.25.583.156 0 .25.157.25.417 0 .229.075.416.167.416.091 0 .166.263.166.584 0 .32.075.583.167.583.092 0 .167.139.167.31 0 .17.187.451.416.623.23.172.417.482.417.69 0 .207.075.377.167.377.091 0 .166.115.166.255a.41.41 0 00.25.351c.138.053.25.184.25.292 0 .107.15.303.334.435.183.132.333.333.333.446 0 .113.188.393.417.623.229.229.416.495.416.59 0 .096.057.175.125.175.213 0 1.042.778 1.042.977 0 .104.08.189.178.189.098 0 .502.338.897.75.395.413.84.75.988.75.149 0 .27.075.27.167 0 .092.113.167.25.167a.25.25 0 01.25.25c0 .139.148.25.334.25.183 0 .333.075.333.166 0 .092.112.167.25.167.137 0 .25.075.25.167 0 .091.142.166.316.166.173 0 .358.113.411.25.053.138.248.25.434.25.187 0 .339.075.339.167 0 .092.262.167.583.167.321 0 .584.075.584.166 0 .092.262.167.583.167.407 0 .583.075.583.25s.176.25.584.25c.32 0 .583.075.583.167 0 .095.5.166 1.167.166.666 0 1.166.072 1.166.167 0 .106 1.33.167 3.657.167 2.258 0 3.696-.064 3.76-.167.057-.092.511-.167 1.01-.167s.907-.075.907-.166c0-.092.375-.167.833-.167.63 0 .833-.061.833-.25 0-.185.195-.25.75-.25.413 0 .75-.075.75-.167 0-.091.188-.166.417-.166.229 0 .417-.075.417-.167 0-.092.15-.167.333-.167.185 0 .333-.111.333-.25 0-.155.158-.25.417-.25.229 0 .417-.075.417-.166 0-.092.187-.167.416-.167.23 0 .417-.075.417-.167 0-.091.139-.166.31-.166.17 0 .451-.188.623-.417.172-.229.445-.417.607-.417.161 0 .293-.075.293-.166 0-.092.113-.167.25-.167.138 0 .25-.08.25-.179 0-.194.411-.654.584-.654.139 0 .583-.445.583-.584 0-.139.444-.583.583-.583.139 0 .584-.444.584-.583 0-.145.447-.584.594-.584.174 0 .561-.548.567-.803.003-.12.268-.467.589-.769.321-.303.583-.673.583-.822 0-.15.075-.272.167-.272.091 0 .166-.188.166-.417 0-.259.095-.417.25-.417.156 0 .25-.157.25-.416 0-.229.075-.417.167-.417.092 0 .167-.187.167-.417 0-.229.075-.416.166-.416.092 0 .167-.142.167-.316 0-.173.112-.359.25-.411.386-.149.327-1.3-.085-1.653-.282-.241-.697-.287-2.584-.287-1.387 0-2.248-.064-2.248-.167 0-.103-.865-.166-2.262-.166-1.788 0-2.314-.053-2.511-.25-.175-.174-.601-.25-1.405-.25-.916 0-1.155.051-1.155.25 0 .137-.113.25-.25.25-.138 0-.25.136-.25.302 0 .166-.15.462-.333.659-.184.197-.334.438-.334.535 0 .097-.262.431-.583.743-.321.311-.583.647-.583.747 0 .099-.113.18-.25.18-.138 0-.25.075-.25.167 0 .092-.15.167-.334.167-.183 0-.333.075-.333.166 0 .092-.152.167-.339.167-.186 0-.381.112-.434.25-.053.138-.275.25-.495.25-.219 0-.399.075-.399.167 0 .091-.262.166-.583.166-.321 0-.583.075-.583.167 0 .103-.889.167-2.334.167-1.444 0-2.333-.064-2.333-.167 0-.092-.263-.167-.583-.167-.321 0-.584-.075-.584-.166 0-.092-.187-.167-.416-.167-.26 0-.417-.094-.417-.25 0-.139-.148-.25-.333-.25-.184 0-.334-.075-.334-.167 0-.091-.08-.166-.178-.166-.194 0-.655-.411-.655-.584 0-.059-.107-.214-.238-.345-.131-.131-.286-.238-.345-.238-.173 0-.584-.461-.584-.655 0-.098-.075-.178-.166-.178-.092 0-.167-.15-.167-.334 0-.185-.111-.333-.25-.333a.25.25 0 01-.25-.25c0-.138-.075-.25-.167-.25-.091 0-.166-.187-.166-.417 0-.229-.075-.416-.167-.416-.092 0-.167-.228-.167-.506 0-.295-.104-.545-.25-.601-.169-.065-.25-.331-.25-.828 0-.403-.075-.732-.166-.732a.167.167 0 01-.167-.166c0-.108 5.318-.18 15.375-.208l15.375-.043.048-1.819c.028-1.097-.021-1.887-.125-1.991-.099-.099-.173-.98-.173-2.056 0-1.563-.043-1.884-.25-1.884-.194 0-.25-.222-.25-1 0-.555-.074-1-.167-1-.091 0-.166-.337-.166-.75 0-.412-.075-.75-.167-.75-.092 0-.167-.337-.167-.75 0-.555-.064-.75-.25-.75-.155 0-.25-.157-.25-.416 0-.229-.075-.417-.166-.417-.092 0-.167-.262-.167-.583 0-.321-.075-.584-.167-.584-.091 0-.166-.152-.166-.338 0-.186-.113-.382-.25-.435a.431.431 0 01-.25-.38c0-.156-.15-.445-.334-.642-.183-.196-.333-.463-.333-.591 0-.129-.187-.374-.417-.547-.229-.172-.419-.426-.422-.565-.006-.28-.382-.835-.566-.835-.148 0-.595-.438-.595-.583 0-.173-.461-.584-.655-.584-.098 0-.178-.157-.178-.349a.444.444 0 00-.334-.436c-.183-.048-.333-.153-.333-.234 0-.081-.08-.147-.179-.147-.194 0-.654-.411-.654-.584s-.461-.583-.655-.583c-.098 0-.179-.075-.179-.167 0-.091-.116-.166-.258-.166-.142 0-.431-.188-.644-.417-.212-.229-.514-.417-.67-.417-.318 0-.761-.381-.761-.654 0-.099-.187-.179-.417-.179-.229 0-.416-.075-.416-.167 0-.091-.15-.166-.334-.166-.183 0-.333-.075-.333-.167 0-.092-.187-.167-.417-.167-.259 0-.416-.094-.416-.25 0-.174-.176-.25-.584-.25-.321 0-.583-.075-.583-.166 0-.092-.263-.167-.583-.167-.321 0-.584-.075-.584-.167 0-.091-.329-.166-.732-.166-.497 0-.763-.081-.828-.25-.074-.194-.398-.25-1.434-.25-.782 0-1.339-.07-1.339-.167 0-.101-.694-.167-1.75-.167S74 15.899 74 16c0 .099-.605.167-1.482.167-1.164 0-1.503.053-1.578.25-.066.171-.334.25-.851.25-.416 0-.756.075-.756.166 0 .092-.262.167-.583.167-.321 0-.583.075-.583.167 0 .091-.188.166-.417.166-.259 0-.417.095-.417.25 0 .139-.148.25-.333.25-.183 0-.333.075-.333.167 0 .092-.188.167-.417.167-.229 0-.417.075-.417.166 0 .092-.187.167-.416.167-.26 0-.417.094-.417.25 0 .139-.148.25-.333.25-.184 0-.334.075-.334.167 0 .091-.08.166-.178.166-.231 0-.655.424-.655.655 0 .098-.153.179-.341.179-.355 0-1.159.688-1.159.992a.172.172 0 01-.169.174c-.308 0-1.831 1.666-1.831 2.003 0 .182-.085.331-.189.331-.275 0-.977.867-.977 1.208-.001.16-.086.292-.191.292-.256 0-.631.514-.638.875-.003.16-.08.291-.172.291-.091 0-.166.188-.166.417 0 .259-.095.417-.25.417-.138 0-.25.145-.25.323 0 .178-.075.37-.167.427-.092.056-.167.248-.167.426s-.075.324-.166.324c-.092 0-.167.262-.167.583 0 .407-.075.583-.25.583-.156 0-.25.158-.25.417 0 .229-.075.417-.167.417-.091 0-.166.337-.166.75 0 .412-.075.75-.167.75-.092 0-.167.375-.167.833 0 .63-.061.833-.25.833-.201 0-.25.26-.25 1.334 0 .777-.069 1.333-.166 1.333-.103 0-.167.833-.167 2.167v2.166h-4.066c-3.46 0-4.079-.037-4.161-.25-.079-.205-.5-.25-2.351-.25h-2.255v.834c0 .629-.061.833-.25.833-.175 0-.25.176-.25.583 0 .321-.075.584-.167.584-.092 0-.167.262-.167.583 0 .321-.075.583-.166.583-.092 0-.167.142-.167.316 0 .173-.113.359-.25.411-.138.053-.25.232-.25.398s-.15.41-.333.542c-.184.132-.334.336-.334.453 0 .118-.08.214-.178.214-.294 0-.655.452-.655.821 0 .238-.107.345-.345.345-.327 0-.822.352-.822.584 0 .173-.46.583-.654.583-.099 0-.179.075-.179.167 0 .091-.142.166-.316.166-.173 0-.358.113-.411.25-.053.138-.248.25-.434.25-.187 0-.339.075-.339.167 0 .092-.187.167-.417.167-.229 0-.416.075-.416.166 0 .092-.188.167-.417.167-.259 0-.417.094-.417.25 0 .185-.194.25-.75.25-.412 0-.75.075-.75.167 0 .104-1.027.166-2.75.166-1.722 0-2.75-.062-2.75-.166 0-.092-.262-.167-.583-.167-.407 0-.583-.075-.583-.25 0-.156-.158-.25-.417-.25-.229 0-.417-.075-.417-.167 0-.091-.23-.166-.512-.166-.51 0-.988-.317-.988-.655 0-.098-.171-.179-.38-.179-.208 0-.488-.15-.62-.333-.132-.183-.333-.333-.448-.333-.114 0-.47-.263-.791-.584-.32-.32-.66-.583-.755-.583a.173.173 0 01-.172-.174c0-.096-.413-.577-.917-1.069s-.917-1.003-.917-1.136c0-.132-.187-.382-.416-.554-.23-.172-.417-.482-.417-.69 0-.207-.075-.377-.167-.377-.091 0-.166-.152-.166-.339 0-.186-.113-.381-.25-.434-.138-.053-.25-.238-.25-.411 0-.174-.075-.316-.167-.316-.092 0-.167-.187-.167-.417 0-.229-.075-.416-.166-.416-.092 0-.167-.182-.167-.405 0-.223-.112-.517-.25-.655-.137-.137-.25-.48-.25-.762 0-.281-.075-.512-.167-.512-.091 0-.166-.262-.166-.583 0-.321-.066-.583-.146-.583-.081 0-.182-.428-.225-.95-.043-.523-.165-.979-.271-1.014-.12-.04-.192-.496-.192-1.217 0-.657-.071-1.153-.166-1.153-.105 0-.167-1.135-.167-3.073 0-1.869.065-3.114.167-3.177.091-.056.166-.579.166-1.162 0-.651.074-1.085.192-1.124.106-.035.228-.491.271-1.014.043-.522.144-.95.225-.95.08 0 .146-.262.146-.583 0-.321.075-.583.166-.583.092 0 .167-.156.167-.346 0-.189.112-.457.25-.595.137-.137.25-.432.25-.655 0-.222.075-.404.167-.404.091 0 .166-.15.166-.334 0-.183.075-.333.167-.333.092 0 .167-.187.167-.417 0-.259.094-.416.25-.416.137 0 .25-.113.25-.25 0-.138.075-.25.166-.25.092 0 .167-.15.167-.334 0-.183.075-.333.167-.333.091 0 .166-.104.166-.232s.113-.276.25-.328a.41.41 0 00.25-.351c0-.141.075-.256.167-.256.092 0 .167-.08.167-.178 0-.194.41-.655.583-.655.139 0 .583-.444.583-.583 0-.173.461-.584.655-.584.098 0 .179-.075.179-.166 0-.092.15-.167.333-.167.185 0 .333-.111.333-.25a.25.25 0 01.25-.25c.138 0 .25-.075.25-.167 0-.091.15-.166.334-.166.183 0 .333-.075.333-.167 0-.092.113-.167.25-.167a.25.25 0 00.25-.25c0-.139.148-.25.333-.25.184 0 .334-.075.334-.166 0-.092.262-.167.583-.167.321 0 .583-.075.583-.167 0-.091.265-.166.589-.166.369 0 .624-.093.684-.25.072-.186.368-.25 1.162-.25.599 0 1.065-.073 1.065-.167 0-.093.445-.167 1-.167.556 0 1 .074 1 .167 0 .095.494.167 1.149.167.868 0 1.173.061 1.245.25.056.146.306.25.601.25.278 0 .505.075.505.166 0 .092.263.167.584.167.32 0 .583.075.583.167 0 .091.188.166.417.166.259 0 .416.095.416.25 0 .138.113.25.25.25.138 0 .25.075.25.167 0 .092.15.167.334.167.183 0 .333.075.333.166 0 .092.112.167.25.167.137 0 .25.078.25.174 0 .226.766.993.992.993.096 0 .175.078.175.174 0 .226.766.992.992.992.096 0 .174.171.174.38s.15.488.334.62c.183.132.333.412.333.62 0 .227.101.38.25.38.156 0 .25.158.25.417 0 .229.075.417.167.417.091 0 .166.262.166.583 0 .321.075.583.167.583.092 0 .167.338.167.75v.75h2.916c1.794 0 2.917-.063 2.917-.163s1.37-.181 3.542-.208l3.541-.045.053-.46c.035-.299-.038-.494-.208-.559-.207-.079-.261-.375-.261-1.416 0-.766-.07-1.315-.167-1.315-.092 0-.167-.258-.167-.574 0-.315-.075-.62-.166-.676-.092-.057-.167-.326-.167-.599 0-.286-.105-.536-.25-.591-.141-.054-.25-.302-.25-.568 0-.26-.075-.519-.167-.576-.091-.056-.166-.248-.166-.426s-.075-.324-.167-.324c-.092 0-.167-.152-.167-.338 0-.186-.112-.382-.25-.435a.433.433 0 01-.25-.38c0-.156-.15-.445-.333-.642-.183-.196-.333-.463-.333-.591 0-.129-.188-.374-.417-.547-.229-.172-.417-.427-.417-.566 0-.14-.261-.478-.579-.752-.319-.274-.582-.592-.584-.707-.002-.115-.082-.208-.178-.208-.226 0-.992-.767-.992-.993A.174.174 0 0047.326 6c-.226 0-.993-.766-.993-.992 0-.096-.096-.175-.213-.175-.117 0-.321-.15-.453-.333-.132-.183-.412-.333-.62-.333-.209 0-.38-.081-.38-.179 0-.294-.453-.655-.822-.655-.19 0-.345-.075-.345-.166 0-.092-.15-.167-.333-.167-.186 0-.334-.111-.334-.25 0-.156-.157-.25-.416-.25-.229 0-.417-.075-.417-.167 0-.091-.187-.166-.417-.166-.229 0-.416-.075-.416-.167 0-.092-.263-.167-.584-.167-.407 0-.583-.075-.583-.25 0-.155-.157-.25-.417-.25-.229 0-.416-.075-.416-.166 0-.092-.338-.167-.75-.167-.413 0-.75-.075-.75-.167 0-.091-.338-.166-.75-.166-.519 0-.75-.07-.75-.225 0-.387-9.655-.604-14.217-.319m168.883 7.46V13h12.5V2.167h-12.5v5.416m193.778-5.305c-.061.061-.111 4.261-.111 9.333s-.058 9.222-.13 9.222c-.071 0-.238-.15-.37-.333-.132-.183-.336-.333-.453-.333-.118 0-.214-.079-.214-.175 0-.226-.766-.992-.992-.992a.177.177 0 01-.174-.179c0-.281-.446-.654-.782-.654-.168 0-.447-.188-.619-.417-.206-.274-.475-.417-.789-.417-.263 0-.477-.075-.477-.166 0-.092-.262-.167-.583-.167-.321 0-.584-.075-.584-.167 0-.091-.34-.166-.755-.166-.517 0-.785-.079-.851-.25-.144-.375-6.56-.375-6.56 0 0 .194-.223.25-1 .25-.556 0-1 .074-1 .166 0 .092-.263.167-.584.167-.321 0-.583.075-.583.167 0 .091-.262.166-.583.166-.408 0-.584.076-.584.25 0 .156-.157.25-.416.25-.229 0-.417.075-.417.167 0 .092-.15.167-.333.167-.184 0-.334.075-.334.166 0 .092-.187.167-.416.167-.229 0-.417.08-.417.179 0 .266-.439.654-.74.654-.145 0-.862.6-1.593 1.334-.732.733-1.406 1.333-1.499 1.333a.171.171 0 00-.168.172c0 .095-.262.435-.583.756-.321.321-.584.659-.584.751 0 .093-.15.329-.333.526-.183.197-.333.494-.333.66 0 .166-.113.302-.25.302-.156 0-.25.157-.25.416 0 .23-.075.417-.167.417-.092 0-.167.15-.167.333 0 .184-.075.334-.166.334-.092 0-.167.187-.167.416 0 .26-.094.417-.25.417s-.25.157-.25.417c0 .229-.075.416-.167.416-.091 0-.166.263-.166.584 0 .321-.075.583-.167.583-.092 0-.167.188-.167.417 0 .259-.094.416-.25.416-.185 0-.25.195-.25.75 0 .413-.075.75-.166.75-.092 0-.167.338-.167.75 0 .413-.075.75-.167.75-.098 0-.166.584-.166 1.417 0 1.148-.048 1.417-.25 1.417-.215 0-.25.518-.25 3.666 0 3.148.035 3.667.25 3.667.198 0 .25.241.25 1.167 0 .666.071 1.166.166 1.166.092 0 .167.338.167.75 0 .413.075.75.167.75.091 0 .166.34.166.756 0 .517.079.785.25.851.138.052.25.238.25.411 0 .174.075.316.167.316.092 0 .167.262.167.583 0 .321.075.583.166.583.092 0 .167.188.167.417 0 .259.094.417.25.417s.25.157.25.416c0 .23.075.417.167.417.091 0 .166.15.166.333 0 .184.075.334.167.334.092 0 .167.112.167.25 0 .137.112.25.25.25.139 0 .25.148.25.333 0 .183.075.333.166.333.092 0 .167.081.167.179 0 .231.424.655.655.655.098 0 .178.153.178.34 0 .447 2.722 3.16 3.169 3.16.182 0 .331.08.331.178 0 .231.424.655.655.655.098 0 .179.075.179.167 0 .091.15.166.333.166.185 0 .333.111.333.25 0 .156.158.25.417.25.229 0 .417.075.417.167 0 .092.187.167.416.167.23 0 .417.075.417.166 0 .092.142.167.316.167.173 0 .358.112.411.25.056.146.306.25.601.25.278 0 .505.075.505.167 0 .092.445.166 1 .166.556 0 1 .074 1 .167 0 .106 1.223.167 3.334.167 2.111 0 3.333-.061 3.333-.167 0-.092.337-.167.75-.167.412 0 .75-.075.75-.166 0-.092.329-.167.732-.167.497 0 .763-.08.828-.25.053-.138.249-.25.435-.25s.338-.075.338-.167c0-.091.188-.166.417-.166.229 0 .417-.075.417-.167 0-.092.139-.167.31-.167.17 0 .45-.187.623-.416.172-.229.45-.417.618-.417.336 0 .782-.374.782-.655 0-.098.16-.178.355-.178.196 0 .506-.169.69-.375.23-.259.357-.31.409-.164.042.116.182.317.311.446.155.155.235.61.235 1.331V61h12.5V2.167h-6.389c-3.514 0-6.439.05-6.5.111M233 8.167v5.666h17.667V61H263.5V13.833h17.167V2.5H233v5.667M125.167 28.25c0 20.704.029 23.417.25 23.417.198 0 .25.24.25 1.166 0 .667.071 1.167.166 1.167.092 0 .167.262.167.583 0 .321.075.584.167.584.091 0 .166.187.166.416 0 .26.095.417.25.417.156 0 .25.157.25.417 0 .229.075.416.167.416.092 0 .167.117.167.26 0 .337 2.069 2.407 2.407 2.407.143 0 .259.075.259.167 0 .091.188.166.417.166.259 0 .417.095.417.25 0 .175.176.25.583.25.321 0 .583.075.583.167 0 .092.333.167.74.167.408 0 .787.075.844.166.065.107 2.335.167 6.26.167h6.156v-9.667h-2.916c-1.834 0-2.917-.062-2.917-.166 0-.092-.263-.167-.583-.167-.408 0-.584-.075-.584-.25 0-.138-.075-.25-.166-.25-.092 0-.167-.15-.167-.333 0-.184-.075-.334-.167-.334-.091 0-.166-.182-.166-.404 0-.223-.113-.518-.25-.655-.217-.217-.25-1.659-.25-10.929V27.167h7.833v-9.334h-7.833v-13h-12.5V28.25M285.333 16c0 .097-.555.167-1.333.167-1.074 0-1.333.048-1.333.25 0 .189-.204.25-.834.25-.458 0-.833.075-.833.166 0 .092-.263.167-.583.167-.321 0-.584.075-.584.167 0 .091-.227.166-.505.166-.295 0-.545.104-.601.25-.053.138-.238.25-.411.25-.174 0-.316.075-.316.167 0 .092-.187.167-.417.167-.229 0-.416.075-.416.166 0 .092-.14.167-.31.167-.171 0-.451.188-.623.417-.172.229-.451.416-.619.416-.302 0-.782.365-.782.595 0 .174-.548.561-.803.567-.267.006-.697.413-.697.66a.18.18 0 01-.183.178c-.238 0-1.15.977-1.15 1.231 0 .108-.15.304-.333.436-.184.132-.334.336-.334.453 0 .118-.08.214-.178.214-.281 0-.655.446-.655.782 0 .168-.187.446-.417.618-.229.172-.416.453-.416.623 0 .171-.075.31-.167.31-.092 0-.167.15-.167.333 0 .184-.075.334-.166.334-.092 0-.167.187-.167.416 0 .26-.094.417-.25.417s-.25.157-.25.417c0 .229-.075.416-.167.416-.091 0-.166.15-.166.334 0 .183-.075.333-.167.333-.092 0-.167.179-.167.399 0 .219-.112.442-.25.495-.146.056-.25.305-.25.601 0 .278-.075.505-.166.505-.092 0-.167.375-.167.833 0 .459-.075.834-.167.834-.091 0-.166.412-.166.916 0 .704-.058.917-.25.917-.217 0-.25.63-.25 4.667s.033 4.666.25 4.666c.194 0 .25.223.25 1 0 .556.074 1 .166 1 .092 0 .167.263.167.584 0 .32.075.583.167.583.091 0 .166.262.166.583 0 .408.076.584.25.584.175 0 .25.176.25.583 0 .321.075.583.167.583.092 0 .167.188.167.417 0 .229.075.417.166.417.092 0 .167.152.167.338 0 .186.112.382.25.435.137.052.25.238.25.411 0 .174.075.316.167.316.091 0 .166.155.166.345 0 .369.361.821.655.821.098 0 .179.157.179.348 0 .191.262.602.583.913.321.312.583.652.583.755 0 .271 2.921 3.151 3.196 3.151.127 0 .339.15.471.333.132.184.336.334.453.334.118 0 .214.112.214.25 0 .139.148.25.333.25.183 0 .333.075.333.166 0 .092.188.167.417.167.229 0 .417.075.417.167 0 .091.187.166.416.166.26 0 .417.095.417.25 0 .139.148.25.333.25.184 0 .334.075.334.167 0 .092.187.167.416.167.23 0 .417.075.417.166 0 .092.262.167.583.167.408 0 .584.075.584.25 0 .185.194.25.75.25.412 0 .75.075.75.167 0 .092.444.166 1 .166.555 0 1 .074 1 .167 0 .106 1.361.167 3.75.167 2.389 0 3.75-.061 3.75-.167 0-.094.469-.167 1.073-.167.591 0 1.12-.075 1.177-.166.056-.092.401-.167.765-.167.434 0 .695-.086.758-.25.059-.154.312-.25.661-.25.311 0 .566-.075.566-.167 0-.091.187-.166.416-.166.23 0 .417-.075.417-.167 0-.092.227-.167.505-.167.296 0 .545-.104.601-.25.053-.137.238-.25.412-.25.173 0 .315-.075.315-.166 0-.092.16-.167.356-.167.196 0 .53-.187.742-.417.213-.229.502-.416.644-.416.142 0 .258-.063.258-.139 0-.076.188-.239.417-.361.229-.123.417-.291.417-.374 0-.26.463-.626.793-.626.174 0 .417-.188.54-.417.123-.229.275-.417.339-.417.246 0 .994-.894.994-1.189 0-.171.081-.311.179-.311.231 0 .655-.424.655-.654 0-.099.075-.179.166-.179.092 0 .167-.15.167-.333 0-.186.111-.334.25-.334a.25.25 0 00.25-.25c0-.137.075-.25.167-.25.091 0 .166-.15.166-.333 0-.183.075-.333.167-.333.092 0 .167-.113.167-.25a.25.25 0 01.25-.25c.137 0 .25-.146.25-.324 0-.178.075-.37.166-.426.092-.057.167-.249.167-.427s.075-.323.167-.323c.091 0 .166-.18.166-.399 0-.22.113-.442.25-.495.181-.069.25-.352.25-1.018 0-.708-.058-.922-.25-.922-.137 0-.25-.075-.25-.166 0-.104-.889-.167-2.333-.167-1.444 0-2.333-.063-2.333-.167 0-.103-.883-.166-2.316-.166-1.904 0-2.332-.045-2.411-.25-.135-.35-2.607-.367-2.607-.018 0 .128-.112.275-.25.328-.137.053-.25.248-.25.434 0 .187-.075.339-.166.339-.092 0-.167.121-.167.27 0 .148-.338.593-.75.989-.413.395-.75.798-.75.896 0 .098-.113.178-.25.178-.138 0-.25.075-.25.167 0 .092-.15.167-.333.167-.184 0-.334.075-.334.166 0 .092-.112.167-.25.167a.25.25 0 00-.25.25c0 .175-.176.25-.583.25-.321 0-.583.075-.583.167 0 .091-.221.166-.49.166-.27 0-.537.075-.594.167-.06.097-1.001.167-2.26.167-1.326 0-2.156-.064-2.156-.167 0-.092-.263-.167-.584-.167-.321 0-.583-.075-.583-.166 0-.092-.263-.167-.583-.167-.321 0-.584-.08-.584-.179 0-.27-.44-.654-.75-.654-.269 0-.75-.374-.75-.584 0-.173-.46-.583-.654-.583-.099 0-.179-.113-.179-.25 0-.138-.075-.25-.167-.25-.091 0-.166-.123-.166-.273 0-.149-.188-.446-.417-.658-.229-.213-.417-.502-.417-.644 0-.142-.075-.258-.166-.258-.092 0-.167-.188-.167-.417 0-.229-.075-.417-.167-.417-.091 0-.166-.227-.166-.505 0-.295-.104-.545-.25-.601-.17-.065-.25-.331-.25-.828v-.732h30.5v-2.75c0-1.723-.063-2.75-.167-2.75-.099 0-.167-.613-.167-1.506 0-1.184-.053-1.525-.25-1.601-.179-.069-.25-.349-.25-.994 0-.495-.075-.899-.166-.899-.092 0-.167-.258-.167-.574 0-.315-.075-.62-.167-.676-.091-.057-.166-.326-.166-.599 0-.286-.106-.536-.25-.591-.141-.054-.25-.302-.25-.568 0-.26-.075-.519-.167-.576-.092-.056-.167-.248-.167-.426s-.075-.324-.166-.324c-.092 0-.167-.187-.167-.416 0-.26-.094-.417-.25-.417s-.25-.157-.25-.417c0-.229-.075-.416-.167-.416-.091 0-.166-.123-.166-.273 0-.15-.188-.446-.417-.659-.229-.212-.417-.502-.417-.644 0-.142-.075-.258-.166-.258-.092 0-.167-.08-.167-.178 0-.231-.424-.655-.655-.655-.098 0-.178-.131-.179-.292 0-.34-.702-1.208-.977-1.208a.184.184 0 01-.189-.179c0-.194-.41-.654-.583-.654s-.584-.461-.584-.655c0-.098-.15-.179-.333-.179-.183 0-.333-.075-.333-.166 0-.092-.095-.167-.211-.167-.116 0-.351-.187-.523-.417-.172-.229-.436-.416-.586-.416-.15 0-.382-.15-.514-.334-.132-.183-.411-.333-.62-.333-.226 0-.38-.101-.38-.25 0-.156-.157-.25-.416-.25-.229 0-.417-.075-.417-.167 0-.091-.15-.166-.333-.166-.184 0-.334-.075-.334-.167 0-.092-.187-.167-.416-.167-.26 0-.417-.094-.417-.25 0-.174-.176-.25-.583-.25-.321 0-.584-.075-.584-.166 0-.092-.262-.167-.583-.167-.321 0-.583-.075-.583-.167 0-.091-.33-.166-.733-.166-.497 0-.762-.081-.828-.25-.074-.194-.398-.25-1.434-.25-.781 0-1.339-.07-1.339-.167 0-.101-.694-.167-1.75-.167-1.055 0-1.75.066-1.75.167m43.417 0c-.057.092-.699.167-1.427.167-1.065 0-1.323.048-1.323.25 0 .185-.194.25-.75.25-.413 0-.75.075-.75.166 0 .092-.263.167-.583.167-.321 0-.584.075-.584.167 0 .091-.187.166-.416.166-.26 0-.417.095-.417.25 0 .175-.176.25-.583.25-.321 0-.584.075-.584.167 0 .092-.112.167-.25.167-.137 0-.25.075-.25.166 0 .092-.15.167-.333.167-.185 0-.333.111-.333.25 0 .149-.154.25-.38.25-.209 0-.488.15-.62.333-.132.184-.364.334-.514.334-.15 0-.414.187-.586.416-.172.23-.375.417-.452.417-.163 0-.615.428-.615.583 0 .139-.444.584-.583.584-.139 0-.584.444-.584.583 0 .145-.447.583-.594.583-.185 0-.561.555-.567.836-.003.138-.193.393-.422.565-.229.172-.417.436-.417.586 0 .15-.15.381-.333.513-.183.132-.333.412-.333.62 0 .227-.101.38-.25.38-.156 0-.25.158-.25.417 0 .229-.075.417-.167.417-.092 0-.167.15-.167.333 0 .183-.073.333-.163.333-.09 0-.211.188-.268.417-.058.229-.172.417-.253.417-.082 0-.149.187-.149.416 0 .23-.075.417-.167.417-.091 0-.166.254-.166.566 0 .348-.096.602-.25.661-.146.056-.25.306-.25.601 0 .278-.075.505-.167.505-.092 0-.167.338-.167.75 0 .413-.075.75-.166.75-.095 0-.167.494-.167 1.149 0 .868-.061 1.173-.25 1.245-.211.081-.25.621-.25 3.44 0 2.818.039 3.359.25 3.439.189.073.25.378.25 1.245 0 .655.072 1.149.167 1.149.091 0 .166.333.166.74s.075.787.167.843c.092.057.167.281.167.498 0 .217.112.508.25.645.137.138.25.368.25.512 0 .144.075.262.166.262.092 0 .167.262.167.583 0 .321.074.584.163.584.09 0 .211.187.269.416.057.23.171.417.253.417.081 0 .148.188.148.417 0 .229.075.416.167.416.092 0 .167.15.167.334 0 .185.111.333.25.333a.25.25 0 01.25.25c0 .137.075.25.166.25.092 0 .169.131.172.292.007.36.382.875.638.875.105 0 .19.131.191.291 0 .341.702 1.209.977 1.209.104 0 .189.078.189.174 0 .226.766.992.992.992.096 0 .175.079.175.175 0 .226.766.992.992.992.096 0 .174.085.174.189 0 .275.868.977 1.209.977.16.001.291.086.291.191 0 .256.515.631.875.638.161.003.292.08.292.172 0 .091.188.166.417.166.259 0 .416.095.416.25 0 .138.146.25.324.25.178 0 .37.075.426.167.057.092.324.167.594.167.269 0 .49.075.49.166 0 .092.265.167.588.167.37 0 .625.093.685.25.059.154.312.25.661.25.311 0 .566.075.566.167 0 .091.412.166.916.166s.917.075.917.167c0 .106 1.361.167 3.75.167 2.389 0 3.75-.061 3.75-.167 0-.095.5-.167 1.167-.167.666 0 1.166-.071 1.166-.166 0-.092.338-.167.75-.167.556 0 .75-.065.75-.25 0-.175.176-.25.584-.25.32 0 .583-.075.583-.167 0-.091.262-.166.583-.166.321 0 .584-.075.584-.167 0-.092.187-.167.416-.167.26 0 .417-.094.417-.25 0-.155.157-.25.417-.25.229 0 .416-.075.416-.166 0-.092.15-.167.334-.167.183 0 .333-.075.333-.167 0-.091.139-.166.31-.166.17 0 .451-.188.623-.417.172-.229.407-.417.523-.417.116 0 .211-.075.211-.166 0-.092.115-.167.255-.167s.298-.113.351-.25c.053-.138.166-.25.252-.25.213 0 .975-.776.975-.992 0-.096.078-.175.174-.175.226 0 .993-.766.993-.992 0-.096.085-.174.189-.174.275 0 .977-.868.977-1.209 0-.16.086-.291.19-.291.256 0 .632-.515.638-.875.003-.161.118-.292.256-.292.137 0 .25-.113.25-.25 0-.138.075-.25.166-.25.092 0 .167-.15.167-.333 0-.184.075-.334.167-.334.091 0 .166-.179.166-.399 0-.219.113-.442.25-.494.138-.053.25-.249.25-.435s.075-.338.167-.338c.092 0 .167-.263.167-.584 0-.321.075-.583.166-.583.092 0 .167-.263.167-.583 0-.467-.065-.584-.323-.584-.178 0-.37-.075-.427-.166-.061-.099-1.057-.167-2.427-.167-1.437 0-2.323-.064-2.323-.167 0-.103-.889-.166-2.333-.166-1.963 0-2.334-.04-2.334-.25 0-.197-.23-.25-1.069-.25-1.285 0-1.597.101-1.597.517 0 .174-.075.316-.167.316-.092 0-.167.188-.167.417 0 .229-.08.416-.178.416-.27 0-.655.441-.655.75 0 .31-.385.75-.655.75-.098 0-.178.113-.178.25 0 .139-.148.25-.334.25-.183 0-.333.075-.333.167 0 .092-.113.167-.25.167-.138 0-.25.075-.25.166 0 .092-.142.167-.316.167-.173 0-.358.112-.411.25-.053.137-.248.25-.434.25-.187 0-.339.075-.339.167 0 .091-.263.166-.583.166-.321 0-.584.075-.584.167 0 .103-.889.167-2.333.167-1.444 0-2.333-.064-2.333-.167 0-.092-.263-.167-.584-.167-.321 0-.583-.075-.583-.166 0-.092-.187-.167-.417-.167-.259 0-.416-.094-.416-.25 0-.142-.15-.25-.348-.25-.202 0-.723-.384-1.243-.917-.492-.504-.973-.916-1.069-.916-.095 0-.174-.096-.174-.214 0-.117-.15-.321-.333-.453-.183-.132-.333-.411-.333-.62 0-.227-.101-.38-.25-.38-.138 0-.25-.146-.25-.323 0-.178-.075-.37-.167-.427-.092-.057-.167-.249-.167-.427 0-.177-.075-.323-.166-.323-.092 0-.167-.34-.167-.755 0-.518-.079-.786-.25-.851-.138-.053-.25-.238-.25-.412 0-.307.398-.315 15.25-.315h15.25v-3.5c0-2.223-.061-3.5-.167-3.5-.095 0-.166-.5-.166-1.167s-.072-1.167-.167-1.167c-.092 0-.167-.369-.167-.821 0-.508-.095-.917-.25-1.072-.137-.137-.25-.48-.25-.761 0-.282-.075-.512-.166-.512-.092 0-.167-.263-.167-.584 0-.321-.075-.583-.167-.583-.091 0-.166-.152-.166-.339 0-.186-.113-.381-.25-.434-.138-.053-.25-.275-.25-.495 0-.219-.075-.399-.167-.399-.092 0-.167-.15-.167-.333 0-.185-.111-.333-.25-.333-.155 0-.25-.158-.25-.417 0-.229-.075-.417-.166-.417-.092 0-.169-.131-.172-.291-.006-.312-.371-.875-.567-.875-.219 0-.595-.474-.595-.75 0-.31-.384-.75-.654-.75a.177.177 0 01-.179-.175c0-.226-.766-.992-.992-.992a.175.175 0 01-.175-.174c0-.226-.766-.993-.992-.993-.096 0-.174-.085-.174-.189 0-.275-.868-.977-1.209-.977-.16 0-.291-.086-.291-.19 0-.236-.504-.631-.815-.638-.127-.003-.404-.193-.617-.422-.212-.229-.502-.417-.644-.417-.142 0-.258-.075-.258-.167 0-.091-.187-.166-.416-.166-.229 0-.417-.075-.417-.167 0-.092-.187-.167-.417-.167-.259 0-.416-.094-.416-.25 0-.165-.166-.25-.49-.25-.27 0-.537-.075-.594-.166-.056-.092-.361-.167-.676-.167-.316 0-.574-.075-.574-.167 0-.091-.337-.166-.75-.166-.555 0-.75-.065-.75-.25 0-.202-.258-.25-1.323-.25-.728 0-1.37-.075-1.427-.167-.058-.095-.887-.167-1.916-.167-1.03 0-1.859.072-1.917.167m-166.023.417c-.072.188-.377.25-1.245.25-.655 0-1.149.071-1.149.166 0 .092-.337.167-.75.167-.412 0-.75.075-.75.167 0 .091-.262.166-.583.166-.407 0-.583.076-.583.25 0 .175-.176.25-.584.25-.321 0-.583.075-.583.167 0 .092-.187.167-.417.167-.229 0-.416.075-.416.166 0 .092-.132.167-.294.167-.161 0-.517.261-.791.58-.274.319-.596.581-.715.583-.291.005-1.699 1.364-1.7 1.641 0 .265-.406.696-.655.696-.098 0-.179.171-.179.38s-.15.488-.333.62c-.183.132-.333.411-.333.62 0 .227-.101.38-.25.38-.175 0-.25.176-.25.583 0 .321-.075.584-.167.584-.092 0-.167.256-.167.569 0 .313-.082.597-.183.631-.1.033-.223.414-.271.847-.049.432-.154.786-.234.786-.08 0-.145.864-.145 1.919v1.919l5.458-.044 5.459-.044.049-1.125c.027-.619.121-1.125.208-1.125.088 0 .159-.187.159-.417 0-.229.075-.416.167-.416.092 0 .167-.188.167-.417 0-.229.096-.417.213-.417.117 0 .321-.15.453-.333.132-.183.364-.333.514-.333.15 0 .414-.188.586-.417.172-.229.482-.417.69-.417.207 0 .377-.075.377-.166 0-.092.337-.167.75-.167.556 0 .75-.065.75-.25 0-.208.333-.25 2-.25s2 .042 2 .25c0 .185.194.25.75.25.412 0 .75.075.75.167 0 .091.188.166.417.166.229 0 .416.075.416.167 0 .092.111.167.247.167.32 0 2.087 1.766 2.087 2.087 0 .135.075.246.166.246.313 0 .193 1.522-.142 1.814a1.678 1.678 0 00-.428.644c-.069.219-.253.375-.441.375-.177 0-.322.059-.322.131 0 .206-.931.703-1.317.703-.192 0-.35.075-.35.166 0 .092-.337.167-.75.167-.412 0-.75.075-.75.167 0 .095-.5.166-1.166.166-.926 0-1.167.052-1.167.25 0 .199-.241.25-1.167.25-.666 0-1.166.072-1.166.167 0 .095-.5.167-1.167.167s-1.167.071-1.167.166c0 .093-.444.167-1 .167-.777 0-1 .056-1 .25 0 .192-.212.25-.906.25-.499 0-.954.075-1.01.167-.057.091-.361.166-.677.166-.315 0-.573.075-.573.167 0 .092-.263.167-.584.167-.407 0-.583.075-.583.25 0 .174-.176.25-.583.25-.321 0-.584.075-.584.166 0 .092-.15.167-.333.167-.183 0-.333.075-.333.167 0 .091-.188.166-.417.166-.259 0-.417.095-.417.25 0 .149-.153.25-.38.25-.208 0-.488.15-.62.334-.132.183-.411.333-.62.333-.209 0-.38.078-.38.174 0 .226-.766.993-.992.993-.096 0-.174.085-.174.189 0 .199-.829.977-1.042.977-.069 0-.125.095-.125.211 0 .116-.187.351-.417.523-.229.172-.416.436-.416.586 0 .15-.15.382-.334.514-.183.132-.333.403-.333.602 0 .199-.113.405-.25.458-.146.056-.25.306-.25.601 0 .278-.075.505-.167.505-.091 0-.166.263-.166.584 0 .32-.075.583-.167.583-.105 0-.167 1.083-.167 2.917 0 1.833.062 2.916.167 2.916.092 0 .167.338.167.75 0 .413.075.75.166.75.092 0 .167.153.167.339 0 .186.112.382.25.434.137.053.25.276.25.495 0 .22.075.399.167.399.091 0 .166.122.166.272 0 .15.263.52.584.822.32.303.583.636.583.741 0 .269 1.426 1.665 1.7 1.665.125 0 .335.15.467.333.132.184.336.334.453.334.117 0 .213.112.213.25 0 .139.148.25.334.25.183 0 .333.075.333.166 0 .092.188.167.417.167.229 0 .416.075.416.167 0 .091.188.166.417.166.259 0 .417.095.417.25 0 .139.148.25.333.25.183 0 .333.075.333.167 0 .092.258.167.574.167.315 0 .62.075.676.166.057.092.511.167 1.01.167.695 0 .907.058.907.25 0 .216.646.25 4.816.25 4.126 0 4.829-.036 4.911-.25.06-.157.315-.25.684-.25.324 0 .589-.075.589-.167 0-.091.262-.166.583-.166.321 0 .584-.075.584-.167 0-.092.15-.167.333-.167.185 0 .333-.111.333-.25 0-.149.154-.25.38-.25.209 0 .488-.15.62-.333.132-.183.364-.333.514-.333.15 0 .414-.188.586-.417.172-.229.38-.417.463-.417.223 0 .593-.54.599-.875.01-.593.304-.267.413.459.062.412.183.75.269.75.086 0 .156.262.156.583 0 .321.075.583.167.583.092 0 .167.188.167.417 0 .259.094.417.25.417.137 0 .25.075.25.166 0 .108 2.166.167 6.166.167 6.056 0 6.167-.006 6.167-.333 0-.184-.075-.334-.167-.334-.091 0-.166-.08-.166-.178 0-.231-.424-.655-.655-.655-.098 0-.179-.187-.179-.417 0-.229-.075-.416-.166-.416-.092 0-.167-.263-.167-.584 0-.321-.075-.583-.167-.583-.109 0-.166-4.439-.166-12.982 0-11.386-.031-12.994-.25-13.078-.199-.077-.25-.435-.25-1.758 0-.929-.074-1.708-.167-1.765-.092-.057-.167-.436-.167-.844 0-.407-.075-.74-.166-.74-.092 0-.167-.262-.167-.583 0-.407-.075-.583-.25-.583-.156 0-.25-.158-.25-.417 0-.229-.075-.417-.167-.417-.091 0-.166-.15-.166-.333 0-.183-.075-.333-.167-.333-.092 0-.167-.188-.167-.417 0-.229-.08-.417-.178-.417-.27 0-.655-.44-.655-.75 0-.309-.385-.75-.655-.75-.098 0-.178-.085-.178-.189 0-.275-.868-.977-1.209-.977-.16 0-.291-.081-.291-.179 0-.231-.424-.655-.655-.655-.098 0-.179-.075-.179-.166 0-.092-.142-.167-.315-.167-.174 0-.359-.113-.412-.25-.052-.138-.248-.25-.434-.25s-.339-.075-.339-.167c0-.091-.187-.166-.416-.166-.229 0-.417-.075-.417-.167 0-.092-.263-.167-.583-.167-.408 0-.584-.075-.584-.25 0-.174-.176-.25-.583-.25-.321 0-.583-.075-.583-.166 0-.092-.338-.167-.75-.167-.413 0-.75-.075-.75-.167 0-.095-.5-.166-1.167-.166-.926 0-1.167-.052-1.167-.25 0-.216-.584-.25-4.255-.25-3.629 0-4.269.036-4.351.25m-44.56.416c0 .092-.338.167-.75.167-.413 0-.75.075-.75.167 0 .091-.188.166-.417.166-.259 0-.417.095-.417.25 0 .156-.157.25-.416.25-.229 0-.417.075-.417.167 0 .092-.15.167-.333.167-.184 0-.334.075-.334.166 0 .092-.112.167-.25.167-.137 0-.25.078-.25.174 0 .226-.766.993-.992.993-.096 0-.174.112-.174.25 0 .137-.075.25-.167.25-.092 0-.167.111-.167.248 0 .271-.496.918-.703.918-.072 0-.13-.375-.13-.833 0-.458-.075-.833-.167-.833-.091 0-.166-.413-.166-.917v-.917H99V61h12.5V49.75c0-7.389.057-11.25.167-11.25.098 0 .166-.583.166-1.417 0-1.148.048-1.416.25-1.416.175 0 .25-.176.25-.584 0-.321.075-.583.167-.583.092 0 .167-.263.167-.583 0-.408.075-.584.25-.584.149 0 .25-.153.25-.38 0-.208.15-.488.333-.62.183-.132.333-.411.333-.62 0-.209.079-.38.175-.38.226 0 .992-.766.992-.992 0-.096.096-.174.213-.174.117 0 .322-.15.454-.334.132-.183.339-.333.461-.333s.395-.187.607-.417c.213-.229.547-.416.742-.416.196 0 .356-.075.356-.167 0-.092.263-.167.584-.167.407 0 .583-.075.583-.25 0-.21.37-.25 2.333-.25h2.334V17h-.584c-.32 0-.583-.075-.583-.167 0-.102-.833-.166-2.167-.166-1.333 0-2.166.064-2.166.166m110.5.334c0 .095-.5.166-1.167.166-.926 0-1.167.052-1.167.25 0 .186-.194.25-.75.25-.412 0-.75.075-.75.167 0 .092-.187.167-.416.167-.229 0-.417.075-.417.166 0 .092-.116.167-.258.167-.142 0-.432.188-.644.417-.212.229-.49.419-.617.422-.264.006-.814.389-.814.566 0 .148-.439.595-.584.595-.139 0-.583.444-.583.583 0 .173-.461.584-.655.584-.107 0-.178-.4-.178-1 0-.556-.074-1-.167-1-.092 0-.167-.413-.167-.917v-.917h-12.166V61h12.5V48.768c0-10.719.031-12.244.25-12.328.187-.072.25-.371.25-1.185 0-.614.072-1.088.166-1.088.092 0 .167-.263.167-.584 0-.321.075-.583.167-.583.091 0 .166-.179.166-.399 0-.219.113-.442.25-.495.138-.052.25-.231.25-.397s.15-.41.334-.542c.183-.132.333-.412.333-.62 0-.227.101-.38.25-.38.137 0 .25-.075.25-.167 0-.092.15-.167.333-.167.184 0 .334-.075.334-.166 0-.092.112-.167.25-.167.137 0 .25-.113.25-.25 0-.139.148-.25.333-.25.183 0 .333-.075.333-.167 0-.092.445-.166 1-.166.556 0 1-.074 1-.167 0-.093.445-.167 1-.167.556 0 1 .074 1 .167 0 .092.263.167.584.167.32 0 .583.075.583.166 0 .092.188.167.417.167.259 0 .416.094.416.25 0 .139.148.25.334.25.183 0 .333.075.333.167 0 .091.08.166.179.166.294 0 .654.453.654.822 0 .19.075.345.167.345.092 0 .167.152.167.339 0 .186.112.381.25.434.137.053.25.238.25.411 0 .174.075.316.166.316.093 0 .167.444.167 1s.074 1 .167 1c.109 0 .166 4.528.166 13.25V61h12.5V45.417c0-10.278-.056-15.584-.166-15.584-.093 0-.167-.444-.167-1 0-.555-.074-1-.167-1-.091 0-.166-.227-.166-.505 0-.295-.104-.545-.25-.601-.155-.059-.25-.313-.25-.661 0-.312-.075-.566-.167-.566-.092 0-.167-.15-.167-.333 0-.184-.075-.334-.166-.334-.092 0-.167-.187-.167-.416 0-.26-.094-.417-.25-.417-.149 0-.25-.153-.25-.38 0-.209-.15-.488-.333-.62-.184-.132-.334-.335-.334-.452 0-.3-2.611-2.881-2.915-2.881-.138 0-.251-.075-.251-.167 0-.092-.113-.167-.25-.167-.138 0-.25-.075-.25-.166 0-.092-.142-.167-.316-.167-.173 0-.359-.113-.411-.25-.056-.146-.306-.25-.601-.25-.278 0-.506-.075-.506-.167 0-.091-.187-.166-.416-.166-.229 0-.417-.075-.417-.167 0-.092-.329-.167-.732-.167-.497 0-.763-.08-.828-.25-.075-.193-.399-.25-1.435-.25-.781 0-1.338-.069-1.338-.166 0-.101-.695-.167-1.75-.167-1.056 0-1.75.066-1.75.167m-37.834 22.25V61h12.5V17.833h-12.5v21.584M78 26.5c0 .092.337.167.75.167.556 0 .75.064.75.25 0 .138.148.25.331.25.372 0 3.502 3.034 3.502 3.395 0 .124.188.365.417.538.295.221.417.471.417.856 0 .299.075.544.166.544.092 0 .167.188.167.417v.416H67.833v-.75c0-.412.075-.75.167-.75.092 0 .167-.187.167-.416 0-.229.075-.417.166-.417.092 0 .167-.187.167-.417 0-.229.078-.416.174-.416.304 0 .993-.805.993-1.159 0-.188.08-.341.178-.341.231 0 .655-.424.655-.655 0-.098.171-.179.38-.179s.488-.15.62-.333c.132-.183.376-.333.542-.333.166 0 .345-.113.398-.25.059-.155.312-.25.661-.25.311 0 .566-.075.566-.167 0-.103.833-.167 2.166-.167 1.334 0 2.167.064 2.167.167m211.333 0c0 .092.338.167.75.167.556 0 .75.064.75.25 0 .149.154.25.38.25.209 0 .488.15.62.333.132.183.412.333.62.333.209 0 .38.079.38.175 0 .226.767.992.993.992.096 0 .174.113.174.25s.075.25.167.25c.091 0 .166.15.166.333 0 .184.075.334.167.334.092 0 .167.112.167.25 0 .137.112.25.25.25.139 0 .25.148.25.333 0 .183.075.333.166.333.092 0 .167.188.167.417 0 .229.075.417.167.417.091 0 .166.262.166.583v.583h-16.666v-.583c0-.321.075-.583.166-.583.092 0 .167-.188.167-.417 0-.229.075-.417.167-.417.091 0 .166-.142.166-.315 0-.174.113-.359.25-.412.138-.052.25-.231.25-.397s.15-.41.334-.542c.183-.132.333-.337.333-.454 0-.117.056-.213.125-.213.213-.001 1.042-.778 1.042-.978 0-.104.096-.189.213-.189.117 0 .321-.15.453-.333.132-.183.412-.333.62-.333.227 0 .38-.101.38-.25 0-.186.195-.25.75-.25.413 0 .75-.075.75-.167 0-.102.778-.167 2-.167 1.223 0 2 .065 2 .167m43.667 0c0 .092.254.167.566.167.348 0 .602.095.661.25.053.137.248.25.434.25.187 0 .339.075.339.166 0 .092.15.167.333.167.184 0 .334.075.334.167 0 .091.112.166.25.166.137 0 .25.081.25.179 0 .194.41.655.583.655.139 0 .583.444.583.583 0 .139.445.583.584.583.232 0 .583.495.583.822 0 .19.075.345.167.345.091 0 .166.188.166.417 0 .259.095.416.25.416.139 0 .25.148.25.334 0 .183.075.333.167.333.092 0 .167.188.167.417v.416h-8.584c-5.611 0-8.583-.057-8.583-.166 0-.092.075-.167.167-.167.091 0 .166-.263.166-.583 0-.321.075-.584.167-.584.092 0 .167-.187.167-.416 0-.26.094-.417.25-.417.149 0 .25-.153.25-.38 0-.209.15-.488.333-.62.183-.132.333-.411.333-.62 0-.209.082-.38.182-.38.1 0 .509-.338.91-.75.401-.413.84-.75.976-.75.135 0 .292-.075.349-.167.057-.091.249-.166.427-.166.177 0 .323-.113.323-.25 0-.175.176-.25.583-.25.321 0 .584-.075.584-.167 0-.103.833-.167 2.166-.167 1.334 0 2.167.064 2.167.167m44.167.417c0 .174.176.25.583.25.321 0 .583.075.583.166 0 .092.188.167.417.167.229 0 .417.075.417.167 0 .091.142.166.315.166.174 0 .359.113.412.25.052.138.231.25.397.25s.41.15.542.334c.132.183.337.333.454.333.117 0 .213.078.213.174 0 .226.766.993.992.993.096 0 .175.187.175.416 0 .23.075.417.166.417.092 0 .167.188.167.417 0 .229.075.416.167.416.091 0 .166.15.166.334 0 .185.111.333.25.333.174 0 .25.175.25.573 0 .316.075.62.167.677.092.057.167.436.167.843s.075.74.166.74c.106 0 .167 1.223.167 3.334 0 2.111-.061 3.333-.167 3.333-.091 0-.166.337-.166.75s-.075.75-.167.75c-.092 0-.167.329-.167.732 0 .497-.08.763-.25.828-.137.053-.25.249-.25.435s-.075.338-.166.338c-.092 0-.167.188-.167.417 0 .229-.075.417-.167.417-.091 0-.166.116-.166.258 0 .142-.188.431-.417.644-.229.212-.417.509-.417.658 0 .15-.075.273-.166.273-.092 0-.167.112-.167.25 0 .142-.149.25-.345.25-.369 0-.822.361-.822.655 0 .098-.112.178-.25.178-.137 0-.25.075-.25.167 0 .092-.15.167-.333.167-.183 0-.333.075-.333.166 0 .092-.263.167-.584.167-.407 0-.583.075-.583.25s-.176.25-.583.25c-.321 0-.584.075-.584.167 0 .096-.527.166-1.25.166-.722 0-1.25-.07-1.25-.166 0-.092-.337-.167-.75-.167-.555 0-.75-.065-.75-.25 0-.156-.157-.25-.416-.25-.229 0-.417-.075-.417-.167 0-.091-.15-.166-.333-.166-.184 0-.334-.075-.334-.167 0-.092-.112-.167-.25-.167a.25.25 0 01-.25-.25c0-.139-.148-.25-.333-.25-.183 0-.333-.075-.333-.166 0-.092-.113-.167-.25-.167-.143 0-.25-.15-.25-.347 0-.191-.263-.602-.584-.914-.321-.312-.583-.68-.583-.819 0-.14-.075-.253-.167-.253-.091 0-.166-.188-.166-.417 0-.229-.075-.417-.167-.417-.092 0-.167-.152-.167-.338 0-.186-.112-.382-.25-.435-.154-.059-.25-.312-.25-.661 0-.311-.075-.566-.166-.566-.092 0-.167-.412-.167-.916 0-.505-.075-.917-.167-.917-.105 0-.166-1.111-.166-3s.061-3 .166-3c.092 0 .167-.413.167-.917s.075-.916.167-.916c.091 0 .166-.255.166-.566 0-.349.096-.602.25-.661.146-.056.25-.306.25-.601 0-.278.075-.506.167-.506.092 0 .167-.169.167-.377 0-.207.187-.517.416-.69.23-.172.417-.436.417-.586 0-.15.15-.381.333-.513.184-.132.334-.337.334-.454 0-.117.171-.213.38-.213.208 0 .488-.15.62-.333.132-.184.336-.334.453-.334.117 0 .213-.112.213-.25 0-.139.148-.25.334-.25.183 0 .333-.075.333-.166 0-.092.188-.167.417-.167.229 0 .416-.075.416-.167 0-.091.338-.166.75-.166.556 0 .75-.065.75-.25 0-.203.269-.25 1.417-.25 1.148 0 1.417.047 1.417.25M174 43.073c0 1.87-.065 3.114-.167 3.177-.091.057-.166.319-.166.583 0 .265-.071.524-.156.577-.177.109-.678 1.063-.678 1.29 0 .082-.187.336-.416.565-.229.229-.417.494-.417.588 0 .228-.429.647-.663.647-.102 0-.36.188-.572.417-.213.229-.547.416-.742.416-.196 0-.356.075-.356.167 0 .092-.228.167-.506.167-.295 0-.545.104-.601.25-.065.169-.331.25-.828.25-.403 0-.732.075-.732.166 0 .103-.833.167-2.167.167-1.333 0-2.166-.064-2.166-.167 0-.091-.263-.166-.584-.166-.407 0-.583-.076-.583-.25 0-.149-.153-.25-.38-.25-.209 0-.488-.15-.62-.334-.132-.183-.411-.333-.62-.333-.284 0-.38-.096-.38-.38 0-.209-.15-.488-.333-.62-.184-.132-.334-.411-.334-.62 0-.227-.101-.38-.25-.38-.198 0-.25-.241-.25-1.167s.052-1.166.25-1.166c.149 0 .25-.154.25-.38 0-.209.15-.488.334-.62.183-.132.333-.337.333-.454 0-.117.078-.213.174-.213.226 0 .993-.766.993-.992 0-.096.187-.175.416-.175.23 0 .417-.075.417-.166 0-.092.188-.167.417-.167.229 0 .416-.075.416-.167 0-.091.263-.166.584-.166.407 0 .583-.076.583-.25 0-.186.194-.25.75-.25.412 0 .75-.075.75-.167 0-.093.444-.167 1-.167s1-.074 1-.166c0-.092.337-.167.75-.167.556 0 .75-.065.75-.25s.193-.25.74-.25c.407 0 .787-.075.843-.167.057-.091.361-.166.677-.166.315 0 .573-.075.573-.167 0-.092.228-.167.506-.167.295 0 .545-.104.601-.25.052-.137.238-.25.411-.25.174 0 .316-.075.316-.166 0-.092.187-.167.416-.167H174v3.073"></path>
  </g>
</svg>