<?xml version="1.0" encoding="UTF-8" standalone="no"?>
<!DOCTYPE svg PUBLIC "-//W3C//DTD SVG 1.1//EN" "http://www.w3.org/Graphics/SVG/1.1/DTD/svg11.dtd">
<svg xmlns="http://www.w3.org/2000/svg" version="1.1" viewBox="0.00 0.00 350.00 100.00">
<path fill="#00873e" d="
  M 237.92 13.24
  Q 240.84 16.57 241.82 19.92
  A 2.00 2.00 0.0 0 1 240.58 22.36
  Q 238.33 23.18 235.87 22.82
  C 226.66 21.48 220.71 12.34 219.71 3.62
  A 0.47 0.46 -5.2 0 1 220.15 3.10
  Q 224.12 2.88 224.98 3.07
  C 236.18 5.56 250.53 10.04 243.65 24.63
  A 0.29 0.29 0.0 0 1 243.09 24.51
  C 243.09 20.55 241.67 15.12 238.11 13.01
  A 0.15 0.15 0.0 0 0 237.92 13.24
  Z"
/>
<path fill="#00873e" d="
  M 0.00 68.34
  L 0.00 12.68
  Q 14.81 12.62 29.62 12.67
  Q 34.89 12.69 36.04 13.58
  C 39.19 15.99 38.90 21.04 34.88 22.82
  A 2.07 1.97 -55.8 0 1 34.05 23.00
  L 10.70 23.00
  A 0.36 0.35 -0.0 0 0 10.34 23.35
  L 10.34 31.62
  A 0.39 0.38 0.0 0 0 10.73 32.00
  L 25.70 32.00
  A 1.73 1.66 59.7 0 1 26.58 32.25
  Q 29.72 34.19 29.75 36.72
  C 29.82 41.44 26.33 42.41 21.94 42.37
  Q 16.32 42.31 10.65 42.35
  A 0.31 0.31 0.0 0 0 10.34 42.66
  L 10.34 57.63
  A 0.37 0.37 0.0 0 0 10.71 58.00
  L 34.11 58.00
  A 2.02 1.94 -31.3 0 1 34.96 58.19
  Q 38.01 59.63 38.11 62.51
  C 38.29 67.62 34.96 68.31 30.39 68.32
  Q 15.20 68.36 0.00 68.34
  Z"
/>
<path fill="#8a8a8a" d="
  M 134.66 12.68
  Q 136.19 12.58 155.76 12.68
  C 159.56 12.69 162.85 12.58 166.11 14.01
  C 175.39 18.08 176.55 28.68 172.27 37.25
  A 0.73 0.73 0.0 0 0 172.50 38.16
  Q 178.56 42.43 179.10 49.39
  C 179.79 58.13 175.61 64.39 167.44 67.25
  Q 164.51 68.28 157.94 68.16
  Q 157.36 68.14 134.43 68.34
  A 0.43 0.43 0.0 0 1 134.00 67.91
  L 134.00 13.38
  A 0.71 0.70 -2.2 0 1 134.66 12.68
  Z
  M 144.54 23.44
  L 144.54 33.92
  A 0.42 0.42 0.0 0 0 144.96 34.34
  L 159.20 34.34
  A 5.92 5.44 -0.0 0 0 165.12 28.90
  L 165.12 28.46
  A 5.92 5.44 0.0 0 0 159.20 23.02
  L 144.96 23.02
  A 0.42 0.42 0.0 0 0 144.54 23.44
  Z
  M 144.51 45.18
  L 144.57 57.62
  A 0.29 0.29 0.0 0 0 144.86 57.91
  L 161.91 57.82
  A 7.04 6.41 -0.3 0 0 168.92 51.38
  L 168.92 51.18
  A 7.04 6.41 -0.3 0 0 161.85 44.80
  L 144.80 44.89
  A 0.29 0.29 0.0 0 0 144.51 45.18
  Z"
/>
<rect fill="#8a8a8a" x="-5.17" y="-27.74" transform="translate(257.05,40.49) rotate(-0.1)" width="10.34" height="55.48" rx="4.94"/>
<path fill="#8a8a8a" d="
  M 296.03 25.15
  C 296.17 19.65 294.83 12.95 301.49 12.82
  C 305.96 12.73 306.85 16.49 306.84 20.46
  Q 306.79 59.04 306.83 59.82
  C 307.08 64.76 305.77 68.84 300.18 68.14
  Q 298.79 67.97 296.96 65.96
  A 0.73 0.73 0.0 0 0 296.14 65.79
  Q 285.61 70.30 276.99 64.10
  C 263.19 54.16 267.01 28.69 283.82 24.42
  Q 289.52 22.98 295.55 25.47
  A 0.35 0.34 -78.1 0 0 296.03 25.15
  Z
  M 278.04 45.64
  C 277.93 50.26 280.22 55.73 284.91 57.59
  C 288.54 59.03 293.26 57.62 294.80 54.14
  C 296.01 51.40 296.02 49.14 296.10 46.08
  C 296.17 43.02 296.27 40.76 295.19 37.96
  C 293.83 34.41 289.18 32.78 285.48 34.04
  C 280.71 35.67 278.15 41.01 278.04 45.64
  Z"
/>
<path fill="#00873e" d="
  M 127.21 46.47
  A 23.09 23.09 0.0 0 1 104.12 69.56
  A 23.09 23.09 0.0 0 1 81.03 46.47
  A 23.09 23.09 0.0 0 1 104.12 23.38
  A 23.09 23.09 0.0 0 1 127.21 46.47
  Z
  M 116.69 46.47
  A 12.56 12.56 0.0 0 0 104.13 33.91
  A 12.56 12.56 0.0 0 0 91.57 46.47
  A 12.56 12.56 0.0 0 0 104.13 59.03
  A 12.56 12.56 0.0 0 0 116.69 46.47
  Z"
/>
<path fill="#8a8a8a" d="
  M 223.38 68.25
  Q 220.46 68.26 204.20 68.12
  Q 196.18 68.06 194.85 67.72
  C 187.41 65.82 183.16 58.08 183.34 50.75
  Q 183.42 47.30 183.40 28.34
  A 2.50 2.39 57.0 0 1 183.57 27.44
  Q 186.03 21.54 191.56 24.23
  Q 192.75 24.81 193.72 26.91
  A 2.35 2.33 32.5 0 1 193.95 27.92
  L 193.95 52.89
  A 2.04 2.01 -54.9 0 0 194.06 53.55
  C 194.89 55.96 196.40 57.21 199.14 57.23
  Q 206.06 57.27 213.05 57.25
  A 0.62 0.62 0.0 0 0 213.67 56.63
  Q 213.66 55.90 213.65 29.51
  Q 213.65 25.82 215.87 24.40
  Q 219.50 22.09 222.58 24.93
  C 224.30 26.53 223.97 27.85 223.98 29.97
  Q 224.06 53.49 223.97 67.67
  A 0.59 0.58 -0.0 0 1 223.38 68.25
  Z"
/>
<path fill="#00873e" d="
  M 49.93 47.00
  Q 50.17 52.46 53.92 55.84
  Q 61.54 62.70 70.32 55.60
  A 1.80 1.65 -69.2 0 1 70.98 55.27
  C 75.82 54.05 79.21 57.98 77.31 62.64
  A 2.33 2.27 80.7 0 1 76.72 63.48
  C 62.28 76.74 40.47 66.33 39.64 47.45
  C 38.80 28.58 59.59 16.27 75.15 28.20
  A 2.33 2.27 -85.8 0 1 75.81 28.99
  C 78.12 33.46 75.09 37.67 70.16 36.89
  A 1.80 1.65 64.1 0 1 69.48 36.62
  Q 60.10 30.33 53.12 37.84
  Q 49.68 41.54 49.93 47.00
  Z"
/>
<rect fill="#8a8a8a" x="233.07" y="24.25" width="10.58" height="44.00" rx="5.14"/>
<path fill="#00873e" d="
  M 350.00 42.87
  L 350.00 46.34
  Q 348.27 49.02 345.25 48.95
  Q 341.07 48.86 337.51 48.97
  A 0.59 0.59 0.0 0 0 336.94 49.55
  Q 336.90 53.17 336.96 57.76
  C 337.03 62.82 329.87 63.95 328.42 58.59
  A 2.29 2.22 37.8 0 1 328.33 57.96
  L 328.33 49.34
  A 0.43 0.43 0.0 0 0 327.90 48.91
  Q 321.28 48.99 318.68 48.86
  Q 317.32 48.79 315.67 46.79
  A 1.94 1.93 19.3 0 1 315.26 45.95
  Q 314.39 41.91 318.41 40.41
  A 1.39 1.29 33.0 0 1 318.87 40.33
  L 327.86 40.33
  A 0.48 0.48 0.0 0 0 328.34 39.85
  L 328.34 31.36
  A 4.09 4.09 0.0 0 1 332.43 27.27
  L 332.98 27.27
  A 3.95 3.95 0.0 0 1 336.93 31.22
  L 336.93 39.72
  A 0.58 0.57 1.0 0 0 337.49 40.29
  Q 342.05 40.40 346.25 40.30
  Q 348.23 40.26 350.00 42.87
  Z"
/>
<path fill="#00873e" d="
  M 47.22 92.82
  Q 45.25 92.82 44.96 92.83
  A 1.01 1.00 10.6 0 0 44.08 93.43
  L 43.37 95.04
  A 1.39 1.39 0.0 0 1 41.53 95.75
  L 41.48 95.73
  A 1.37 1.37 0.0 0 1 40.80 93.94
  Q 44.24 85.90 45.68 83.06
  Q 46.05 82.31 47.24 82.31
  Q 48.41 82.31 48.78 83.06
  Q 50.21 85.90 53.64 93.96
  A 1.37 1.37 0.0 0 1 52.95 95.74
  L 52.90 95.76
  A 1.39 1.39 0.0 0 1 51.06 95.05
  L 50.37 93.44
  A 1.01 1.00 -10.5 0 0 49.48 92.83
  Q 49.20 92.82 47.22 92.82
  Z
  M 47.18 90.18
  Q 47.95 90.18 48.30 90.15
  A 0.41 0.40 77.1 0 0 48.64 89.61
  Q 47.47 86.36 47.19 86.36
  Q 46.92 86.36 45.74 89.60
  A 0.41 0.40 -76.9 0 0 46.08 90.14
  Q 46.43 90.18 47.18 90.18
  Z"
/>
<path fill="#00873e" d="
  M 118.2319 88.6531
  A 7.09 6.88 -4.1 0 1 111.6519 96.0224
  A 7.09 6.88 -4.1 0 1 104.0881 89.6669
  A 7.09 6.88 -4.1 0 1 110.6681 82.2976
  A 7.09 6.88 -4.1 0 1 118.2319 88.6531
  Z
  M 115.20 89.16
  A 4.04 4.04 0.0 0 0 111.16 85.12
  A 4.04 4.04 0.0 0 0 107.12 89.16
  A 4.04 4.04 0.0 0 0 111.16 93.20
  A 4.04 4.04 0.0 0 0 115.20 89.16
  Z"
/>
<path fill="#00873e" d="
  M 146.19 89.21
  C 146.23 91.91 148.19 93.37 150.76 93.24
  Q 151.21 93.22 153.20 92.09
  A 1.09 1.05 32.6 0 1 153.85 91.96
  Q 154.31 92.01 154.54 92.18
  A 1.43 1.41 40.8 0 1 154.72 94.35
  Q 153.48 95.55 151.46 95.86
  C 147.03 96.54 143.18 93.92 143.11 89.26
  C 143.04 84.59 146.81 81.86 151.26 82.40
  Q 153.29 82.65 154.56 83.82
  A 1.43 1.41 -42.5 0 1 154.45 85.99
  Q 154.22 86.17 153.76 86.23
  A 1.09 1.05 -34.4 0 1 153.11 86.12
  Q 151.09 85.05 150.64 85.05
  C 148.06 84.99 146.15 86.51 146.19 89.21
  Z"
/>
<path fill="#00873e" d="
  M 197.88 82.31
  Q 199.05 82.31 199.43 83.05
  Q 200.86 85.90 204.29 93.96
  A 1.37 1.37 0.0 0 1 203.60 95.75
  L 203.55 95.77
  A 1.39 1.39 0.0 0 1 201.71 95.05
  L 201.01 93.44
  A 1.01 1.00 -10.5 0 0 200.12 92.84
  Q 199.84 92.83 197.86 92.83
  Q 195.89 92.82 195.60 92.83
  A 1.01 1.00 10.6 0 0 194.72 93.43
  L 194.01 95.04
  A 1.39 1.39 0.0 0 1 192.17 95.76
  L 192.12 95.74
  A 1.37 1.37 0.0 0 1 191.44 93.95
  Q 194.88 85.89 196.32 83.05
  Q 196.70 82.31 197.88 82.31
  Z
  M 197.85 90.17
  Q 198.60 90.17 198.95 90.13
  A 0.41 0.40 77.0 0 0 199.28 89.59
  Q 198.11 86.35 197.84 86.35
  Q 197.56 86.35 196.39 89.60
  A 0.41 0.40 -77.0 0 0 196.73 90.13
  Q 197.08 90.17 197.85 90.17
  Z"
/>
<path fill="#00873e" d="
  M 248.11 90.62
  Q 247.28 90.73 246.76 90.54
  A 1.19 1.19 0.0 0 1 247.09 88.22
  L 250.54 88.09
  A 1.52 1.51 -1.1 0 1 252.12 89.60
  L 252.12 92.89
  A 2.06 2.05 74.4 0 1 251.13 94.65
  C 246.50 97.49 239.93 95.86 239.46 89.71
  C 239.09 84.91 242.95 81.94 247.66 82.37
  Q 249.61 82.55 251.01 83.71
  A 1.38 1.38 0.0 0 1 251.24 85.59
  L 251.20 85.63
  A 1.41 1.41 0.0 0 1 249.37 86.02
  Q 246.70 84.48 244.90 85.37
  C 240.07 87.74 243.23 95.47 248.76 92.75
  A 1.13 1.13 0.0 0 0 248.11 90.62
  Z"
/>
<path fill="#00873e" d="
  M 0.23 84.09
  A 1.58 1.58 0.0 0 1 1.81 82.51
  L 5.59 82.50
  A 6.88 6.37 -0.1 0 1 12.48 88.86
  L 12.48 89.42
  A 6.88 6.37 -0.1 0 1 5.61 95.80
  L 1.83 95.81
  A 1.58 1.58 0.0 0 1 0.25 94.23
  L 0.23 84.09
  Z
  M 3.26 85.58
  L 3.24 92.72
  A 0.41 0.41 0.0 0 0 3.65 93.14
  L 5.34 93.14
  A 4.04 3.76 0.1 0 0 9.39 89.39
  L 9.39 88.95
  A 4.04 3.76 0.1 0 0 5.36 85.18
  L 3.67 85.18
  A 0.41 0.41 0.0 0 0 3.26 85.58
  Z"
/>
<path fill="#00873e" d="
  M 24.01 90.79
  A 0.53 0.52 51.0 0 0 23.93 91.60
  L 25.69 93.37
  A 1.40 1.40 0.0 0 1 25.61 95.43
  L 25.24 95.75
  A 0.90 0.90 0.0 0 1 24.02 95.70
  L 20.25 91.93
  A 1.31 1.31 0.0 0 0 18.02 92.89
  L 18.06 94.42
  A 1.40 1.40 0.0 0 1 16.55 95.86
  L 16.49 95.85
  A 1.47 1.47 0.0 0 1 15.07 94.38
  L 15.07 83.90
  A 1.30 1.30 0.0 0 1 16.26 82.60
  C 19.17 82.35 24.57 81.82 25.79 85.03
  Q 27.19 88.74 24.01 90.79
  Z
  M 18.09 85.46
  L 18.07 88.62
  A 0.29 0.29 0.0 0 0 18.35 88.91
  L 20.93 88.93
  A 2.19 1.64 0.5 0 0 23.14 87.31
  L 23.14 86.85
  A 2.19 1.64 0.5 0 0 20.97 85.19
  L 18.39 85.17
  A 0.29 0.29 0.0 0 0 18.09 85.46
  Z"
/>
<path fill="#00873e" d="
  M 28.82 89.15
  Q 28.81 84.63 28.82 83.96
  A 1.48 1.48 0.0 0 1 30.29 82.51
  L 37.75 82.48
  A 1.16 1.15 -3.3 0 1 38.91 83.50
  L 38.94 83.79
  A 1.23 1.23 0.0 0 1 37.73 85.15
  L 32.29 85.17
  A 0.53 0.53 0.0 0 0 31.77 85.71
  L 31.77 87.29
  A 0.58 0.58 0.0 0 0 32.37 87.86
  Q 35.89 87.78 36.91 87.86
  Q 38.08 87.96 38.08 89.08
  Q 38.09 90.31 36.92 90.41
  Q 35.89 90.50 32.37 90.42
  A 0.58 0.58 0.0 0 0 31.78 91.00
  L 31.78 92.58
  A 0.53 0.53 0.0 0 0 32.31 93.12
  L 37.74 93.12
  A 1.23 1.23 0.0 0 1 38.96 94.47
  L 38.93 94.76
  A 1.16 1.15 3.1 0 1 37.78 95.79
  L 30.32 95.79
  A 1.48 1.48 0.0 0 1 28.84 94.35
  Q 28.83 93.68 28.82 89.15
  Z"
/>
<path fill="#00873e" d="
  M 62.75 88.57
  Q 62.91 88.57 62.96 88.48
  Q 66.20 83.20 66.44 82.95
  Q 67.31 82.05 68.58 82.64
  A 1.36 1.36 0.0 0 1 69.38 83.88
  L 69.38 94.44
  A 1.42 1.42 0.0 0 1 67.92 95.85
  L 67.86 95.85
  A 1.46 1.46 0.0 0 1 66.45 94.39
  L 66.43 88.95
  A 0.27 0.27 0.0 0 0 65.93 88.80
  Q 65.14 89.98 64.09 91.58
  Q 63.44 92.57 62.73 92.57
  Q 62.00 92.57 61.35 91.58
  Q 60.31 89.98 59.52 88.80
  A 0.27 0.27 0.0 0 0 59.02 88.94
  L 58.99 94.38
  A 1.46 1.46 0.0 0 1 57.58 95.84
  L 57.52 95.84
  A 1.42 1.42 0.0 0 1 56.06 94.43
  L 56.08 83.87
  A 1.36 1.36 0.0 0 1 56.88 82.63
  Q 58.15 82.04 59.02 82.94
  Q 59.26 83.20 62.48 88.48
  Q 62.54 88.57 62.75 88.57
  Z"
/>
<path fill="#00873e" d="
  M 81.24 92.47
  L 81.27 94.38
  A 1.46 1.46 0.0 0 1 79.82 95.86
  L 79.76 95.86
  A 1.47 1.46 89.1 0 1 78.25 94.39
  L 78.25 83.97
  A 1.40 1.40 0.0 0 1 79.54 82.57
  Q 82.28 82.36 84.72 82.63
  C 89.40 83.13 90.18 88.87 86.55 91.11
  Q 85.24 91.92 81.93 91.80
  A 0.67 0.67 0.0 0 0 81.24 92.47
  Z
  M 81.27 85.48
  L 81.25 88.86
  A 0.31 0.31 0.0 0 0 81.56 89.17
  L 83.43 89.18
  A 2.32 1.82 0.3 0 0 85.76 87.37
  L 85.76 87.01
  A 2.32 1.82 0.3 0 0 83.45 85.18
  L 81.58 85.17
  A 0.31 0.31 0.0 0 0 81.27 85.48
  Z"
/>
<path fill="#00873e" d="
  M 99.87 90.79
  A 0.53 0.52 50.9 0 0 99.80 91.60
  L 101.56 93.36
  A 1.40 1.40 0.0 0 1 101.48 95.42
  L 101.11 95.75
  A 0.90 0.90 0.0 0 1 99.89 95.70
  L 96.12 91.93
  A 1.31 1.31 0.0 0 0 93.89 92.89
  L 93.93 94.42
  A 1.40 1.40 0.0 0 1 92.42 95.86
  L 92.36 95.85
  A 1.47 1.47 0.0 0 1 90.94 94.38
  L 90.93 83.90
  A 1.31 1.30 87.6 0 1 92.12 82.60
  C 95.03 82.35 100.43 81.82 101.65 85.03
  Q 103.05 88.73 99.87 90.79
  Z
  M 93.94 85.54
  L 93.92 88.56
  A 0.36 0.36 0.0 0 0 94.28 88.92
  L 96.82 88.93
  A 2.18 1.67 0.3 0 0 99.01 87.27
  L 99.01 86.87
  A 2.18 1.67 0.3 0 0 96.84 85.19
  L 94.30 85.18
  A 0.36 0.36 0.0 0 0 93.94 85.54
  Z"
/>
<path fill="#00873e" d="
  M 119.28 93.33
  L 119.29 93.27
  A 1.17 1.17 0.0 0 1 120.95 92.39
  Q 122.99 93.35 123.94 93.14
  Q 125.04 92.89 125.01 90.34
  Q 124.98 87.18 125.02 83.91
  A 1.46 1.46 0.0 0 1 126.48 82.48
  L 126.81 82.48
  A 1.14 1.14 0.0 0 1 127.95 83.57
  Q 128.08 86.34 127.94 91.96
  C 127.84 95.92 123.73 96.58 120.42 95.31
  A 1.82 1.82 0.0 0 1 119.28 93.33
  Z"
/>
<path fill="#00873e" d="
  M 130.95 89.17
  Q 130.93 84.63 130.94 83.96
  A 1.48 1.48 0.0 0 1 132.41 82.51
  L 139.89 82.46
  A 1.16 1.16 0.0 0 1 141.05 83.49
  L 141.08 83.78
  A 1.23 1.23 0.0 0 1 139.87 85.14
  L 134.42 85.18
  A 0.53 0.53 0.0 0 0 133.90 85.71
  L 133.91 87.29
  A 0.58 0.58 0.0 0 0 134.50 87.87
  Q 138.03 87.78 139.06 87.86
  Q 140.23 87.95 140.24 89.08
  Q 140.24 90.31 139.07 90.41
  Q 138.04 90.50 134.51 90.44
  A 0.58 0.58 0.0 0 0 133.92 91.02
  L 133.93 92.60
  A 0.53 0.53 0.0 0 0 134.46 93.13
  L 139.90 93.12
  A 1.23 1.23 0.0 0 1 141.13 94.48
  L 141.10 94.77
  A 1.16 1.16 0.0 0 1 139.95 95.80
  L 132.47 95.81
  A 1.48 1.48 0.0 0 1 130.99 94.37
  Q 130.97 93.70 130.95 89.17
  Z"
/>
<path fill="#00873e" d="
  M 162.26 82.50
  Q 164.52 82.43 166.58 82.56
  A 1.32 1.32 0.0 0 1 167.82 83.88
  L 167.82 84.14
  A 1.10 1.09 0.0 0 1 166.72 85.23
  L 164.44 85.23
  A 0.63 0.63 0.0 0 0 163.81 85.85
  Q 163.68 93.96 163.68 94.00
  Q 163.79 95.90 162.25 95.90
  Q 160.71 95.90 160.82 94.00
  Q 160.82 93.96 160.70 85.85
  A 0.63 0.63 0.0 0 0 160.07 85.23
  L 157.79 85.22
  A 1.10 1.09 0.1 0 1 156.69 84.13
  L 156.69 83.87
  A 1.32 1.32 0.0 0 1 157.94 82.56
  Q 160.00 82.43 162.26 82.50
  Z"
/>
<path fill="#00873e" d="
  M 182.36 92.57
  Q 181.62 92.57 180.98 91.58
  Q 179.92 89.97 179.13 88.79
  A 0.27 0.27 0.0 0 0 178.63 88.94
  L 178.61 94.39
  A 1.46 1.46 0.0 0 1 177.20 95.85
  L 177.14 95.85
  A 1.42 1.42 0.0 0 1 175.68 94.44
  L 175.68 83.86
  A 1.36 1.36 0.0 0 1 176.48 82.62
  Q 177.76 82.03 178.63 82.93
  Q 178.87 83.18 182.10 88.47
  Q 182.16 88.56 182.37 88.56
  Q 182.53 88.56 182.59 88.47
  Q 185.82 83.18 186.06 82.93
  Q 186.93 82.03 188.20 82.62
  A 1.36 1.36 0.0 0 1 189.01 83.86
  L 189.01 94.44
  A 1.42 1.42 0.0 0 1 187.55 95.85
  L 187.49 95.85
  A 1.46 1.46 0.0 0 1 186.08 94.39
  L 186.06 88.94
  A 0.27 0.27 0.0 0 0 185.56 88.79
  Q 184.77 89.97 183.72 91.58
  Q 183.07 92.57 182.36 92.57
  Z"
/>
<path fill="#00873e" d="
  M 206.67 84.09
  A 1.58 1.58 0.0 0 1 208.25 82.51
  L 211.99 82.50
  A 6.96 6.39 -0.1 0 1 218.96 88.88
  L 218.96 89.40
  A 6.96 6.39 -0.1 0 1 212.01 95.80
  L 208.27 95.81
  A 1.58 1.58 0.0 0 1 206.69 94.23
  L 206.67 84.09
  Z
  M 209.68 85.60
  L 209.68 92.72
  A 0.41 0.41 0.0 0 0 210.09 93.13
  L 211.91 93.13
  A 3.95 3.75 0.0 0 0 215.86 89.38
  L 215.86 88.94
  A 3.95 3.75 -0.0 0 0 211.91 85.19
  L 210.09 85.19
  A 0.41 0.41 0.0 0 0 209.68 85.60
  Z"
/>
<path fill="#00873e" d="
  M 221.56 89.16
  Q 221.55 84.64 221.56 83.97
  A 1.48 1.48 0.0 0 1 223.03 82.53
  L 230.49 82.48
  A 1.16 1.15 -3.4 0 1 231.64 83.51
  L 231.67 83.80
  A 1.23 1.23 0.0 0 1 230.46 85.15
  L 225.03 85.18
  A 0.53 0.53 0.0 0 0 224.51 85.72
  L 224.52 87.30
  A 0.58 0.58 0.0 0 0 225.11 87.87
  Q 228.63 87.78 229.65 87.87
  Q 230.82 87.96 230.83 89.08
  Q 230.83 90.31 229.66 90.41
  Q 228.64 90.50 225.12 90.43
  A 0.58 0.58 0.0 0 0 224.53 91.01
  L 224.53 92.59
  A 0.53 0.53 0.0 0 0 225.06 93.12
  L 230.49 93.12
  A 1.23 1.23 0.0 0 1 231.71 94.47
  L 231.68 94.76
  A 1.16 1.15 3.0 0 1 230.53 95.79
  L 223.07 95.79
  A 1.48 1.48 0.0 0 1 221.59 94.36
  Q 221.58 93.69 221.56 89.16
  Z"
/>
<path fill="#00873e" d="
  M 263.73 91.60
  L 265.49 93.37
  A 1.40 1.40 0.0 0 1 265.41 95.43
  L 265.04 95.75
  A 0.90 0.90 0.0 0 1 263.82 95.70
  L 260.05 91.93
  A 1.31 1.31 0.0 0 0 257.82 92.89
  L 257.86 94.42
  A 1.40 1.40 0.0 0 1 256.35 95.86
  L 256.29 95.85
  A 1.47 1.47 0.0 0 1 254.87 94.38
  L 254.87 83.90
  A 1.31 1.30 87.6 0 1 256.06 82.60
  C 258.97 82.35 264.37 81.82 265.59 85.03
  Q 266.99 88.74 263.81 90.79
  A 0.53 0.52 51.0 0 0 263.73 91.60
  Z
  M 257.87 85.56
  L 257.87 88.56
  A 0.36 0.36 0.0 0 0 258.23 88.92
  L 260.76 88.92
  A 2.17 1.65 -0.1 0 0 262.93 87.27
  L 262.93 86.85
  A 2.17 1.65 -0.1 0 0 260.76 85.20
  L 258.23 85.20
  A 0.36 0.36 0.0 0 0 257.87 85.56
  Z"
/>
<path fill="#00873e" d="
  M 277.88 89.09
  Q 277.88 90.31 276.71 90.41
  Q 275.69 90.50 272.17 90.43
  A 0.58 0.58 0.0 0 0 271.58 91.01
  L 271.58 92.59
  A 0.53 0.53 0.0 0 0 272.11 93.12
  L 277.54 93.12
  A 1.23 1.23 0.0 0 1 278.76 94.47
  L 278.73 94.76
  A 1.16 1.15 3.0 0 1 277.58 95.79
  L 270.12 95.79
  A 1.48 1.48 0.0 0 1 268.64 94.35
  Q 268.63 93.68 268.61 89.16
  Q 268.60 84.64 268.62 83.97
  A 1.48 1.48 0.0 0 1 270.09 82.52
  L 277.55 82.48
  A 1.16 1.15 -3.3 0 1 278.70 83.51
  L 278.73 83.80
  A 1.23 1.23 0.0 0 1 277.52 85.15
  L 272.09 85.18
  A 0.53 0.53 0.0 0 0 271.56 85.71
  L 271.57 87.29
  A 0.58 0.58 0.0 0 0 272.16 87.87
  Q 275.68 87.78 276.71 87.87
  Q 277.88 87.96 277.88 89.09
  Z"
/>
<path fill="#00873e" d="
  M 281.33 89.16
  Q 281.32 84.64 281.33 83.97
  A 1.48 1.48 0.0 0 1 282.80 82.52
  L 290.26 82.48
  A 1.16 1.15 -3.3 0 1 291.42 83.51
  L 291.45 83.80
  A 1.23 1.23 0.0 0 1 290.24 85.15
  L 284.80 85.18
  A 0.53 0.53 0.0 0 0 284.28 85.72
  L 284.29 87.30
  A 0.58 0.58 0.0 0 0 284.88 87.87
  Q 288.40 87.78 289.42 87.87
  Q 290.59 87.96 290.60 89.09
  Q 290.60 90.31 289.43 90.41
  Q 288.41 90.50 284.89 90.43
  A 0.58 0.58 0.0 0 0 284.30 91.01
  L 284.30 92.59
  A 0.53 0.53 0.0 0 0 284.83 93.12
  L 290.26 93.12
  A 1.23 1.23 0.0 0 1 291.48 94.47
  L 291.45 94.76
  A 1.16 1.15 3.0 0 1 290.30 95.79
  L 282.84 95.79
  A 1.48 1.48 0.0 0 1 281.36 94.36
  Q 281.34 93.69 281.33 89.16
  Z"
/>
<path fill="#00873e" d="
  M 301.07 88.17
  Q 301.82 89.16 302.38 89.88
  A 0.32 0.32 0.0 0 0 302.95 89.69
  L 302.97 83.86
  A 1.41 1.41 0.0 0 1 304.31 82.46
  L 304.43 82.45
  A 1.38 1.38 0.0 0 1 305.88 83.82
  Q 305.91 88.86 305.89 94.14
  Q 305.88 95.25 305.06 95.66
  A 1.80 1.80 0.0 0 1 302.89 95.22
  Q 302.74 95.05 298.91 90.06
  Q 298.16 89.07 297.60 88.35
  A 0.32 0.32 0.0 0 0 297.03 88.54
  L 297.01 94.37
  A 1.41 1.41 0.0 0 1 295.67 95.77
  L 295.55 95.78
  A 1.38 1.38 0.0 0 1 294.10 94.41
  Q 294.07 89.37 294.09 84.09
  Q 294.10 82.98 294.92 82.57
  A 1.80 1.80 0.0 0 1 297.09 83.01
  Q 297.24 83.18 301.07 88.17
  Z"
/>
</svg>
