<svg xmlns="http://www.w3.org/2000/svg" viewBox="0 0 556 171">
  <title>Kohler</title>
  <path d="M269.724 77.034h24.561v31.078h24.227V77.034h24.562v89.056h-24.561v-33.417h-24.228v33.417h-24.561V77.034M349.424 77.034h24.561v66.082h27.067v22.974h-51.628V77.034M406.065 77.034h49.624v20.468h-25.063v13.701h25.063v20.468h-25.063v13.952h25.063v20.467h-49.624V77.034M461.202 77.034h24.562c4.538.101 9.058.424 13.533 1.255 14.035 2.994 25.398 18.126 21.722 32.593-1.67 8.48-7.853 14.966-14.704 19.955 8.536 11.66 16.88 23.46 25.23 35.253h-26.399c-6.675-8.587-13.032-17.49-19.382-26.248v26.248h-24.562V77.034zm24.562 20.588V115c4.033-.182 8.69.696 11.696-2.454 3.676-2.827 3.676-9.146.168-12.139-3.173-2.998-7.698-2.552-11.864-2.784M266.216 120.727c0-25.609-20.587-46.373-45.972-46.373-25.386 0-45.974 20.764-45.974 46.373 0 25.609 20.587 46.373 45.974 46.373 25.385 0 45.972-20.764 45.972-46.373zm-45.972-22.796c11.364 0 20.58 10.207 20.58 22.796 0 12.589-9.216 22.796-20.58 22.796-11.365 0-20.581-10.207-20.581-22.796 0-12.59 9.216-22.796 20.58-22.796"></path>
  <path d="M187.351 77.07c-11.58 14.184-23.382 28.19-34.92 42.404l40.1 46.616h-32.415l-27.235-31.903v31.903h-24.56V77.034h24.56v26.288L156.16 77.07h31.192M.05 1.136h35.254v3.76h-15.51v56.098h-4.038V4.896H.049v-3.76M38.45 60.994V1.177h4.039v25.147H78.55V1.177h4.04v59.817h-4.04v-30.91H42.49v30.91h-4.04"></path>
  <path d="M88.939 60.994V1.177h28.57v3.76H92.978v21.387h24.533v3.76H92.977v27.15h24.533v3.76H88.938"></path>
  <path d="M140.735 60.994V1.177h4.039v.002c5.594-.063 11.299-.29 16.68 1.327 10.359 4.358 11.695 20.824 2.171 26.855 4.679 1.675 9.357 4.691 11.027 9.718 3.51 8.88-2.672 19.435-11.862 21.278-6.005.958-12.011.719-18.016.637h-4.039zm4.039-56.14v23.333c5.004-.162 10.339.835 15.009-1.005 8.52-3.35 8.353-17.47 0-20.988-4.837-1.674-10.007-1.176-15.01-1.34zm0 52.462c3.294.13 6.995.152 10.582.129 4.533-.03 8.925-.688 12.28-3.958 6.182-5.193 4.845-17.09-3.008-19.937-6.35-2.179-13.2-1.34-19.715-1.676-.34 8.467-.14 16.97-.14 25.442M241.988 60.994V1.177h4.038v56.058h24.366v3.76h-28.405M274.067 60.994V1.177h4.04v.02c9.43-.015 19.447-.115 27.04 6.184 14.536 11.064 14.87 35.708.5 47.108-7.61 6.608-17.913 6.655-27.54 6.453v.052h-4.04zm4.04-56.128v52.48c9.145.325 19.735.108 26.538-7.216 10.86-10.226 10.191-30.009-1.504-39.229-6.799-6.155-16.557-6.037-25.034-6.035M340.567 60.994V1.177h4.04v56.058h24.365v3.76h-28.404M490.071 60.994V1.177h4.04v26.895L521.24 1.177h5.729L497.974 29.93l30.896 31.064h-5.711L494.11 31.776v29.218h-4.04M66.717 136.517V76.7h23.892v3.76H70.756v21.47h19.441v3.76H70.756v30.827h-4.04M32.167 79.76c14.842 0 26.878 12.038 26.878 26.88 0 14.84-12.036 26.877-26.878 26.877-14.843 0-26.878-12.037-26.878-26.878S17.324 79.76 32.167 79.76zm30.549 26.88c0-16.869-13.68-30.55-30.549-30.55-16.87 0-30.55 13.681-30.55 30.55 0 16.866 13.68 30.547 30.55 30.547 16.869 0 30.549-13.681 30.549-30.548M207.471 4.207c14.841 0 26.878 12.04 26.878 26.88s-12.036 26.878-26.878 26.878-26.879-12.038-26.879-26.878 12.037-26.88 26.88-26.88zm30.549 26.88c0-16.868-13.68-30.55-30.549-30.55s-30.549 13.682-30.549 30.55c0 16.867 13.68 30.548 30.55 30.548 16.868 0 30.548-13.681 30.548-30.547"></path>
  <path d="M390.679 4.207c14.842 0 26.879 12.04 26.879 26.88s-12.037 26.878-26.88 26.878c-14.84 0-26.877-12.038-26.877-26.878s12.036-26.88 26.878-26.88zm30.55 26.88c0-16.868-13.681-30.55-30.55-30.55S360.13 14.22 360.13 31.087c0 16.867 13.68 30.548 30.549 30.548s30.55-13.681 30.55-30.547M455.61 4.207c14.842 0 26.879 12.04 26.879 26.88s-12.036 26.878-26.879 26.878c-14.842 0-26.879-12.038-26.879-26.878s12.036-26.88 26.879-26.88zm30.549 26.88c0-16.868-13.68-30.55-30.549-30.55s-30.549 13.682-30.549 30.55c0 16.867 13.68 30.548 30.549 30.548s30.549-13.681 30.549-30.547M546.525 153.148a9.008 9.008 0 016.389 2.647 9.006 9.006 0 012.646 6.389 9.007 9.007 0 01-2.646 6.389 9.01 9.01 0 01-6.389 2.646 9.008 9.008 0 01-6.389-2.646 9.008 9.008 0 01-2.647-6.39 9.007 9.007 0 012.647-6.388 9.006 9.006 0 016.389-2.647zm5.136 3.9a7.244 7.244 0 00-5.136-2.128 7.24 7.24 0 00-5.136 2.128 7.238 7.238 0 00-2.128 5.136c0 2.005.813 3.821 2.128 5.136a7.241 7.241 0 005.136 2.127 7.245 7.245 0 005.136-2.127 7.244 7.244 0 002.128-5.136 7.243 7.243 0 00-2.128-5.136"></path>
  <path d="M550.313 166.766h-1.747L547.142 163h-2.322v3.767h-1.653v-9.164h3.975c1.105 0 1.92.25 2.438.75.52.497.779 1.143.779 1.935 0 1.178-.55 1.987-1.653 2.43l1.606 4.05zm-5.493-5.09h2.055c.594 0 1.038-.124 1.33-.376.29-.25.435-.595.435-1.033 0-.403-.142-.729-.429-.976-.286-.25-.687-.374-1.202-.374h-2.189v2.76"></path>
</svg>