<svg xmlns="http://www.w3.org/2000/svg" viewBox="0 0 370.65 122.4" fill="#000">
  <defs>
    <title>Moen</title>

    <clipPath id="a">
      <path fill="none" d="M.07 0h389.16v125.64H.07z" />
    </clipPath>
  </defs>
  <g fill="#000" clip-path="url(#a)">
    <path d="M8.58 112.38H.33V91.23h8c3.7 0 6.26 2.11 6.26 5.64a4.85 4.85 0 01-3.13 4.64 5.12 5.12 0 013.46 5c0 3.83-2.56 5.85-6.32 5.85m-.46-19.11H2.59v7.34h5.55c2.36 0 4.17-1.16 4.17-3.68s-1.82-3.65-4.17-3.65m.24 9.36H2.59v7.75h5.79c2.62 0 4.26-1.52 4.26-3.89s-1.64-3.86-4.26-3.86m18.53 9.76v-1.63a5.38 5.38 0 01-4.14 1.81A5.23 5.23 0 0119 111.2a5.45 5.45 0 01-1.49-4.1v-9.33h2.15v9c0 2.59 1.37 3.89 3.58 3.89s3.67-1.34 3.67-3.89v-9H29v14.62h-2.09zm10.7 3.54a4.28 4.28 0 01-1 1.72 4 4 0 01-2.86 1h-.97v-1.9h.66c1.49 0 1.94-.48 2.41-1.81l1-2.85-5.23-14.31h2.32l4 11.74 4-11.74h2.32zM53.77 91.2h2.41v2.41h-2.41V91.2zm.12 6.57H56v14.62h-2.12V97.77zm10.93 14.61a3.59 3.59 0 01-3.75-3.92v-9h-1.85v-1.61h1.85v-4.57h2.15v4.57h3.13v1.63h-3.14v8.91a1.85 1.85 0 002 2.14h1.13v1.84h-1.52zm15.29-12.89v12.89H78V99.49h-1.91v-1.64H78v-2.76c0-2.17 1.22-3.92 3.72-3.92h1.55V93h-1.19c-1.37 0-2 .8-2 2.14v2.7h3.13v1.63h-3.1zm14.57 11.41a6.14 6.14 0 01-8.4 0c-1.49-1.52-1.79-3.56-1.79-5.82s.3-4.31 1.79-5.82a6.14 6.14 0 018.4 0c1.49 1.51 1.79 3.56 1.79 5.82s-.3 4.31-1.79 5.82m-1.52-10.34a3.76 3.76 0 00-2.68-1.07 3.69 3.69 0 00-2.65 1.07c-1.07 1.07-1.19 2.88-1.19 4.52s.12 3.45 1.19 4.52a3.7 3.7 0 002.65 1.07 3.77 3.77 0 002.68-1.07c1.07-1.07 1.16-2.88 1.16-4.52s-.09-3.45-1.16-4.52m14.49 0a3.07 3.07 0 00-2.53-1.07c-2.15 0-3.52 1.69-3.52 3.92v9h-2.15V97.77h2.15v1.78a4.93 4.93 0 014.11-2 4.52 4.52 0 013.52 1.45zM122 112.38c-2.56 0-3.72-1.66-3.72-3.89V91.23h2.15v17.17c0 1.43.48 2.14 2 2.14h1.16v1.84H122zm14.14-1.48a6.14 6.14 0 01-8.4 0c-1.49-1.52-1.79-3.56-1.79-5.82s.3-4.31 1.79-5.82a6.14 6.14 0 018.4 0c1.49 1.51 1.79 3.56 1.79 5.82s-.3 4.31-1.79 5.82m-1.52-10.34a3.76 3.76 0 00-2.68-1.07 3.69 3.69 0 00-2.65 1.07c-1.07 1.07-1.19 2.88-1.19 4.52s.12 3.45 1.19 4.52a3.7 3.7 0 002.65 1.07 3.77 3.77 0 002.68-1.07c1.07-1.07 1.16-2.88 1.16-4.52s-.09-3.45-1.16-4.52m15.71 10.34a6.14 6.14 0 01-8.4 0c-1.49-1.52-1.79-3.56-1.79-5.82s.3-4.31 1.79-5.82a6.14 6.14 0 018.4 0c1.49 1.51 1.79 3.56 1.79 5.82s-.3 4.31-1.79 5.82m-1.52-10.34a3.77 3.77 0 00-2.68-1.07 3.7 3.7 0 00-2.65 1.07c-1.07 1.07-1.19 2.88-1.19 4.52s.12 3.45 1.19 4.52a3.7 3.7 0 002.65 1.07 3.77 3.77 0 002.68-1.07c1.07-1.07 1.16-2.88 1.16-4.52s-.09-3.45-1.16-4.52m16.24 11.82l-4.65-7.48-2.86 3.26v4.22h-2.15V91.23h2.15v14.14l6.62-7.6h2.68l-4.98 5.58 5.84 9.03h-2.65zm9.63.18a8.09 8.09 0 01-6-2.11l1.43-1.43a6 6 0 004.56 1.69c2.41 0 3.9-.86 3.9-2.58 0-1.28-.74-2-2.44-2.14l-2.41-.21c-2.86-.24-4.38-1.51-4.38-3.92 0-2.67 2.27-4.28 5.39-4.28a8.31 8.31 0 015.27 1.58l-1.4 1.4a6.27 6.27 0 00-3.9-1.16c-2.15 0-3.28.92-3.28 2.41 0 1.25.72 2 2.56 2.14l2.36.21c2.56.24 4.32 1.22 4.32 3.95s-2.41 4.46-6 4.46m9.11-2.98h2.8v2.79h-2.8zm24.52 2.79H200V91.23h8c3.7 0 6.26 2.11 6.26 5.64a4.85 4.85 0 01-3.13 4.64 5.12 5.12 0 013.46 5c0 3.83-2.56 5.85-6.32 5.85m-.45-19.13h-5.52v7.34h5.54c2.36 0 4.17-1.16 4.17-3.68s-1.82-3.65-4.17-3.65m.24 9.36h-5.78v7.75h5.78c2.62 0 4.26-1.52 4.26-3.89s-1.64-3.86-4.26-3.86m18.54 9.78v-1.63a5.38 5.38 0 01-4.14 1.81 5.23 5.23 0 01-3.79-1.37 5.45 5.45 0 01-1.49-4.1v-9.32h2.15v9c0 2.59 1.37 3.89 3.58 3.89s3.67-1.34 3.67-3.89v-9h2.15v14.62h-2.12zm10.7 3.54a4.28 4.28 0 01-1 1.72 4 4 0 01-2.86 1h-.92v-1.9h.66c1.49 0 1.94-.48 2.41-1.81l1-2.85-5.27-14.32h2.32l4 11.74 4-11.74H244zm16.15-24.72h2.41v2.41h-2.41V91.2zm.12 6.57h2.15v14.62h-2.15V97.77zm10.94 14.61a3.59 3.59 0 01-3.75-3.92v-9h-1.85v-1.61h1.85v-4.57h2.15v4.57h3.13v1.63h-3.13v8.91a1.85 1.85 0 002 2.14h1.13v1.84h-1.52zm15.29-12.89v12.89h-2.15V99.49h-1.87v-1.64h1.88v-2.76c0-2.17 1.22-3.92 3.72-3.92h1.55V93h-1.16c-1.37 0-2 .8-2 2.14v2.7h3.13v1.63h-3.13zm14.57 11.41a6.14 6.14 0 01-8.4 0c-1.49-1.52-1.79-3.56-1.79-5.82s.3-4.31 1.79-5.82a6.14 6.14 0 018.4 0c1.49 1.51 1.79 3.56 1.79 5.82s-.3 4.31-1.79 5.82m-1.52-10.34a3.77 3.77 0 00-2.68-1.07 3.7 3.7 0 00-2.65 1.07c-1.07 1.07-1.19 2.88-1.19 4.52s.12 3.45 1.19 4.52a3.7 3.7 0 002.65 1.07 3.77 3.77 0 002.68-1.07c1.07-1.07 1.16-2.88 1.16-4.52s-.09-3.45-1.16-4.52m14.49 0a3.07 3.07 0 00-2.53-1.07c-2.15 0-3.52 1.69-3.52 3.92v9h-2.15V97.77h2.15v1.78a4.93 4.93 0 014.11-2 4.52 4.52 0 013.52 1.45zm14.3 11.82c-2.56 0-3.72-1.66-3.72-3.89V91.23h2.15v17.17c0 1.43.48 2.14 2 2.14h1.16v1.84h-1.55zm4.95-21.18H329v2.41h-2.41V91.2zm.12 6.57h2.15v14.62h-2.15V97.77zm9.74 1.72v12.89h-2.15V99.49h-1.88v-1.64h1.88v-2.76c0-2.17 1.22-3.92 3.72-3.92h1.55V93h-1.16c-1.37 0-2 .8-2 2.14v2.7h3.13v1.63h-3.13zm6.2 6.15c0 3.21 1.52 5.05 4.32 5.05a4.82 4.82 0 003.84-1.66l1.46 1.28a6.72 6.72 0 01-5.36 2.26c-3.88 0-6.41-2.32-6.41-7.49 0-4.72 2.29-7.49 6-7.49s6 2.73 6 7.07v1h-9.89zm7.3-4a3.77 3.77 0 00-6.85 0 6.14 6.14 0 00-.45 2.44h7.75a6.13 6.13 0 00-.45-2.44m5.19 7.95h2.8v2.79h-2.8zm7.14-7.98a5.06 5.06 0 115.07-5.06 5.06 5.06 0 01-5.07 5.06m0-9.18a4.12 4.12 0 104 4.12 4.06 4.06 0 00-4-4.12m1.07 6.84l-1.12-2.17h-.7v2.17h-1v-5.45h2.06a1.7 1.7 0 011.77 1.68 1.52 1.52 0 01-1.1 1.5l1.22 2.31h-1.13zm-.9-4.61h-.92v1.65h.92a.83.83 0 100-1.65" />
  </g>
  <path fill="#000" d="M161.38 69.95l.02-31.43h-.11l-11.77 17.99h-6.67l-12.1-17.77h-.11l-.03 31.21h-14.74V15.98h12.66l17.43 24.65h.12l16.65-24.65h13.44v53.97h-14.79m53.1-43.42c-8.33 0-13.21 6.33-13.21 16.55s5 16.43 13.21 16.43 13.1-6.22 13.1-16.43-4.89-16.55-13.1-16.55m19.54 38c-4.88 4.22-11.55 6.55-19.54 6.55-7.77 0-14.21-2.22-19.1-6.22-6-4.89-9.44-12.44-9.44-21.77 0-8.89 3.33-16.44 9.22-21.43 4.89-4.11 11.55-6.55 19.55-6.55 8.22 0 15.1 2.55 20 7 5.44 5 8.44 12.21 8.44 21-.02 8.96-3.24 16.51-9.15 21.4zm52.09-37.44h-18.55V37.3h18.55v10.55h-18.55v10.99h21.21v11.11h-35.86V15.98h36.86l-3.66 11.11m55.64 42.86l-25.44-33.21h-.11l-.02 33.21h-14.64V15.98h14.44l24.55 32.2h.1l.02-32.2h14.75v53.97h-13.65" />
  <path fill="#c60c30" d="M45.64 63.79a20.75 20.75 0 01-35.42-14.67v-33l33.29 17.15c4.68 2.87 8.21 10.11 8.21 15.84a20.72 20.72 0 01-6.08 14.67M50.74 26L0 0v49.12a31 31 0 0061.94 0c0-8.56-4.39-19.12-11.2-23.12z" />
  <path fill="#007ac9" d="M39.14 49.12c0-5.73 3.52-13 8.2-15.84l33.3-17.12v33a20.75 20.75 0 11-41.49 0m-10.23 0a31 31 0 0061.94 0V0L40.11 26c-6.8 4-11.19 14.56-11.19 23.12z" />
  <path fill="#000" d="M366.25 24.48a4.37 4.37 0 114.4-4.38 4.42 4.42 0 01-4.4 4.38zm0-7.62a3.2 3.2 0 00-3.2 3.22 3.25 3.25 0 003.2 3.28 3.21 3.21 0 003.2-3.22 3.25 3.25 0 00-3.2-3.28zm.64 5.5l-1.06-1.9h-.08v1.9h-1V17.8h1.58c1.12 0 1.56.48 1.56 1.2a1.23 1.23 0 01-1.06 1.32 3.56 3.56 0 01.38.58l.86 1.46h-1.2zm-.72-3.8h-.42v1.26h.25a.72.72 0 00.84-.7c.03-.38-.15-.56-.67-.56z" />
</svg>