<svg width="560" height="400" viewBox="0 0 560 400" fill="none" xmlns="http://www.w3.org/2000/svg">
<path fill-rule="evenodd" clip-rule="evenodd" d="M254.465 169.434C253.545 162.075 252.932 154.717 252.932 147.509C248.178 146.897 235.146 145.21 230.856 145.21C211.076 145.21 196.973 157.016 196.973 176.947C196.973 213.897 242.046 205.465 242.046 232.602C242.046 243.488 233.613 250.08 223.189 250.08C208.624 250.08 201.265 238.735 199.426 225.704L195.132 226.622C195.9 234.441 196.973 242.108 197.738 249.927C205.251 253.76 213.531 256.827 222.116 256.827C241.74 256.827 259.218 245.787 259.218 224.63C259.218 187.832 213.225 195.499 213.225 170.048C213.225 157.934 219.97 150.73 232.08 150.73C242.66 150.73 249.1 160.236 250.172 170.202M287.084 203.011H342.737V241.188C342.737 249.468 336.296 249.926 330.779 249.926H327.865V254.526C334.61 254.526 344.423 253.913 352.702 253.913C360.52 253.913 369.719 254.526 375.852 254.526V249.926H373.706C368.186 249.926 362.361 249.16 362.361 241.188V160.848C362.361 152.877 368.186 152.11 373.706 152.11H375.852V147.509C369.719 147.509 360.52 148.123 352.702 148.123C344.423 148.123 334.61 147.509 327.865 147.509V152.11H330.779C336.296 152.11 342.737 152.569 342.737 160.848V194.425H287.084V160.848C287.084 152.57 293.524 152.11 299.043 152.11H301.956V147.509C295.209 147.509 285.396 148.123 277.117 148.123C269.299 148.123 260.101 147.509 253.968 147.509V152.11H256.113C261.633 152.11 267.458 152.877 267.458 160.848V241.188C267.458 249.16 261.633 249.926 256.113 249.926H253.968V254.526C260.101 254.526 269.299 253.913 277.117 253.913C285.396 253.913 295.209 254.526 301.956 254.526V249.926H299.043C293.522 249.926 287.084 249.468 287.084 241.188M434.772 208.071H406.102L420.359 164.681H420.668L434.772 208.071ZM403.188 216.658H437.991L443.969 234.442C445.657 239.349 447.036 243.488 447.036 245.483C447.036 249.314 441.057 249.927 437.53 249.927H435.846V254.527C443.665 254.221 451.332 253.914 458.843 253.914C466.201 253.914 473.1 254.221 480 254.527V249.927H479.08C474.022 249.927 470.802 248.088 468.962 243.795C466.969 239.195 465.13 233.523 463.289 228.156L435.078 147.969L433.699 144.137C433.392 143.676 433.085 143.676 432.625 143.676C432.165 143.676 431.86 143.831 431.399 143.983C428.486 145.823 422.353 148.89 417.447 150.576C416.528 156.25 413.768 163.916 411.775 169.589L387.243 239.962C384.945 246.402 379.886 249.928 373.906 249.928H372.987V254.527C378.507 254.221 384.025 253.914 389.545 253.914C395.676 253.914 401.963 254.221 408.096 254.527V249.928H406.41C401.35 249.928 394.911 249.16 394.911 244.562C394.911 241.802 396.75 237.815 398.283 232.604" fill="#010201"/>
<path fill-rule="evenodd" clip-rule="evenodd" d="M111.291 182.136C116.925 174.352 126.087 169.29 136.429 169.29C153.561 169.29 167.447 183.176 167.447 200.308C167.447 217.44 153.561 231.326 136.429 231.326C123.75 231.326 112.847 223.718 108.038 212.815C111.901 217.255 117.592 220.061 123.94 220.061C135.577 220.061 145.011 210.627 145.011 198.989C145.011 187.351 135.578 177.918 123.94 177.918C119.377 177.911 114.937 179.392 111.291 182.136Z" fill="#8E9197"/>
<path fill-rule="evenodd" clip-rule="evenodd" d="M80 200.186C80 175.957 99.64 156.316 123.868 156.316C139.646 156.316 153.478 164.647 161.208 177.15C155.019 170.53 146.207 166.393 136.43 166.393C117.7 166.393 102.516 181.577 102.516 200.309C102.516 219.041 117.7 234.224 136.43 234.224C145.967 234.224 154.585 230.288 160.746 223.95C152.937 236.048 139.338 244.055 123.867 244.055C99.64 244.054 80 224.415 80 200.186Z" fill="#287FB6"/>
<path fill-rule="evenodd" clip-rule="evenodd" d="M83.2422 176.824C92.1782 156.712 112.327 142.687 135.754 142.687C167.473 142.687 193.186 168.4 193.186 200.122C193.186 231.844 167.473 257.559 135.754 257.559C112.546 257.559 92.5512 243.792 83.4942 223.981C91.6462 237.784 106.676 247.043 123.868 247.043C149.746 247.043 170.723 226.064 170.723 200.186C170.723 174.306 149.746 153.328 123.868 153.328C106.497 153.328 91.3332 162.78 83.2422 176.824ZM459.943 151.846C461.79 151.789 462.216 151.022 462.216 150.055C462.216 149.117 461.79 148.635 460.228 148.635H457.871V151.846H459.943ZM457.871 153.806V159.234H455.909V146.675H459.974C462.273 146.675 464.661 147.299 464.661 150.141C464.661 151.59 463.781 152.726 462.103 153.067V153.125C463.837 153.465 464.036 154.232 464.235 155.597C464.406 156.789 464.548 158.097 464.973 159.234H462.472C462.331 158.524 462.131 157.728 462.044 156.99C461.904 155.909 461.904 154.914 461.336 154.318C460.854 153.806 460.2 153.863 459.517 153.806H457.871ZM468.923 153.097C468.923 148.266 465 144.316 460.142 144.316C455.255 144.316 451.305 148.265 451.305 153.097C451.304 154.258 451.532 155.407 451.976 156.48C452.42 157.552 453.071 158.527 453.891 159.347C454.712 160.168 455.687 160.819 456.759 161.263C457.832 161.706 458.981 161.934 460.142 161.933C465.001 161.933 468.923 157.983 468.923 153.097ZM449.431 153.097C449.431 147.215 454.205 142.441 460.144 142.441C466.054 142.441 470.799 147.215 470.799 153.097C470.799 159.034 466.054 163.808 460.144 163.808C458.736 163.812 457.342 163.537 456.04 163.001C454.739 162.464 453.557 161.675 452.561 160.679C451.566 159.684 450.777 158.502 450.239 157.201C449.702 155.899 449.428 154.505 449.431 153.097Z" fill="#010201"/>
</svg>
